<svg width="40" height="40" viewBox="0 0 40 40" fill="none" xmlns="http://www.w3.org/2000/svg">
<path d="M32.9419 33.1833L9.49244 33.0359C8.9684 33.0393 8.45563 32.8818 8.02168 32.5841C7.58772 32.2864 7.25294 31.8624 7.06142 31.3681C6.78226 30.5961 6.82297 29.6002 7.81167 28.3508C7.86286 28.2871 7.91722 28.2262 7.97451 28.1681L23.0957 12.7217H1.69922V39.0059H33.3839V33.1833H32.9419Z" fill="#0CB3AF"/>
<path d="M7.07872 6.82847L30.5282 6.96992C31.0522 6.96652 31.565 7.12405 31.999 7.42177C32.4329 7.71948 32.7677 8.14342 32.9592 8.63772C33.2384 9.40974 33.1977 10.4057 32.209 11.661C32.1566 11.7199 32.1043 11.7847 32.0461 11.8437L16.9249 27.2841H38.2923V1H6.63672V6.82847H7.07872Z" fill="#0CB3AF"/>
</svg>
