<svg width="179" height="38" viewBox="0 0 179 38" fill="none" xmlns="http://www.w3.org/2000/svg">
<g clip-path="url(#clip0_19421_5295)">
<path d="M5.37966 5.82847L28.8291 5.96992C29.3532 5.96652 29.8659 6.12405 30.2999 6.42177C30.7339 6.71948 31.0686 7.14342 31.2602 7.63772C31.5393 8.40974 31.4986 9.40571 30.5099 10.661C30.4576 10.7199 30.4052 10.7847 30.3471 10.8437L15.2259 26.2841H36.5933V0H4.93765V5.82847H5.37966Z" fill="#0CB3AF"/>
<path d="M31.2427 32.1833L7.79323 32.036C7.26918 32.0394 6.75641 31.8818 6.32246 31.5841C5.8885 31.2864 5.55372 30.8625 5.3622 30.3682C5.08304 29.5961 5.12375 28.6002 6.11245 27.3508C6.16365 27.2871 6.218 27.2262 6.27529 27.1681L21.3965 11.7218H0V38.0059H31.6847V32.1833H31.2427Z" fill="#0CB3AF"/>
<path d="M60.2347 12.2227C60.0047 11.9834 59.7298 11.7931 59.4263 11.6628C59.1286 11.5342 58.8077 11.47 58.4841 11.4742H44.2411V15.9237H54.4537L44.9565 25.6299V25.6594C44.7811 25.8587 44.6324 26.0807 44.5145 26.3195C44.3981 26.5539 44.3233 26.8072 44.2935 27.0679C44.2655 27.1815 44.2537 27.2986 44.2586 27.4156V28.3468C44.2523 28.615 44.3007 28.8817 44.4008 29.1301C44.5008 29.3786 44.6504 29.6034 44.8402 29.7906C45.2175 30.1697 45.7278 30.3817 46.2592 30.3799H60.1533V25.96H50.813L60.2696 16.348C60.6252 16.015 60.8606 15.5711 60.9384 15.0868C60.9806 14.7369 61 14.3845 60.9966 14.0319C61.0008 13.6932 60.9352 13.3574 60.804 13.0458C60.6728 12.7343 60.4789 12.4539 60.2347 12.2227Z" fill="#0F172A"/>
<path d="M75.0476 13.7844C74.7684 13.0848 74.2841 12.4887 73.6602 12.0767C73.0362 11.6647 72.3025 11.4564 71.5581 11.4801C70.825 11.4787 70.1133 11.7302 69.54 12.1932C68.9852 12.6182 68.5501 13.1831 68.278 13.8316L68.2198 13.9612L61.0431 30.1855L61.0082 30.2739V30.3328H65.7539L66.8705 27.8694H76.5539L77.7171 30.3741H82.5442L75.0476 13.7844ZM68.8014 23.4612L71.657 16.9786L74.5649 23.4612H68.8014Z" fill="#0F172A"/>
<path d="M100.032 11.4801H95.2461L89.3488 24.8815L83.3119 11.4801H78.4848L85.9582 28.0698C86.2496 28.7398 86.7136 29.3179 87.3016 29.7435C87.902 30.1657 88.6181 30.3863 89.3488 30.3741C90.0945 30.3907 90.8253 30.1611 91.4309 29.7199C92.0059 29.2856 92.4589 28.7066 92.7452 28.0403L100.05 11.5391V30.3741H104.441V11.4801H100.05H100.032Z" fill="#0F172A"/>
<path d="M118.504 29.9026C119.185 29.6049 119.801 29.1744 120.318 28.6355C120.823 28.1036 121.231 27.485 121.522 26.8086C121.826 26.0943 121.981 25.3236 121.976 24.5456V24.3216C121.981 23.5581 121.83 22.8017 121.534 22.0999C121.261 21.4321 120.866 20.8223 120.37 20.3024C119.865 19.7789 119.262 19.3622 118.597 19.0766C117.905 18.7787 117.161 18.6263 116.41 18.6287H112.513C112.35 18.6373 112.187 18.6089 112.036 18.5457C111.886 18.4825 111.75 18.3861 111.641 18.2633C111.402 17.9961 111.275 17.6454 111.286 17.285C111.282 17.1039 111.315 16.9238 111.381 16.7557C111.448 16.5876 111.548 16.435 111.675 16.3071C111.801 16.1793 111.952 16.0788 112.118 16.0119C112.285 15.945 112.462 15.913 112.641 15.9178H121.976V11.4683H112.612C111.843 11.4635 111.08 11.62 110.373 11.928C109 12.5177 107.908 13.6251 107.326 15.0161C107.022 15.7327 106.867 16.5051 106.872 17.285V17.3852C106.866 18.1469 107.017 18.9015 107.314 19.6011C107.596 20.2771 108.005 20.8915 108.518 21.4103C109.029 21.9277 109.633 22.3418 110.297 22.6303C110.989 22.9282 111.733 23.0806 112.484 23.0781H116.381C116.701 23.0825 117.007 23.2117 117.236 23.4389C117.464 23.6661 117.598 23.9738 117.608 24.2981V24.5986C117.605 24.7735 117.567 24.946 117.497 25.106C117.428 25.2659 117.327 25.41 117.201 25.5298C117.082 25.6544 116.939 25.7528 116.781 25.8187C116.623 25.8847 116.453 25.9167 116.282 25.9128H106.878V30.3623H116.265C117.034 30.3664 117.796 30.2099 118.504 29.9026Z" fill="#0F172A"/>
<path d="M138.993 15.6408C138.647 14.8319 138.153 14.0962 137.539 13.4721C136.926 12.85 136.201 12.3519 135.404 12.0046C134.568 11.637 133.664 11.4503 132.752 11.4566H130.298C129.386 11.4503 128.483 11.637 127.646 12.0046C126.848 12.3533 126.122 12.8511 125.506 13.4721C124.895 14.0976 124.407 14.8357 124.069 15.6467C123.713 16.4942 123.533 17.407 123.54 18.3282V23.526C123.535 24.4425 123.719 25.3498 124.081 26.1898C124.429 26.9976 124.922 27.7329 125.535 28.3586C126.149 28.9795 126.873 29.4773 127.669 29.826C128.498 30.1919 129.394 30.3786 130.298 30.3741H132.752C133.654 30.3796 134.547 30.1971 135.375 29.8378C136.997 29.1469 138.293 27.8486 138.993 26.2134C139.356 25.3657 139.54 24.4502 139.534 23.526V18.3282C139.54 17.4039 139.356 16.4885 138.993 15.6408ZM135.143 23.526C135.147 23.8464 135.084 24.164 134.957 24.4572C134.832 24.7473 134.654 25.0112 134.433 25.2351C134.215 25.4542 133.956 25.6265 133.671 25.7419C133.38 25.8641 133.068 25.9262 132.752 25.9246H130.298C129.979 25.9291 129.662 25.8669 129.368 25.7419C129.084 25.6272 128.829 25.4523 128.617 25.2292C128.395 25.0085 128.218 24.7464 128.094 24.4572C127.967 24.164 127.903 23.8464 127.908 23.526V18.3282C127.903 18.0078 127.967 17.6902 128.094 17.397C128.217 17.1057 128.395 16.8414 128.617 16.6191C128.838 16.3978 129.096 16.2182 129.379 16.0887C129.67 15.9633 129.982 15.8991 130.298 15.9001H132.752C133.066 15.8976 133.378 15.9618 133.666 16.0887C133.95 16.2181 134.21 16.3977 134.433 16.6191C134.654 16.843 134.832 17.1069 134.957 17.397C135.084 17.6902 135.147 18.0078 135.143 18.3282V23.526Z" fill="#0F172A"/>
<path d="M156.231 18.3105H146.926V15.9532H157.115V11.5273H145.483C145.101 11.5235 144.723 11.596 144.368 11.7406C144.014 11.8852 143.691 12.0991 143.419 12.37C143.137 12.641 142.913 12.9685 142.763 13.3318C142.613 13.6951 142.539 14.086 142.546 14.4798V30.3917H146.926V22.7599H156.231V18.3105Z" fill="#0F172A"/>
<path d="M158.796 11.4742V15.9237H163.954V30.3741H168.345V15.9237H173.504V11.4742H158.796Z" fill="#0F172A"/>
<path d="M176.761 12.1756C176.317 12.1767 175.882 12.0443 175.512 11.795C175.142 11.5458 174.854 11.1909 174.683 10.7754C174.512 10.3598 174.467 9.90223 174.553 9.46057C174.639 9.01891 174.852 8.61303 175.166 8.2943C175.479 7.97557 175.879 7.75833 176.315 7.67008C176.751 7.58183 177.202 7.62653 177.613 7.79853C178.023 7.97053 178.374 8.26209 178.621 8.63631C178.868 9.01053 179 9.45057 179 9.90074C179.001 10.1992 178.943 10.4949 178.831 10.7708C178.719 11.0468 178.554 11.2976 178.346 11.5089C178.138 11.7202 177.891 11.8879 177.619 12.0023C177.347 12.1167 177.055 12.1756 176.761 12.1756ZM176.761 7.81452C176.352 7.81335 175.952 7.93521 175.612 8.16465C175.271 8.39408 175.006 8.72076 174.849 9.10329C174.692 9.48581 174.65 9.90695 174.73 10.3133C174.809 10.7197 175.006 11.093 175.295 11.386C175.584 11.6789 175.953 11.8783 176.354 11.9588C176.755 12.0394 177.17 11.9974 177.548 11.8384C177.925 11.6793 178.248 11.4102 178.474 11.0653C178.701 10.7203 178.821 10.315 178.82 9.90074C178.818 9.34792 178.601 8.81818 178.215 8.42727C177.829 8.03636 177.306 7.81607 176.761 7.81452Z" fill="#0F172A"/>
<path d="M175.813 9.27605H175.377V9.11693H176.435V9.27605H176.005V10.5608H175.819L175.813 9.27605Z" fill="#0F172A"/>
<path d="M177.796 9.90074C177.796 9.69447 177.796 9.45285 177.796 9.27605C177.75 9.44106 177.691 9.62375 177.616 9.82412L177.366 10.5254H177.226L176.994 9.83591C176.93 9.62964 176.871 9.44695 176.831 9.27605C176.831 9.45285 176.831 9.69447 176.802 9.91253L176.767 10.5019H176.586L176.685 9.058H176.918L177.162 9.7593C177.22 9.9361 177.273 10.0952 177.308 10.2425C177.342 10.1011 177.395 9.94199 177.459 9.7593L177.715 9.058H177.947L178.035 10.5019H177.854L177.796 9.90074Z" fill="#0F172A"/>
<path d="M60.974 30.3033L60.9681 30.3153L60.9621 30.369H60.9442L60.974 30.3033Z" fill="#0F172A"/>
</g>
<defs>
<clipPath id="clip0_19421_5295">
<rect width="179" height="38" fill="white"/>
</clipPath>
</defs>
</svg>
