<svg width="51" height="51" viewBox="0 0 51 51" fill="none" xmlns="http://www.w3.org/2000/svg">
<path d="M43.806 33.1865C43.6993 33.0827 43.5644 33.0125 43.4181 32.9845C43.2719 32.9565 43.1206 32.9721 42.9831 33.0292C42.8456 33.0863 42.7278 33.1825 42.6444 33.3058C42.5609 33.4291 42.5155 33.5742 42.5137 33.7231V34.4185H38.6135C37.0885 36.2155 35.2037 37.6728 33.0808 38.6965C32.9675 38.7494 32.8541 38.8023 32.7407 38.8477H42.5136V39.5506C42.5167 39.6989 42.5629 39.8432 42.6465 39.9657C42.7302 40.0883 42.8477 40.1838 42.9847 40.2407C43.1217 40.2976 43.2723 40.3134 43.4182 40.2862C43.564 40.2589 43.6988 40.1898 43.806 40.0873L46.7236 37.1698C46.8621 37.027 46.9396 36.8359 46.9396 36.6369C46.9396 36.438 46.8621 36.2469 46.7236 36.1041L43.806 33.1865Z" fill="black"/>
<path d="M20.24 32.8969C18.6061 31.9344 17.2515 30.5621 16.3104 28.9158C15.3692 27.2694 14.874 25.4059 14.8737 23.5095C15.1855 10.7366 32.7709 8.52176 36.3091 20.6827L37.2765 19.7153C37.5091 19.4924 37.7855 19.3205 38.0882 19.2104C38.3909 19.1003 38.7133 19.0544 39.0346 19.0758C39.356 19.0971 39.6695 19.1851 39.955 19.3343C40.2405 19.4834 40.4918 19.6904 40.6929 19.942C36.1398 2.47646 10.908 5.30509 10.4445 23.5095C10.4296 26.912 11.5641 30.2198 13.6642 32.8969L20.24 32.8969Z" fill="black"/>
<path d="M41.0398 24.9938C41.5239 24.9856 42.2821 25.1149 42.491 24.5252C42.5473 24.3868 42.5616 24.2348 42.5321 24.0882C42.5025 23.9417 42.4304 23.8071 42.3247 23.7014C41.6275 22.9968 40.1115 21.5073 39.4072 20.7914C39.2641 20.6533 39.0731 20.5762 38.8743 20.5762C38.6755 20.5762 38.4845 20.6534 38.3415 20.7914L37.9711 21.1618C37.336 21.7918 36.0532 23.0703 35.424 23.7013C35.3212 23.8085 35.2518 23.9433 35.2244 24.0892C35.197 24.2352 35.2127 24.3859 35.2696 24.5231C35.3266 24.6602 35.4223 24.7778 35.545 24.8614C35.6677 24.945 35.8122 24.9911 35.9606 24.9939H36.588C36.2245 27.6029 34.9306 29.9928 32.9445 31.7234C30.9584 33.4539 28.4139 34.4086 25.7796 34.4115H5.37207C5.17179 34.4121 4.97988 34.4919 4.83825 34.6335C4.69663 34.7751 4.61681 34.967 4.61621 35.1673V38.0849C4.6168 38.2852 4.69663 38.4771 4.83825 38.6187C4.97987 38.7603 5.17178 38.8401 5.37207 38.8407L25.7794 38.8407C29.5842 38.8252 33.2485 37.4019 36.0663 34.8452C38.884 32.2884 40.6557 28.7792 41.0398 24.9938Z" fill="black"/>
</svg>
