<svg width="53" height="52" viewBox="0 0 53 52" fill="none" xmlns="http://www.w3.org/2000/svg">
<path d="M26.4711 26.001H49.8998" stroke="black" stroke-width="2" stroke-miterlimit="10" stroke-linecap="round" stroke-linejoin="round"/>
<path d="M47.4761 22.769L50.7076 26.0005L47.4761 29.2321" stroke="black" stroke-width="2" stroke-miterlimit="10" stroke-linecap="round" stroke-linejoin="round"/>
<path d="M24.4513 32.0597C27.7977 32.0597 30.5105 29.3469 30.5105 26.0005C30.5105 22.6542 27.7977 19.9414 24.4513 19.9414C21.105 19.9414 18.3922 22.6542 18.3922 26.0005C18.3922 29.3469 21.105 32.0597 24.4513 32.0597Z" stroke="black" stroke-width="2" stroke-miterlimit="10" stroke-linecap="round" stroke-linejoin="round"/>
<path d="M23.2395 38.927C30.3784 38.927 36.1657 33.1397 36.1657 26.0008C36.1657 18.8619 30.3784 13.0747 23.2395 13.0747C16.1006 13.0747 10.3134 18.8619 10.3134 26.0008C10.3134 33.1397 16.1006 38.927 23.2395 38.927Z" stroke="black" stroke-width="2" stroke-miterlimit="10" stroke-linecap="round" stroke-linejoin="round"/>
<path d="M22.0277 45.794C32.9592 45.794 41.8209 36.9322 41.8209 26.0007C41.8209 15.0692 32.9592 6.20752 22.0277 6.20752C11.0962 6.20752 2.2345 15.0692 2.2345 26.0007C2.2345 36.9322 11.0962 45.794 22.0277 45.794Z" stroke="black" stroke-width="2" stroke-miterlimit="10" stroke-linecap="round" stroke-linejoin="round"/>
</svg>
