<svg width="30" height="30" viewBox="0 0 30 30" fill="none" xmlns="http://www.w3.org/2000/svg">
<g clip-path="url(#clip0_20905_9693)">
<path d="M8.95386 2.23096V8.15748L18.2556 8.90057L16.484 2.23096H8.95386Z" fill="#FFB54C"/>
<path d="M16.4066 0H25.0524V8.15355H16.4066V0Z" fill="#7F94FD"/>
<path d="M4.59479 7.4458L5.78858 21.4553H16.4066L17.6787 12.7964L16.4066 7.4458H4.59479Z" fill="#C6EA4B"/>
<path d="M29.8922 7.4458H16.4066V21.4553H27.4495L29.8922 7.4458Z" fill="#59C87F"/>
<path d="M8.72693 11.9399L10.4302 11.5022L11.9612 17.46L10.2579 17.8976L8.72693 11.9399Z" fill="#3869AD"/>
<path d="M20.8618 17.4478L22.4124 11.4914L24.114 11.9343L22.5634 17.8907L20.8618 17.4478Z" fill="#00447F"/>
<path d="M8.29187 23.6557C7.68747 23.6557 7.1712 23.2039 7.09087 22.6049L4.39234 2.46094H0.107727V4.21875H2.85431L5.34859 22.8383C5.54529 24.3064 6.81062 25.4135 8.29181 25.4135H16.4066L16.8449 24.343L16.4066 23.6556H8.29187V23.6557Z" fill="#3869AD"/>
<path d="M16.4066 23.6558H27.0247V25.4136H16.4066V23.6558Z" fill="#00447F"/>
<path d="M15.5255 11.145V17.4671H16.4066L16.845 14.1983L16.4066 11.145H15.5255Z" fill="#3869AD"/>
<path d="M16.4066 11.145H17.2833V17.4671H16.4066V11.145Z" fill="#00447F"/>
<path d="M10.7835 29.1212C12.05 29.1212 13.0767 28.0944 13.0767 26.8279C13.0767 25.5614 12.05 24.5347 10.7835 24.5347C9.51695 24.5347 8.49023 25.5614 8.49023 26.8279C8.49023 28.0944 9.51695 29.1212 10.7835 29.1212Z" fill="#E6F8FC"/>
<path d="M10.7835 30.0001C9.03434 30.0001 7.61133 28.5771 7.61133 26.8279C7.61133 25.0788 9.03434 23.6558 10.7835 23.6558C12.5326 23.6558 13.9556 25.0788 13.9556 26.8279C13.9556 28.5771 12.5326 30.0001 10.7835 30.0001ZM10.7835 25.4136C10.0036 25.4136 9.36914 26.0481 9.36914 26.828C9.36914 27.6079 10.0036 28.2424 10.7835 28.2424C11.5634 28.2424 12.1978 27.6079 12.1978 26.828C12.1978 26.0481 11.5634 25.4136 10.7835 25.4136Z" fill="#98CCFE"/>
<path d="M22.0298 29.1212C23.2963 29.1212 24.3231 28.0944 24.3231 26.8279C24.3231 25.5614 23.2963 24.5347 22.0298 24.5347C20.7633 24.5347 19.7366 25.5614 19.7366 26.8279C19.7366 28.0944 20.7633 29.1212 22.0298 29.1212Z" fill="#D0E8FF"/>
<path d="M22.0299 30.0001C20.2807 30.0001 18.8577 28.5771 18.8577 26.8279C18.8577 25.0788 20.2807 23.6558 22.0299 23.6558C23.779 23.6558 25.202 25.0788 25.202 26.8279C25.202 28.5771 23.779 30.0001 22.0299 30.0001ZM22.0299 25.4136C21.2499 25.4136 20.6155 26.0481 20.6155 26.828C20.6155 27.6079 21.2499 28.2424 22.0299 28.2424C22.8098 28.2424 23.4442 27.6079 23.4442 26.828C23.4441 26.0481 22.8097 25.4136 22.0299 25.4136Z" fill="#7F94FD"/>
</g>
<defs>
<clipPath id="clip0_20905_9693">
<rect width="30" height="30" fill="white"/>
</clipPath>
</defs>
</svg>
