<svg width="40" height="40" viewBox="0 0 40 40" fill="none" xmlns="http://www.w3.org/2000/svg">
<rect width="40" height="40" rx="20" fill="#6481F1"/>
<g clip-path="url(#clip0_20905_9563)">
<path d="M23.2143 14.75C23.2143 13.8798 22.8756 13.0452 22.2728 12.4298C21.67 11.8145 20.8525 11.4688 20 11.4688C19.1475 11.4688 18.33 11.8145 17.7272 12.4298C17.1244 13.0452 16.7857 13.8798 16.7857 14.75C16.7857 15.6202 17.1244 16.4548 17.7272 17.0702C18.33 17.6855 19.1475 18.0312 20 18.0312C20.8525 18.0312 21.67 17.6855 22.2728 17.0702C22.8756 16.4548 23.2143 15.6202 23.2143 14.75ZM14.8571 14.75C14.8571 13.3576 15.399 12.0223 16.3635 11.0377C17.3279 10.0531 18.636 9.5 20 9.5C21.364 9.5 22.6721 10.0531 23.6365 11.0377C24.601 12.0223 25.1429 13.3576 25.1429 14.75C25.1429 16.1424 24.601 17.4777 23.6365 18.4623C22.6721 19.4469 21.364 20 20 20C18.636 20 17.3279 19.4469 16.3635 18.4623C15.399 17.4777 14.8571 16.1424 14.8571 14.75ZM12.9808 28.5312H27.0232C26.6656 25.935 24.4799 23.9375 21.8402 23.9375H18.1679C15.5281 23.9375 13.3424 25.935 12.9848 28.5312H12.9808ZM11 29.2818C11 25.2418 14.2063 21.9688 18.1638 21.9688H21.8362C25.7938 21.9688 29 25.2418 29 29.2818C29 29.9545 28.4656 30.5 27.8067 30.5H12.1933C11.5344 30.5 11 29.9545 11 29.2818Z" fill="white"/>
</g>
<defs>
<clipPath id="clip0_20905_9563">
<rect width="18" height="21" fill="white" transform="translate(11 9.5)"/>
</clipPath>
</defs>
</svg>
