<svg width="30" height="30" viewBox="0 0 30 30" fill="none" xmlns="http://www.w3.org/2000/svg">
<g clip-path="url(#clip0_20905_9742)">
<path d="M28.9918 7.52391C28.9162 -0.163748 18.8741 -2.79755 15.0003 3.71133C7.97761 -7.02764 -12.4753 7.22453 15.0003 24.9305C15.0003 24.9305 28.9918 16.3841 28.9918 7.52391Z" fill="#F87670"/>
<path d="M17.0491 19.2581L12.9502 8.43723L11.3864 12.5654H0.366211V11.1592H10.4158L12.9502 4.46777L17.0491 15.288L18.6128 11.1592H29.6337V12.5654H19.5847L17.0491 19.2581Z" fill="white"/>
<path d="M1.63124 19.1914H2.1075C2.44317 19.1914 2.76509 19.3248 3.00245 19.5621C3.2398 19.7995 3.37315 20.1214 3.37315 20.4571V26.3753C3.37315 26.7108 3.23987 27.0326 3.00263 27.2698C2.76539 27.5071 2.44363 27.6403 2.10812 27.6403H1.63186C1.2963 27.6403 0.97447 27.5071 0.737133 27.2699C0.499795 27.0326 0.366377 26.7109 0.366211 26.3753L0.366211 20.4564C0.366211 20.1209 0.49949 19.7992 0.736729 19.5619C0.973967 19.3247 1.29573 19.1914 1.63124 19.1914Z" fill="#7A8E9B"/>
<path d="M2.47058 26.0912C2.46554 26.2472 2.40003 26.3951 2.28787 26.5037C2.17572 26.6123 2.02574 26.673 1.86963 26.673C1.71352 26.673 1.56353 26.6123 1.45138 26.5037C1.33923 26.3951 1.27371 26.2472 1.26868 26.0912C1.27371 25.9351 1.33923 25.7872 1.45138 25.6786C1.56353 25.57 1.71352 25.5093 1.86963 25.5093C2.02574 25.5093 2.17572 25.57 2.28787 25.6786C2.40003 25.7872 2.46554 25.9351 2.47058 26.0912Z" fill="white"/>
<path d="M22.5666 24.3185C22.0485 24.5873 21.511 24.8654 20.9572 25.1467L20.9504 25.1523C18.3534 26.4142 15.5752 26.3142 12.6658 25.5436C12.6 25.5269 12.5382 25.4974 12.4838 25.4566C12.4295 25.4159 12.3838 25.3648 12.3494 25.3063C12.315 25.2478 12.2925 25.1831 12.2833 25.1158C12.2741 25.0486 12.2783 24.9801 12.2957 24.9145C12.3131 24.8489 12.3434 24.7874 12.3847 24.7336C12.426 24.6797 12.4777 24.6346 12.5366 24.6009C12.5955 24.5671 12.6605 24.5454 12.7278 24.537C12.7952 24.5285 12.8635 24.5335 12.9289 24.5517C15.969 25.3567 18.3734 25.2542 20.4916 24.2323C21.4291 23.751 21.4491 23.5754 21.4916 23.2248C21.6897 22.0266 20.9291 21.5372 20.1791 21.5666C15.2534 21.6522 14.3533 21.1247 13.3152 20.5153C12.3777 19.9641 11.3108 19.3384 5.53441 19.2359C5.37516 19.234 5.21711 19.2637 5.06938 19.3232C4.92165 19.3827 4.78717 19.4708 4.67369 19.5826C4.5602 19.6943 4.46997 19.8274 4.4082 19.9742C4.34642 20.121 4.31432 20.2786 4.31376 20.4378V26.7123C4.31199 26.9467 4.37669 27.1768 4.50037 27.3759C4.62404 27.5751 4.80162 27.735 5.01252 27.8374C7.85821 29.253 16.7003 33.4625 28.9274 24.0123C29.0299 23.9498 29.938 23.3498 29.528 22.6079C28.7493 21.1997 26.3761 22.341 22.5666 24.3185Z" fill="#F1BB6B"/>
</g>
<defs>
<clipPath id="clip0_20905_9742">
<rect width="30" height="30" fill="white"/>
</clipPath>
</defs>
</svg>
