<svg width="23" height="23" viewBox="0 0 23 23" fill="none" xmlns="http://www.w3.org/2000/svg">
<g clip-path="url(#clip0_21379_11887)">
<path d="M11.15 2.00957C14.129 2.00957 14.4786 2.02285 15.656 2.07596C16.7449 2.12465 17.3336 2.30613 17.7276 2.46106C18.2499 2.66467 18.6217 2.90369 19.0112 3.29321C19.4007 3.68273 19.6442 4.05455 19.8434 4.57686C19.9939 4.9708 20.1798 5.55951 20.2285 6.64839C20.2816 7.8258 20.2949 8.17549 20.2949 11.1544C20.2949 14.1334 20.2816 14.483 20.2285 15.6605C20.1798 16.7493 19.9983 17.3381 19.8434 17.732C19.6398 18.2543 19.4007 18.6261 19.0112 19.0156C18.6217 19.4052 18.2499 19.6486 17.7276 19.8478C17.3336 19.9983 16.7449 20.1842 15.656 20.2329C14.4786 20.286 14.129 20.2993 11.15 20.2993C8.17107 20.2993 7.82138 20.286 6.64397 20.2329C5.55509 20.1842 4.96638 20.0027 4.57243 19.8478C4.05012 19.6442 3.67831 19.4052 3.28879 19.0156C2.89927 18.6261 2.65582 18.2543 2.45663 17.732C2.30613 17.3381 2.12023 16.7493 2.07154 15.6605C2.01842 14.483 2.00514 14.1334 2.00514 11.1544C2.00514 8.17549 2.01842 7.8258 2.07154 6.64839C2.12023 5.55951 2.30171 4.9708 2.45663 4.57686C2.66024 4.05455 2.89927 3.68273 3.28879 3.29321C3.67831 2.90369 4.05012 2.66024 4.57243 2.46106C4.96638 2.31056 5.55509 2.12465 6.64397 2.07596C7.82138 2.01842 8.17549 2.00957 11.15 2.00957ZM11.15 0C8.12238 0 7.74171 0.0132791 6.55102 0.0663954C5.36475 0.119512 4.55473 0.309845 3.84651 0.584279C3.11173 0.867566 2.49204 1.25266 1.87235 1.87235C1.25266 2.49204 0.871993 3.11616 0.58428 3.84651C0.309845 4.55472 0.119512 5.36475 0.0663954 6.55544C0.0132791 7.7417 0 8.12237 0 11.15C0 14.1776 0.0132791 14.5583 0.0663954 15.749C0.119512 16.9353 0.309845 17.7453 0.58428 18.4579C0.867567 19.1927 1.25266 19.8124 1.87235 20.4321C2.49204 21.0518 3.11616 21.4324 3.84651 21.7201C4.55473 21.9946 5.36475 22.1849 6.55544 22.238C7.74614 22.2911 8.12238 22.3044 11.1544 22.3044C14.1865 22.3044 14.5627 22.2911 15.7534 22.238C16.9397 22.1849 17.7497 21.9946 18.4624 21.7201C19.1971 21.4369 19.8168 21.0518 20.4365 20.4321C21.0562 19.8124 21.4369 19.1883 21.7246 18.4579C21.999 17.7497 22.1894 16.9397 22.2425 15.749C22.2956 14.5583 22.3089 14.1821 22.3089 11.15C22.3089 8.11794 22.2956 7.7417 22.2425 6.55101C22.1894 5.36475 21.999 4.55472 21.7246 3.84208C21.4413 3.1073 21.0562 2.48761 20.4365 1.86792C19.8168 1.24823 19.1927 0.867566 18.4624 0.579853C17.7541 0.305419 16.9441 0.115085 15.7534 0.061969C14.5583 0.0132791 14.1776 0 11.15 0Z" fill="black"/>
<path d="M11.15 2.00957C14.129 2.00957 14.4786 2.02285 15.656 2.07596C16.7449 2.12465 17.3336 2.30613 17.7276 2.46106C18.2499 2.66467 18.6217 2.90369 19.0112 3.29321C19.4007 3.68273 19.6442 4.05455 19.8434 4.57686C19.9939 4.9708 20.1798 5.55951 20.2285 6.64839C20.2816 7.8258 20.2949 8.17549 20.2949 11.1544C20.2949 14.1334 20.2816 14.483 20.2285 15.6605C20.1798 16.7493 19.9983 17.3381 19.8434 17.732C19.6398 18.2543 19.4007 18.6261 19.0112 19.0156C18.6217 19.4052 18.2499 19.6486 17.7276 19.8478C17.3336 19.9983 16.7449 20.1842 15.656 20.2329C14.4786 20.286 14.129 20.2993 11.15 20.2993C8.17107 20.2993 7.82138 20.286 6.64397 20.2329C5.55509 20.1842 4.96638 20.0027 4.57243 19.8478C4.05012 19.6442 3.67831 19.4052 3.28879 19.0156C2.89927 18.6261 2.65582 18.2543 2.45663 17.732C2.30613 17.3381 2.12023 16.7493 2.07154 15.6605C2.01842 14.483 2.00514 14.1334 2.00514 11.1544C2.00514 8.17549 2.01842 7.8258 2.07154 6.64839C2.12023 5.55951 2.30171 4.9708 2.45663 4.57686C2.66024 4.05455 2.89927 3.68273 3.28879 3.29321C3.67831 2.90369 4.05012 2.66024 4.57243 2.46106C4.96638 2.31056 5.55509 2.12465 6.64397 2.07596C7.82138 2.01842 8.17549 2.00957 11.15 2.00957Z" fill="black"/>
<path d="M11.15 5.42676C7.98956 5.42676 5.42227 7.98962 5.42227 11.1545C5.42227 14.3193 7.98513 16.8822 11.15 16.8822C14.3148 16.8822 16.8777 14.3193 16.8777 11.1545C16.8777 7.98962 14.3148 5.42676 11.15 5.42676ZM11.15 14.8682C9.09615 14.8682 7.43184 13.2039 7.43184 11.15C7.43184 9.09621 9.09615 7.4319 11.15 7.4319C13.2038 7.4319 14.8681 9.09621 14.8681 11.15C14.8681 13.2039 13.2038 14.8682 11.15 14.8682Z" fill="white"/>
<path d="M17.1035 6.53387C17.8417 6.53387 18.4402 5.93538 18.4402 5.19711C18.4402 4.45884 17.8417 3.86035 17.1035 3.86035C16.3652 3.86035 15.7667 4.45884 15.7667 5.19711C15.7667 5.93538 16.3652 6.53387 17.1035 6.53387Z" fill="white"/>
</g>
<defs>
<clipPath id="clip0_21379_11887">
<rect width="22.3" height="22.3" fill="white"/>
</clipPath>
</defs>
</svg>
