<svg width="38" height="38" viewBox="0 0 38 38" fill="none" xmlns="http://www.w3.org/2000/svg">
<rect x="0.486572" y="0.301758" width="37" height="37" rx="18.5" fill="#F1F5F9"/>
<path d="M14.5596 12.6766C14.5593 13.3891 14.127 14.0303 13.4666 14.2978C12.8062 14.5653 12.0496 14.4057 11.5535 13.8942C11.0574 13.3828 10.9209 12.6216 11.2084 11.9697C11.4959 11.3178 12.1499 10.9052 12.8621 10.9266C13.8081 10.955 14.56 11.7302 14.5596 12.6766ZM14.6121 15.7216H11.1121V26.6765H14.6121V15.7216ZM20.1421 15.7216H16.6596V26.6765H20.1071V20.9278C20.1071 17.7253 24.2809 17.4278 24.2809 20.9278V26.6765H27.7371V19.7378C27.7371 14.3391 21.5596 14.5403 20.1071 17.1915L20.1421 15.7216Z" fill="#1E293B"/>
</svg>
