<svg width="20" height="20" viewBox="0 0 20 20" fill="none" xmlns="http://www.w3.org/2000/svg">
<path d="M18.1754 0H1.44863C1.06443 0 0.695966 0.152624 0.424295 0.424295C0.152624 0.695966 0 1.06443 0 1.44863V18.1754C0 18.5596 0.152624 18.928 0.424295 19.1997C0.695966 19.4714 1.06443 19.624 1.44863 19.624H18.1754C18.5596 19.624 18.928 19.4714 19.1997 19.1997C19.4714 18.928 19.624 18.5596 19.624 18.1754V1.44863C19.624 1.06443 19.4714 0.695966 19.1997 0.424295C18.928 0.152624 18.5596 0 18.1754 0ZM5.84904 16.7172H2.89863V7.34537H5.84904V16.7172ZM4.37179 6.04665C4.03712 6.04476 3.7105 5.94378 3.43317 5.75645C3.15583 5.56911 2.9402 5.30382 2.81349 4.99405C2.68678 4.68429 2.65468 4.34393 2.72122 4.01593C2.78776 3.68794 2.94998 3.387 3.18739 3.15111C3.4248 2.91522 3.72677 2.75494 4.05519 2.6905C4.38361 2.62606 4.72375 2.66036 5.0327 2.78905C5.34165 2.91774 5.60555 3.13507 5.7911 3.4136C5.97665 3.69214 6.07553 4.0194 6.07526 4.35408C6.07842 4.57814 6.03643 4.80055 5.95181 5.00805C5.86718 5.21554 5.74164 5.40388 5.58268 5.56182C5.42371 5.71977 5.23458 5.8441 5.02654 5.92739C4.81851 6.01068 4.59583 6.05124 4.37179 6.04665ZM16.724 16.7254H13.775V11.6054C13.775 10.0955 13.1331 9.62939 12.3045 9.62939C11.4296 9.62939 10.5711 10.289 10.5711 11.6436V16.7254H7.62065V7.35219H10.458V8.65091H10.4961C10.7809 8.07446 11.7785 7.08917 13.3007 7.08917C14.9469 7.08917 16.7254 8.06628 16.7254 10.9281L16.724 16.7254Z" fill="black"/>
</svg>
