<svg width="135" height="29" viewBox="0 0 135 29" fill="none" xmlns="http://www.w3.org/2000/svg">
<g clip-path="url(#clip0_20905_7534)">
<path d="M4.04157 4.3212L21.6584 4.42606C22.0521 4.42355 22.4373 4.54034 22.7634 4.76106C23.0894 4.98179 23.3409 5.29609 23.4848 5.66256C23.6945 6.23493 23.6639 6.97334 22.9211 7.90399C22.8818 7.94769 22.8425 7.99575 22.7988 8.03944L11.4387 19.4869H27.4914V0H3.7095V4.3212H4.04157Z" fill="#0EB3AF"/>
<path d="M23.4717 23.8605L5.8548 23.7513C5.4611 23.7538 5.07588 23.637 4.74986 23.4163C4.42385 23.1955 4.17233 22.8812 4.02845 22.5148C3.81873 21.9424 3.84931 21.204 4.59209 20.2777C4.63055 20.2305 4.67139 20.1853 4.71443 20.1423L16.0745 8.69043H0V28.1773H23.8037V23.8605H23.4717Z" fill="#0EB3AF"/>
<path d="M45.2524 9.06188C45.0796 8.88449 44.8731 8.74338 44.6451 8.6468C44.4214 8.55147 44.1803 8.50385 43.9372 8.50698H33.2369V11.8058H40.9094L33.7744 19.0019V19.0238C33.6426 19.1716 33.5309 19.3361 33.4423 19.5131C33.3549 19.687 33.2987 19.8748 33.2763 20.068C33.2553 20.1523 33.2464 20.2391 33.25 20.3258V21.0162C33.2453 21.2151 33.2817 21.4128 33.3569 21.597C33.4321 21.7812 33.5444 21.9479 33.687 22.0866C33.9705 22.3677 34.3539 22.5248 34.7531 22.5236H45.1912V19.2466H38.1742L45.2786 12.1204C45.5458 11.8735 45.7226 11.5444 45.7811 11.1853C45.8128 10.9259 45.8274 10.6646 45.8248 10.4032C45.828 10.1521 45.7787 9.90313 45.6801 9.67216C45.5816 9.44118 45.4359 9.23333 45.2524 9.06188Z" fill="white"/>
<path d="M56.3809 10.2195C56.1711 9.70078 55.8073 9.25888 55.3386 8.95339C54.8698 8.64791 54.3186 8.49354 53.7594 8.51112C53.2086 8.51006 52.6739 8.69651 52.2432 9.03979C51.8264 9.35484 51.4995 9.77365 51.2951 10.2544L51.2514 10.3506L45.8597 22.3791L45.8335 22.4447V22.4884H49.3988L50.2377 20.662H57.5126L58.3864 22.519H62.0129L56.3809 10.2195ZM51.6883 17.3938L53.8336 12.5876L56.0183 17.3938H51.6883Z" fill="white"/>
<path d="M75.1512 8.51172H71.5553L67.1249 18.4474L62.5896 8.51172H58.9631L64.5776 20.8112C64.7966 21.3079 65.1452 21.7365 65.5869 22.052C66.038 22.3651 66.5759 22.5286 67.1249 22.5196C67.6851 22.5319 68.2341 22.3617 68.6891 22.0346C69.1211 21.7126 69.4615 21.2833 69.6766 20.7893L75.1643 8.55541V22.5196H78.4631V8.51172H75.1643H75.1512Z" fill="white"/>
<path d="M89.028 22.17C89.5396 21.9494 90.0028 21.6302 90.3912 21.2307C90.7705 20.8363 91.0767 20.3776 91.2956 19.8762C91.5244 19.3466 91.6404 18.7752 91.6365 18.1984V18.0324C91.6403 17.4663 91.5273 16.9055 91.3044 16.3851C91.0992 15.8901 90.8028 15.438 90.4305 15.0525C90.0508 14.6644 89.5979 14.3555 89.0979 14.1437C88.5785 13.9228 88.0195 13.8098 87.4551 13.8117H84.5277C84.4052 13.818 84.2828 13.797 84.1694 13.7501C84.056 13.7033 83.9545 13.6318 83.8723 13.5408C83.6928 13.3427 83.5972 13.0826 83.6058 12.8155C83.6027 12.6812 83.6271 12.5476 83.6772 12.423C83.7274 12.2984 83.8023 12.1852 83.8975 12.0904C83.9927 11.9956 84.1062 11.9212 84.231 11.8716C84.3559 11.8219 84.4895 11.7982 84.6238 11.8018H91.6365V8.50301H84.6019C84.0237 8.49945 83.451 8.61548 82.9198 8.84381C81.8885 9.28103 81.0675 10.102 80.6303 11.1333C80.402 11.6645 80.2859 12.2372 80.2895 12.8155V12.8897C80.2852 13.4544 80.3983 14.0139 80.6216 14.5326C80.8338 15.0338 81.1409 15.4893 81.526 15.8739C81.9102 16.2575 82.3639 16.5645 82.863 16.7784C83.3824 16.9993 83.9414 17.1123 84.5058 17.1104H87.4332C87.6737 17.1137 87.9037 17.2095 88.0754 17.3779C88.2471 17.5464 88.3473 17.7745 88.3551 18.0149V18.2377C88.3529 18.3674 88.3247 18.4953 88.2721 18.6139C88.2196 18.7324 88.1438 18.8393 88.0493 18.9281C87.9601 19.0205 87.8526 19.0934 87.7338 19.1423C87.615 19.1912 87.4874 19.2149 87.3589 19.2121H80.2939V22.5109H87.3458C87.924 22.5139 88.4966 22.3979 89.028 22.17Z" fill="white"/>
<path d="M104.421 11.5964C104.161 10.9967 103.79 10.4513 103.329 9.98854C102.868 9.52731 102.324 9.15808 101.725 8.9006C101.096 8.62801 100.418 8.48961 99.7327 8.49425H97.8889C97.2037 8.48961 96.5251 8.62801 95.8965 8.9006C95.297 9.15908 94.7515 9.52816 94.2886 9.98854C93.8294 10.4523 93.4631 10.9995 93.2094 11.6008C92.9417 12.2291 92.8064 12.9059 92.8118 13.5888V17.4425C92.808 18.1219 92.9465 18.7946 93.2181 19.4174C93.4797 20.0163 93.8501 20.5614 94.3105 21.0253C94.7717 21.4856 95.3158 21.8547 95.914 22.1132C96.5369 22.3845 97.2095 22.5229 97.8889 22.5196H99.7327C100.41 22.5237 101.081 22.3884 101.703 22.122C102.921 21.6098 103.895 20.6472 104.421 19.4349C104.694 18.8064 104.832 18.1277 104.827 17.4425V13.5888C104.832 12.9036 104.694 12.2249 104.421 11.5964ZM101.528 17.4425C101.532 17.68 101.484 17.9155 101.389 18.1328C101.295 18.348 101.161 18.5436 100.995 18.7096C100.832 18.872 100.637 18.9998 100.423 19.0853C100.204 19.1759 99.9695 19.2219 99.7327 19.2208H97.8889C97.649 19.2241 97.4111 19.178 97.1898 19.0853C96.977 19.0003 96.7848 18.8706 96.6262 18.7052C96.4593 18.5416 96.3258 18.3472 96.2329 18.1328C96.1372 17.9155 96.0895 17.68 96.0931 17.4425V13.5888C96.0895 13.3513 96.1372 13.1159 96.2329 12.8985C96.3252 12.6825 96.4588 12.4865 96.6262 12.3217C96.792 12.1577 96.9859 12.0245 97.1985 11.9285C97.4168 11.8355 97.6517 11.7879 97.8889 11.7887H99.7327C99.9686 11.7868 100.202 11.8344 100.419 11.9285C100.633 12.0244 100.828 12.1576 100.995 12.3217C101.161 12.4877 101.295 12.6833 101.389 12.8985C101.484 13.1159 101.532 13.3513 101.528 13.5888V17.4425Z" fill="white"/>
<path d="M117.371 13.575H110.381V11.8273H118.036V8.546H109.297C109.01 8.54319 108.725 8.59692 108.459 8.70412C108.193 8.81133 107.951 8.96991 107.746 9.1708C107.534 9.37169 107.366 9.61454 107.253 9.88386C107.141 10.1532 107.085 10.443 107.091 10.735V22.532H110.381V16.8738H117.371V13.575Z" fill="white"/>
<path d="M119.298 8.50684V11.8056H123.174V22.519H126.473V11.8056H130.348V8.50684H119.298Z" fill="white"/>
<path d="M132.795 9.02736C132.461 9.02822 132.135 8.93005 131.857 8.74525C131.579 8.56046 131.362 8.29736 131.234 7.98927C131.105 7.68117 131.071 7.34193 131.136 7.01448C131.2 6.68704 131.361 6.38612 131.596 6.14982C131.832 5.91352 132.133 5.75246 132.46 5.68703C132.787 5.6216 133.126 5.65474 133.435 5.78226C133.743 5.90978 134.007 6.12594 134.192 6.40338C134.378 6.68083 134.477 7.00707 134.477 7.34082C134.478 7.5621 134.434 7.78131 134.35 7.98591C134.266 8.1905 134.142 8.37646 133.986 8.53312C133.83 8.68979 133.644 8.81408 133.44 8.89889C133.235 8.9837 133.016 9.02736 132.795 9.02736ZM132.795 5.79411C132.488 5.79325 132.187 5.88359 131.931 6.0537C131.676 6.2238 131.476 6.466 131.358 6.7496C131.24 7.0332 131.209 7.34543 131.269 7.64672C131.329 7.94801 131.477 8.22479 131.694 8.44197C131.911 8.65916 132.188 8.80698 132.489 8.86669C132.79 8.92639 133.102 8.89531 133.386 8.77737C133.67 8.65943 133.912 8.45995 134.082 8.2042C134.252 7.94846 134.342 7.64797 134.342 7.34082C134.34 6.93096 134.177 6.53822 133.887 6.2484C133.597 5.95859 133.205 5.79526 132.795 5.79411Z" fill="white"/>
<path d="M132.083 6.87676H131.755V6.75879H132.55V6.87676H132.227V7.82926H132.087L132.083 6.87676Z" fill="white"/>
<path d="M133.573 7.34062C133.573 7.1877 133.573 7.00856 133.573 6.87748C133.538 6.99982 133.494 7.13526 133.437 7.28382L133.249 7.80376H133.144L132.97 7.29256C132.922 7.13963 132.878 7.00419 132.847 6.87748C132.847 7.00856 132.847 7.1877 132.825 7.34936L132.799 7.78629H132.664L132.738 6.71582H132.913L133.096 7.23576C133.14 7.36684 133.179 7.48481 133.206 7.59404C133.232 7.48918 133.271 7.37121 133.319 7.23576L133.511 6.71582H133.686L133.752 7.78629H133.616L133.573 7.34062Z" fill="white"/>
<path d="M45.8076 22.4668L45.8032 22.4757L45.7987 22.5155H45.7855L45.8076 22.4668Z" fill="white"/>
</g>
<defs>
<clipPath id="clip0_20905_7534">
<rect width="134.477" height="28.173" fill="white"/>
</clipPath>
</defs>
</svg>
