<svg width="40" height="40" viewBox="0 0 40 40" fill="none" xmlns="http://www.w3.org/2000/svg">
<path d="M13.3165 40.0083H3.82921C1.72274 40.0083 0 38.2856 0 36.1793V16.079C0 13.9645 1.72274 12.25 3.82921 12.25H13.3083C15.423 12.25 17.1376 13.9727 17.1376 16.079V36.1711C17.1457 38.2856 15.423 40.0083 13.3165 40.0083ZM3.82921 13.8829C2.62085 13.8829 1.63293 14.8707 1.63293 16.079V36.1711C1.63293 37.3876 2.62085 38.3673 3.82921 38.3673H13.3083C14.5249 38.3673 15.5046 37.3794 15.5046 36.1711V16.079C15.5046 14.8626 14.5167 13.8829 13.3083 13.8829H3.82921Z" fill="black"/>
<path d="M16.3293 18.7778H0.816463C0.367408 18.7778 0 18.4104 0 17.9614C0 17.5124 0.367408 17.145 0.816463 17.145H16.3293C16.7783 17.145 17.1457 17.5124 17.1457 17.9614C17.1457 18.4104 16.7783 18.7778 16.3293 18.7778Z" fill="black"/>
<path d="M16.3293 35.1004H0.816463C0.367408 35.1004 0 34.733 0 34.284C0 33.8349 0.367408 33.4675 0.816463 33.4675H16.3293C16.7783 33.4675 17.1457 33.8349 17.1457 34.284C17.1457 34.733 16.7783 35.1004 16.3293 35.1004Z" fill="black"/>
<path d="M36.1735 27.7583H26.6862C24.5716 27.7583 22.857 26.0356 22.857 23.9293V3.82901C22.857 1.71448 24.5797 0 26.6862 0H36.1653C38.28 0 39.9946 1.72265 39.9946 3.82901V23.9211C40.0027 26.0356 38.28 27.7583 36.1735 27.7583ZM26.6862 1.63284C25.4778 1.63284 24.4899 2.62071 24.4899 3.82901V23.9211C24.4899 25.1376 25.4778 26.1173 26.6862 26.1173H36.1653C37.3819 26.1173 38.3616 25.1294 38.3616 23.9211V3.82901C38.3616 2.61254 37.3737 1.63284 36.1653 1.63284H26.6862Z" fill="black"/>
<path d="M39.1863 6.53622H23.6735C23.2244 6.53622 22.857 6.16883 22.857 5.7198C22.857 5.27077 23.2244 4.90338 23.6735 4.90338H39.1863C39.6353 4.90338 40.0027 5.27077 40.0027 5.7198C40.0027 6.16883 39.6353 6.53622 39.1863 6.53622Z" fill="black"/>
<path d="M39.1863 22.8504H23.6735C23.2244 22.8504 22.857 22.483 22.857 22.0339C22.857 21.5849 23.2244 21.2175 23.6735 21.2175H39.1863C39.6353 21.2175 40.0027 21.5849 40.0027 22.0339C40.0027 22.483 39.6353 22.8504 39.1863 22.8504Z" fill="black"/>
<path d="M16.8863 27.7665H10.6158C10.1668 27.7665 9.79938 27.3991 9.79938 26.9501C9.79938 26.501 10.1668 26.1336 10.6158 26.1336H16.8863C17.9313 26.1336 18.7805 25.2846 18.7805 24.2395V17.4224C18.7805 15.4794 20.3644 13.8955 22.3076 13.8955H32.6603C33.1094 13.8955 33.4768 14.2629 33.4768 14.7119C33.4768 15.161 33.1094 15.5283 32.6603 15.5283H22.3076C21.2625 15.5283 20.4134 16.3774 20.4134 17.4224V24.2395C20.4134 26.1826 18.8295 27.7665 16.8863 27.7665Z" fill="black"/>
<path d="M30.4354 16.9059C30.117 16.5875 30.117 16.0732 30.4354 15.7548L31.4886 14.7016L30.4354 13.6484C30.117 13.33 30.117 12.8157 30.4354 12.4972C30.7538 12.1788 31.2682 12.1788 31.5866 12.4972L33.2195 14.1301C33.538 14.4485 33.538 14.9628 33.2195 15.2812L31.5866 16.9141C31.2764 17.2243 30.7538 17.2243 30.4354 16.9059Z" fill="black"/>
<path d="M8.16136 30.2006C6.35698 30.2006 4.89551 28.7392 4.89551 26.9349C4.89551 25.1306 6.35698 23.6692 8.16136 23.6692C9.96574 23.6692 11.4272 25.1306 11.4272 26.9349C11.4272 28.7392 9.96574 30.2006 8.16136 30.2006ZM8.16136 25.302C7.26325 25.302 6.52843 26.0368 6.52843 26.9349C6.52843 27.8329 7.26325 28.5677 8.16136 28.5677C9.05947 28.5677 9.79429 27.8329 9.79429 26.9349C9.79429 26.0368 9.05947 25.302 8.16136 25.302Z" fill="black"/>
</svg>
