<svg width="51" height="49" viewBox="0 0 51 49" fill="none" xmlns="http://www.w3.org/2000/svg">
<g clip-path="url(#clip0_20924_8189)">
<path d="M39.5066 27.4288C38.6783 27.4317 37.8532 27.5291 37.0481 27.7192V9.02879C37.0481 7.7033 35.9474 6.62879 34.5896 6.62879H26.9353C27.6513 4.6404 26.9548 2.42869 25.2182 1.17633C23.4816 -0.0760298 21.1113 -0.0760298 19.3748 1.17633C17.6382 2.42869 16.9417 4.6404 17.6576 6.62879H10.0042C8.64639 6.62879 7.54567 7.7033 7.54567 9.02879V16.5008C5.50878 15.8019 3.24313 16.4818 1.96023 18.177C0.67732 19.8723 0.67732 22.1861 1.96023 23.8813C3.24313 25.5766 5.50878 26.2565 7.54567 25.5576V33.0288C7.54567 34.3543 8.64639 35.4288 10.0042 35.4288H17.6584C16.9425 37.4172 17.639 39.6289 19.3756 40.8812C21.1122 42.1336 23.4824 42.1336 25.219 40.8812C26.9556 39.6289 27.6521 37.4172 26.9361 35.4288H29.1488C28.1046 39.7351 29.9678 44.2147 33.7919 46.5914C37.6159 48.968 42.5621 48.7205 46.1172 45.9747C49.6723 43.2289 51.0567 38.5868 49.5669 34.4073C48.0771 30.2277 44.0399 27.4272 39.5066 27.4288ZM26.419 33.8288C25.9781 33.8269 25.5674 34.047 25.3324 34.4112C25.0877 34.7904 25.0616 35.2663 25.2635 35.6688C25.4705 36.0936 25.5769 36.5584 25.5749 37.0288C25.5748 37.9481 25.1696 38.8229 24.4627 39.4303C23.7558 40.0376 22.8155 40.3189 21.8814 40.2024C20.3797 40.0025 19.2089 38.8326 19.0393 37.3624C18.9735 36.7793 19.0751 36.1899 19.3327 35.66C19.5312 35.2596 19.5042 34.7876 19.2614 34.4112C19.0264 34.047 18.6156 33.8269 18.1747 33.8288H10.0042C9.5516 33.8288 9.18469 33.4706 9.18469 33.0288V25.0528C9.18779 24.6212 8.96213 24.2188 8.58809 23.9888C8.19895 23.7512 7.71165 23.727 7.29982 23.9248C6.86466 24.1268 6.38851 24.2307 5.90664 24.2288C4.96593 24.2278 4.07079 23.8331 3.44811 23.1448C2.82114 22.4567 2.53266 21.5359 2.6581 20.6232C2.86284 19.1573 4.06132 18.0143 5.56737 17.8488C6.16463 17.7845 6.76845 17.8836 7.31129 18.1352C7.72024 18.329 8.20254 18.3039 8.58809 18.0688C8.96213 17.8388 9.18779 17.4363 9.18469 17.0048V9.02879C9.18469 8.58696 9.5516 8.22879 10.0042 8.22879H18.1747C18.6168 8.23181 19.0291 8.01153 19.2647 7.64639C19.5083 7.26661 19.5331 6.79075 19.3303 6.38879C19.1233 5.96399 19.0168 5.49918 19.0188 5.02879C19.0198 4.11047 19.4241 3.23665 20.1293 2.62879C20.8334 2.0155 21.7773 1.73371 22.7124 1.85759C24.2141 2.05765 25.385 3.2274 25.5553 4.69759C25.6204 5.2807 25.5186 5.87002 25.2611 6.39999C25.0625 6.79921 25.0882 7.27002 25.3291 7.64639C25.5647 8.01153 25.977 8.23181 26.419 8.22879H34.5896C35.0422 8.22879 35.4091 8.58696 35.4091 9.02879V28.2288C32.8187 29.289 30.7585 31.3001 29.6725 33.8288H26.419ZM39.5066 46.6288C34.528 46.6288 30.492 42.6889 30.492 37.8288C30.492 32.9687 34.528 29.0288 39.5066 29.0288C44.4853 29.0288 48.5213 32.9687 48.5213 37.8288C48.5154 42.6865 44.4829 46.6231 39.5066 46.6288Z" fill="black"/>
<path d="M43.0642 34.0271L37.0818 39.1335L35.9853 38.0631C35.6637 37.7599 35.1526 37.7642 34.8365 38.0728C34.5204 38.3814 34.5159 38.8804 34.8265 39.1943L36.4655 40.7943C36.7707 41.0922 37.2603 41.1079 37.585 40.8303L44.1411 35.2303C44.3804 35.0474 44.4964 34.7503 44.4424 34.4584C44.3885 34.1664 44.1735 33.9276 43.8839 33.8378C43.5942 33.7481 43.2775 33.8221 43.0609 34.0303L43.0642 34.0271Z" fill="black"/>
</g>
<defs>
<clipPath id="clip0_20924_8189">
<rect width="49.1707" height="48" fill="white" transform="translate(0.989502 0.228516)"/>
</clipPath>
</defs>
</svg>
