<svg width="51" height="51" viewBox="0 0 51 51" fill="none" xmlns="http://www.w3.org/2000/svg">
<g clip-path="url(#clip0_20924_8241)">
<path d="M25.9253 25.272H48.7156" stroke="black" stroke-width="2" stroke-miterlimit="10" stroke-linecap="round" stroke-linejoin="round"/>
<path d="M46.3579 22.1284L49.5014 25.2719L46.3579 28.4153" stroke="black" stroke-width="2" stroke-miterlimit="10" stroke-linecap="round" stroke-linejoin="round"/>
<path d="M23.9604 31.166C27.2156 31.166 29.8545 28.5271 29.8545 25.272C29.8545 22.0168 27.2156 19.3779 23.9604 19.3779C20.7053 19.3779 18.0664 22.0168 18.0664 25.272C18.0664 28.5271 20.7053 31.166 23.9604 31.166Z" stroke="black" stroke-width="2" stroke-miterlimit="10" stroke-linecap="round" stroke-linejoin="round"/>
<path d="M22.7819 37.8458C29.7263 37.8458 35.3558 32.2163 35.3558 25.2719C35.3558 18.3275 29.7263 12.698 22.7819 12.698C15.8375 12.698 10.208 18.3275 10.208 25.2719C10.208 32.2163 15.8375 37.8458 22.7819 37.8458Z" stroke="black" stroke-width="2" stroke-miterlimit="10" stroke-linecap="round" stroke-linejoin="round"/>
<path d="M21.603 44.5258C32.2366 44.5258 40.8569 35.9056 40.8569 25.2719C40.8569 14.6383 32.2366 6.01807 21.603 6.01807C10.9694 6.01807 2.34912 14.6383 2.34912 25.2719C2.34912 35.9056 10.9694 44.5258 21.603 44.5258Z" stroke="black" stroke-width="2" stroke-miterlimit="10" stroke-linecap="round" stroke-linejoin="round"/>
</g>
<defs>
<clipPath id="clip0_20924_8241">
<rect width="50.087" height="50.087" fill="white" transform="translate(0.881836 0.228516)"/>
</clipPath>
</defs>
</svg>
