<svg width="40" height="40" viewBox="0 0 40 40" fill="none" xmlns="http://www.w3.org/2000/svg">
<path fill-rule="evenodd" clip-rule="evenodd" d="M14.6275 5.03501C14.6425 3.16001 16.0463 1.57501 17.9213 1.34501C17.9325 1.34376 17.945 1.3425 17.9575 1.34125C19.325 1.215 20.7025 1.21501 22.0675 1.36626C22.0712 1.36751 22.0762 1.3675 22.0812 1.36875C23.9212 1.59375 25.3063 3.13251 25.3538 4.95751C25.3713 5.05876 25.3775 5.16001 25.375 5.26376C25.3625 5.77001 25.6575 6.23251 26.12 6.43626C27.0287 6.82626 27.8888 7.32126 28.6913 7.89876C28.695 7.90126 28.6988 7.90376 28.7025 7.90626C29.1038 8.20126 29.645 8.22375 30.0712 7.965C30.1362 7.925 30.205 7.89126 30.2762 7.86376C31.9087 6.94001 33.9838 7.36251 35.1188 8.87126C35.1263 8.88126 35.1337 8.89126 35.1412 8.90126C35.935 10.0213 36.6225 11.215 37.1737 12.4725C37.1762 12.4763 37.1775 12.4813 37.18 12.485C37.905 14.1913 37.2638 16.16 35.7088 17.115C35.6287 17.18 35.5438 17.2363 35.4525 17.285C35.0087 17.5288 34.755 18.015 34.81 18.5175C34.9262 19.5 34.9275 20.4913 34.83 21.475C34.8287 21.48 34.8287 21.4838 34.8287 21.4888C34.7737 21.9838 35.0238 22.4638 35.4613 22.7038C35.5288 22.74 35.5925 22.7825 35.6512 22.8313C37.2687 23.7825 37.9388 25.79 37.2013 27.5288C37.1963 27.54 37.1912 27.5513 37.1862 27.5613C36.6125 28.81 35.9225 30.0025 35.11 31.1088C35.1062 31.1125 35.1037 31.1163 35.1012 31.12C33.9862 32.6 31.9613 33.03 30.3563 32.16C30.26 32.1238 30.1688 32.0775 30.0813 32.025C29.6488 31.7613 29.1 31.785 28.6925 32.0838C27.9 32.6763 27.0413 33.1725 26.14 33.58C26.1363 33.5813 26.1325 33.5825 26.1287 33.585C25.6725 33.7863 25.3813 34.2425 25.3938 34.7413C25.395 34.8175 25.39 34.8938 25.3775 34.97C25.3625 36.845 23.9587 38.43 22.0837 38.66C22.0725 38.6613 22.06 38.6625 22.0475 38.6638C20.68 38.79 19.3025 38.79 17.9375 38.6388C17.9338 38.6375 17.9288 38.6375 17.9238 38.6363C16.0838 38.4113 14.6987 36.8725 14.6512 35.0475C14.6337 34.9463 14.6275 34.845 14.63 34.7413C14.6425 34.235 14.3475 33.7725 13.885 33.5688C12.9763 33.1788 12.1162 32.6838 11.3137 32.1063C11.31 32.1038 11.3062 32.1013 11.3025 32.0988C10.9012 31.8038 10.36 31.7813 9.93376 32.04C9.86876 32.08 9.8 32.1138 9.72875 32.1413C8.09625 33.065 6.02124 32.6425 4.88624 31.1338C4.87874 31.1238 4.87126 31.1138 4.86376 31.1038C4.07001 29.9838 3.3825 28.79 2.83125 27.5325C2.82875 27.5288 2.82749 27.5238 2.82499 27.52C2.09999 25.8138 2.74124 23.845 4.29624 22.89C4.37624 22.825 4.46125 22.7688 4.5525 22.72C4.99625 22.4763 5.25001 21.99 5.19501 21.4875C5.07876 20.505 5.0775 19.5138 5.175 18.53C5.17625 18.525 5.17626 18.5213 5.17626 18.5163C5.23126 18.0213 4.98124 17.5413 4.54374 17.3013C4.47624 17.265 4.4125 17.2225 4.35375 17.1738C2.73625 16.2225 2.06624 14.215 2.80374 12.4763C2.80874 12.465 2.81375 12.4538 2.81875 12.4438C3.3925 11.195 4.0825 10.0025 4.895 8.89626C4.89875 8.89251 4.90125 8.88875 4.90375 8.885C6.01875 7.405 8.04374 6.975 9.64874 7.845C9.74499 7.88125 9.83624 7.92751 9.92374 7.98001C10.3562 8.24376 10.905 8.22001 11.3125 7.92126C12.105 7.32875 12.9637 6.83251 13.865 6.42501C13.8687 6.42376 13.8725 6.4225 13.8762 6.42C14.3325 6.21875 14.6237 5.76251 14.6112 5.26376C14.61 5.18751 14.615 5.11126 14.6275 5.03501ZM5.87126 24.845C5.80876 24.8975 5.73999 24.9438 5.66749 24.9838C5.11499 25.2863 4.88001 25.9575 5.12501 26.5375C5.60501 27.63 6.20249 28.6663 6.90124 29.6538C7.29249 30.1475 7.99125 30.2738 8.5325 29.945C8.61375 29.895 8.69875 29.8513 8.7825 29.8188C10.045 29.1275 11.6 29.2225 12.7712 30.0763C13.43 30.5488 14.1337 30.9563 14.8787 31.275C14.8825 31.2763 14.8863 31.2775 14.89 31.28C16.2388 31.8725 17.1112 33.1975 17.13 34.6625C17.145 34.7425 17.1512 34.825 17.1487 34.9075C17.1337 35.5375 17.5987 36.0763 18.2237 36.155C19.4087 36.285 20.6062 36.285 21.81 36.1738C22.4337 36.0825 22.8925 35.54 22.8775 34.9075C22.875 34.8113 22.88 34.7163 22.8938 34.6288C22.9263 33.1888 23.7863 31.8888 25.1113 31.3013C25.85 30.9675 26.5537 30.5613 27.2025 30.0763C27.2062 30.0738 27.2088 30.0713 27.2125 30.0688C28.4 29.1975 29.9837 29.1038 31.2625 29.82C31.3387 29.8475 31.4137 29.8838 31.4837 29.9263C32.0225 30.2538 32.7213 30.1213 33.1013 29.62C33.8075 28.6575 34.405 27.6213 34.9113 26.5225C35.1437 25.9375 34.9038 25.2688 34.3488 24.965C34.2638 24.9188 34.1838 24.8675 34.1138 24.8113C32.8837 24.0638 32.1888 22.6688 32.3413 21.2275C32.4225 20.4213 32.4225 19.6088 32.3262 18.8038C32.3262 18.8 32.325 18.795 32.325 18.7913C32.1637 17.3275 32.875 15.9088 34.1337 15.16C34.1962 15.1075 34.265 15.0613 34.3375 15.0213C34.89 14.7188 35.125 14.0475 34.88 13.4675C34.4 12.375 33.8025 11.3388 33.1038 10.3513C32.7125 9.8575 32.0137 9.73126 31.4725 10.06C31.3912 10.11 31.3062 10.1538 31.2225 10.1863C29.96 10.8775 28.405 10.7825 27.2338 9.92876C26.575 9.45626 25.8712 9.04875 25.1262 8.73C25.1225 8.72875 25.1187 8.72751 25.115 8.72501C23.7662 8.13251 22.8938 6.80751 22.875 5.3425C22.86 5.26251 22.8538 5.18001 22.8563 5.09751C22.8713 4.46751 22.4063 3.92875 21.7813 3.85C20.5963 3.72 19.3987 3.72001 18.195 3.83126C17.5712 3.92251 17.1125 4.46501 17.1275 5.09751C17.13 5.19376 17.125 5.28876 17.1112 5.37626C17.0787 6.81626 16.2187 8.11625 14.8937 8.70375C14.155 9.0375 13.4513 9.44376 12.8025 9.92876C12.7988 9.93126 12.7962 9.93375 12.7925 9.93625C11.605 10.8075 10.0213 10.9013 8.7425 10.185C8.66625 10.1575 8.59125 10.1213 8.52125 10.0788C7.9825 9.75126 7.28374 9.88376 6.90374 10.385C6.19749 11.3475 5.6 12.3838 5.09375 13.4825C4.86125 14.0675 5.10124 14.7363 5.65624 15.04C5.74124 15.0863 5.82125 15.1375 5.89125 15.1938C7.12125 15.9413 7.81624 17.3363 7.66374 18.7775C7.58249 19.5838 7.58251 20.3963 7.67876 21.2013C7.67876 21.205 7.68 21.21 7.68 21.2138C7.84125 22.6775 7.13001 24.0963 5.87126 24.845ZM26.9275 20L21.6425 15.0163C21.14 14.5425 21.1175 13.7513 21.59 13.2488C22.0638 12.7475 22.855 12.7238 23.3575 13.1975L28.6425 18.18C29.1438 18.6525 29.4275 19.3113 29.4275 20C29.4275 20.6875 29.1438 21.3463 28.6425 21.8188L23.3575 26.8013C22.855 27.275 22.0638 27.2513 21.59 26.75C21.1175 26.2475 21.14 25.4563 21.6425 24.9825L26.9275 20ZM13.0712 20L18.3575 24.9825C18.8588 25.4563 18.8825 26.2475 18.4088 26.75C17.9363 27.2513 17.1437 27.275 16.6425 26.8013L11.3562 21.8188C10.8562 21.3463 10.5712 20.6875 10.5712 20C10.5712 19.3113 10.8562 18.6525 11.3562 18.18L16.6425 13.1975C17.1437 12.7238 17.9363 12.7475 18.4088 13.2488C18.8825 13.7513 18.8588 14.5425 18.3575 15.0163L13.0712 20Z" fill="black"/>
</svg>
