<svg width="53" height="52" viewBox="0 0 53 52" fill="none" xmlns="http://www.w3.org/2000/svg">
<path d="M30.8609 22.2549C31.7224 21.5853 32.3531 20.6633 32.665 19.6178C32.9769 18.5722 32.9543 17.4554 32.6004 16.4233C32.2465 15.3912 31.579 14.4955 30.6911 13.8613C29.8033 13.2271 28.7395 12.8862 27.6484 12.8862C26.5573 12.8862 25.4935 13.2271 24.6056 13.8613C23.7178 14.4955 23.0502 15.3912 22.6963 16.4233C22.3424 17.4554 22.3198 18.5722 22.6317 19.6178C22.9436 20.6633 23.5744 21.5853 24.4359 22.2549C23.3128 22.621 22.3341 23.3326 21.6396 24.288C20.9451 25.2435 20.5702 26.394 20.5685 27.5752V32.688C20.5685 32.9014 20.6532 33.106 20.8041 33.2569C20.955 33.4078 21.1596 33.4926 21.373 33.4926H33.9237C34.1371 33.4926 34.3417 33.4078 34.4926 33.2569C34.6435 33.106 34.7283 32.9014 34.7283 32.688V27.5752C34.7267 26.394 34.3519 25.2434 33.6573 24.2879C32.9627 23.3324 31.984 22.6209 30.8609 22.2549ZM27.6492 14.5032C28.3665 14.5032 29.0678 14.7159 29.6642 15.1145C30.2607 15.513 30.7255 16.0795 31 16.7423C31.2745 17.405 31.3463 18.1343 31.2063 18.8379C31.0663 19.5414 30.7208 20.1877 30.2134 20.6949C29.7061 21.202 29.0598 21.5474 28.3562 21.6873C27.6527 21.8271 26.9234 21.7552 26.2607 21.4805C25.598 21.2059 25.0316 20.7409 24.6332 20.1444C24.2348 19.5479 24.0222 18.8466 24.0223 18.1292C24.0234 17.1677 24.4059 16.2459 25.0858 15.5661C25.7658 14.8863 26.6877 14.504 27.6492 14.5032ZM33.12 31.8811H22.1784V27.5752C22.1796 26.5174 22.6007 25.5032 23.349 24.7555C24.0973 24.0078 25.1118 23.5876 26.1696 23.5872H29.1303C30.1878 23.5882 31.2016 24.0087 31.9494 24.7564C32.6972 25.504 33.1179 26.5178 33.1192 27.5752L33.12 31.8811Z" fill="black"/>
<path d="M49.662 13.4198H43.8251C42.1059 10.5683 39.6637 8.22166 36.7459 6.61757C33.8281 5.01349 30.5382 4.20889 27.2094 4.28524C23.8806 4.3616 20.631 5.3162 17.7898 7.05238C14.9486 8.78856 12.6166 11.2447 11.0299 14.172L9.91807 12.2436C9.84174 12.1285 9.73814 12.0342 9.6165 11.969C9.49487 11.9037 9.35898 11.8696 9.22095 11.8696C9.08291 11.8696 8.94702 11.9037 8.82539 11.969C8.70375 12.0342 8.60015 12.1285 8.52382 12.2436L2.30237 23.009C2.23176 23.1313 2.19458 23.27 2.19458 23.4113C2.19458 23.5525 2.23175 23.6912 2.30236 23.8135C2.37297 23.9358 2.47453 24.0374 2.59683 24.108C2.71913 24.1786 2.85787 24.2158 2.99909 24.2158H8.77886C8.9758 27.9236 10.2618 31.491 12.4758 34.4716C14.6899 37.4523 17.7337 39.7139 21.2266 40.9734V42.6267C21.2277 43.9779 21.7647 45.2734 22.72 46.2289C23.6752 47.1845 24.9706 47.722 26.3217 47.7235H28.9767C30.3275 47.722 31.6226 47.1847 32.5778 46.2295C33.533 45.2743 34.0703 43.9792 34.0718 42.6283V40.9654C37.6045 39.7038 40.6789 37.4137 42.899 34.3899C45.1191 31.3661 46.3834 27.747 46.5291 23.9986H49.662C49.8754 23.9986 50.08 23.9138 50.2309 23.7629C50.3818 23.6121 50.4665 23.4074 50.4665 23.194V14.2243C50.4665 14.0109 50.3818 13.8063 50.2309 13.6554C50.08 13.5045 49.8754 13.4198 49.662 13.4198ZM9.21733 14.2549L14.0445 22.6108H4.39254L9.21733 14.2549ZM28.9758 46.1144H26.3209C25.3967 46.1133 24.5106 45.7457 23.8571 45.0922C23.2035 44.4386 22.8359 43.5526 22.8349 42.6283V40.7618C22.8495 40.7376 22.8624 40.7123 22.8735 40.6862C22.9327 40.4974 22.9189 40.2933 22.8349 40.1142V39.9742C22.8359 39.05 23.2035 38.1639 23.8571 37.5104C24.5106 36.8568 25.3967 36.4892 26.3209 36.4882H28.9758C29.9001 36.4892 30.7861 36.8568 31.4397 37.5104C32.0932 38.1639 32.4608 39.05 32.4619 39.9742V40.1045C32.3787 40.2836 32.3649 40.4871 32.4233 40.6757C32.4349 40.7016 32.4477 40.7268 32.4619 40.7514V42.6283C32.4608 43.5526 32.0932 44.4386 31.4397 45.0922C30.7861 45.7457 29.9001 46.1133 28.9758 46.1144ZM34.017 39.2759C33.8476 38.0587 33.2441 36.9437 32.3179 36.1361C31.3916 35.3286 30.2047 34.8827 28.9758 34.8807H26.3209C25.0906 34.8826 23.9025 35.3294 22.9758 36.1387C22.0492 36.948 21.4465 38.0651 21.2789 39.2839C18.216 38.0719 15.5634 36.0095 13.6339 33.3398C11.7044 30.6701 10.5785 27.5043 10.3887 24.2158H15.4348C15.576 24.2158 15.7147 24.1786 15.837 24.108C15.9593 24.0374 16.0609 23.9358 16.1315 23.8135C16.2021 23.6912 16.2393 23.5525 16.2393 23.4113C16.2393 23.27 16.2021 23.1313 16.1315 23.009L11.9922 15.839C13.286 13.0793 15.2864 10.7107 17.7907 8.97331C20.2949 7.23591 23.214 6.19147 26.252 5.94586C29.29 5.70024 32.339 6.26219 35.0898 7.57473C37.8407 8.88727 40.1956 10.9038 41.916 13.4198H40.6923C40.4789 13.4198 40.2743 13.5045 40.1234 13.6554C39.9725 13.8063 39.8877 14.0109 39.8877 14.2243V23.194C39.8877 23.4074 39.9725 23.6121 40.1234 23.7629C40.2743 23.9138 40.4789 23.9986 40.6923 23.9986H44.9201C44.7782 27.3276 43.6723 30.5437 41.7366 33.2559C39.801 35.9681 37.1191 38.0595 34.017 39.2759ZM48.8575 22.3895H41.4968V15.0288H48.8575V22.3895Z" fill="black"/>
</svg>
