<svg width="30" height="30" viewBox="0 0 30 30" fill="none" xmlns="http://www.w3.org/2000/svg">
<g clip-path="url(#clip0_20905_9751)">
<path d="M6.13171 3.51562C5.64632 3.51562 5.25281 3.90914 5.25281 4.39453C5.25281 4.87992 5.64632 5.27344 6.13171 5.27344H8.3789L9.55078 4.39453L8.3789 3.51562H6.13171Z" fill="#404A80"/>
<path d="M11.6222 4.39453C11.6222 3.90914 11.2287 3.51562 10.7433 3.51562H8.37891V5.27344H10.7433C11.2287 5.27344 11.6222 4.87992 11.6222 4.39453Z" fill="#283366"/>
<path d="M6.01453 0C5.52914 0 5.13562 0.393516 5.13562 0.878906V9.33117C5.13562 9.81656 5.52914 10.2101 6.01453 10.2101C6.49992 10.2101 6.89343 9.81656 6.89343 9.33117V1.75781H8.3789L8.96484 0.777305L8.3789 0L6.01453 0Z" fill="#283366"/>
<path d="M9.86438 9.33117C9.86438 9.81656 10.2579 10.2101 10.7433 10.2101C11.2287 10.2101 11.6222 9.81656 11.6222 9.33117V0.878906C11.6222 0.393516 11.2287 0 10.7433 0H8.37891V1.75781H9.86432V9.33117H9.86438Z" fill="#101040"/>
<path d="M5.30835 30C4.82296 30 4.42944 29.6065 4.42944 29.1211V27.4805C4.42944 26.9951 4.82296 26.6016 5.30835 26.6016C5.79374 26.6016 6.18726 26.9951 6.18726 27.4805V29.1211C6.18726 29.6065 5.79374 30 5.30835 30Z" fill="#283366"/>
<path d="M11.4495 30C10.9641 30 10.5706 29.6065 10.5706 29.1211V27.4805C10.5706 26.9951 10.9641 26.6016 11.4495 26.6016C11.9349 26.6016 12.3284 26.9951 12.3284 27.4805V29.1211C12.3284 29.6065 11.9349 30 11.4495 30Z" fill="#101040"/>
<path d="M1.03589 12.8428C0.550498 12.8428 0.156982 13.2363 0.156982 13.7217V25.6565C0.156982 27.0822 1.31679 28.242 2.74243 28.242H8.37892L10.3415 20.0363L8.37892 12.8428H1.03589Z" fill="#00C97D"/>
<path d="M16.3605 13.1016C16.1956 12.9359 15.9715 12.8428 15.7377 12.8428H8.37891V28.242H13.9752C15.3946 28.242 16.5544 27.0872 16.5606 25.6678L16.6167 13.7255C16.6176 13.4918 16.5255 13.2672 16.3605 13.1016Z" fill="#00A88D"/>
<path d="M2.74243 8.45215C1.3145 8.45215 0.156982 9.60967 0.156982 11.0376V13.7256H8.37892L10.1367 11.0889L8.37892 8.45215H2.74243Z" fill="#ABE751"/>
<path d="M15.8694 9.21152C15.3748 8.71588 14.6936 8.45215 13.9935 8.45215H8.37891V13.7256H16.6128L16.6245 11.0488C16.6275 10.3553 16.3593 9.70266 15.8694 9.21152Z" fill="#00C97D"/>
<path d="M7.51562 17.9201V23.1646C7.51562 23.6447 7.90082 24.0343 8.379 24.0427L8.96494 20.5424L8.379 17.042C7.90082 17.0504 7.51562 17.44 7.51562 17.9201Z" fill="#ABE751"/>
<path d="M8.39456 24.0438C8.87995 24.0438 9.27346 23.6503 9.27346 23.1649V17.9204C9.27346 17.435 8.87995 17.0415 8.39456 17.0415C8.38928 17.0415 8.38424 17.0422 8.37903 17.0423V24.043C8.38418 24.0431 8.38928 24.0438 8.39456 24.0438Z" fill="#00C97D"/>
<path d="M19.718 16.9858V18.7474C19.718 19.2328 20.1115 19.6263 20.5969 19.6263C21.0823 19.6263 21.4758 19.2328 21.4758 18.7474V16.9858C21.4758 16.499 21.8719 16.103 22.3586 16.103L22.9445 15.2273L22.3586 14.3452C20.9025 14.3452 19.718 15.5297 19.718 16.9858Z" fill="#283366"/>
<path d="M22.3585 14.3452V16.103C22.8453 16.103 23.2413 16.4991 23.2413 16.9858V18.7474C23.2413 19.2328 23.6348 19.6263 24.1202 19.6263C24.6056 19.6263 24.9991 19.2328 24.9991 18.7474V16.9858C24.9991 15.5298 23.8146 14.3452 22.3585 14.3452Z" fill="#101040"/>
<path d="M11.9102 17.8071C11.4248 17.8071 11.0312 18.2006 11.0312 18.686V22.3994C11.0312 22.8847 11.4248 23.2783 11.9102 23.2783C12.3955 23.2783 12.7891 22.8847 12.7891 22.3994V18.686C12.7891 18.2006 12.3955 17.8071 11.9102 17.8071Z" fill="#00C97D"/>
<path d="M20.1477 17.8687L19.3274 21.2742L18.3899 17.8687H17.4632C16.0357 17.8687 14.8743 19.03 14.8743 20.4576V27.3861C14.8743 28.8136 16.0357 29.9751 17.4632 29.9751H18.3899L19.3274 26.5695L20.1477 29.9751H22.3587L23.3687 23.634L22.3587 17.8687H20.1477Z" fill="#C27A48"/>
<path d="M27.2541 17.8687H26.3274L25.5071 20.6306L24.5696 17.8687H22.3586V29.975H24.5696L25.5071 27.2131L26.3274 29.975H27.2541C28.6816 29.975 29.8431 28.8136 29.8431 27.386V20.4576C29.8431 19.03 28.6817 17.8687 27.2541 17.8687Z" fill="#AA6031"/>
<path d="M18.3899 17.8687H20.1477V29.975H18.3899V17.8687Z" fill="#FFE278"/>
<path d="M4.87891 17.8071C4.39352 17.8071 4 18.2006 4 18.686V22.3994C4 22.8847 4.39352 23.2783 4.87891 23.2783C5.3643 23.2783 5.75781 22.8847 5.75781 22.3994V18.686C5.75781 18.2006 5.3643 17.8071 4.87891 17.8071Z" fill="#ABE751"/>
<path d="M24.5696 17.8687H26.3274V29.975H24.5696V17.8687Z" fill="#FFC178"/>
</g>
<defs>
<clipPath id="clip0_20905_9751">
<rect width="30" height="30" fill="white"/>
</clipPath>
</defs>
</svg>
