<svg width="41" height="40" viewBox="0 0 41 40" fill="none" xmlns="http://www.w3.org/2000/svg">
<g clip-path="url(#clip0_20969_5794)">
<path d="M19.4605 29.3349H3.94745C2.05124 29.3349 0.5 27.7834 0.5 25.8875V4.34144C0.5 2.44555 2.05124 0.894302 3.94745 0.894302H34.9736C36.8695 0.894302 38.4207 2.44555 38.4207 4.34144V23.302H36.6971V4.34144C36.6971 3.39333 35.9214 2.61787 34.9736 2.61787H3.94745C2.99935 2.61787 2.22357 3.39333 2.22357 4.34144V25.8875C2.22357 26.8356 2.99935 27.611 3.94745 27.611H19.4605V29.3349Z" fill="#1E293B"/>
<path d="M23.7696 39.1704V15.1897L40.5 31.9204H31.0199L23.7696 39.1704ZM25.4932 19.3483V35.0122L30.3088 30.1965H36.3418L25.4932 19.3483Z" fill="#1E293B"/>
<path d="M1.36194 8.65083H37.5591V10.3744H1.36194V8.65083Z" fill="#1E293B"/>
<path d="M5.67102 22.44H13.4276V24.1639H5.67102V22.44Z" fill="#1E293B"/>
</g>
<defs>
<clipPath id="clip0_20969_5794">
<rect width="40" height="40" fill="white" transform="translate(0.5)"/>
</clipPath>
</defs>
</svg>
