<svg width="50" height="50" viewBox="0 0 50 50" fill="none" xmlns="http://www.w3.org/2000/svg">
<path d="M24.9997 1.85181C12.2357 1.85181 1.85156 12.2359 1.85156 25C1.85156 36.8146 10.562 46.7637 22.1121 48.1418C22.1487 48.1463 22.1853 48.1481 22.2219 48.1481C22.4299 48.1481 22.6329 48.0785 22.7975 47.9474C22.991 47.7946 23.1149 47.5694 23.142 47.3244L24.0679 38.991C24.0973 38.7297 24.0137 38.4675 23.8378 38.2713C23.6624 38.075 23.4114 37.9629 23.1479 37.9629H17.2125C16.4584 37.9629 15.8182 37.4222 15.6907 36.6807L15.0428 32.8043C14.8398 31.5592 13.9704 30.5383 12.7696 30.1387L12.1896 29.9488C11.7501 29.7969 11.4074 29.5238 11.2587 29.2173C11.0222 28.6982 11.0737 28.1494 11.3988 27.7108L13.5965 24.7658C14.3181 23.8227 14.7232 22.6951 14.7675 21.5178L14.7829 21.2266C14.7992 20.93 14.8145 20.6398 14.8145 20.3703C14.8145 13.5416 19.4844 8.95359 26.4347 8.95359C34.0004 8.95359 38.8886 13.4349 38.8886 20.3703C38.8886 22.5305 38.3429 24.8752 37.3903 26.8048C35.9268 29.7878 35.1849 33.1868 35.1849 36.9077V44.231C35.1849 44.5619 35.3612 44.8676 35.6479 45.0331C35.9345 45.1976 36.2871 45.1976 36.5738 45.0331C43.7131 40.9107 48.1479 33.2347 48.1479 25C48.1479 12.2359 37.7637 1.85181 24.9997 1.85181ZM37.0367 42.5537V36.9077C37.0367 33.4716 37.7149 30.3475 39.0523 27.6222C40.1251 25.4485 40.7405 22.8045 40.7405 20.3703C40.7405 12.4339 34.9914 7.10173 26.4347 7.10173C18.5024 7.10173 12.9627 12.5578 12.9627 20.3703C12.9627 20.6072 12.9482 20.8631 12.9337 21.1244L12.917 21.4382C12.8872 22.2412 12.6132 23.0034 12.119 23.6499L9.91363 26.605C9.18347 27.5887 9.05642 28.852 9.58313 30.0048C9.95929 30.7825 10.6709 31.3847 11.6 31.7039L12.1887 31.8974C12.7303 32.0773 13.1236 32.5394 13.2159 33.1063L13.8651 36.9909C14.1468 38.6266 15.5546 39.8148 17.2125 39.8148H22.1134L21.4072 46.1715C11.2505 44.4987 3.70341 35.5595 3.70341 25C3.70341 13.2568 13.257 3.70366 24.9997 3.70366C36.7424 3.70366 46.296 13.2568 46.296 25C46.296 32.0258 42.7863 38.6103 37.0367 42.5537ZM25.9256 25.6456V21.2963H21.5763L21.8096 21.4518C22.235 21.7357 22.3499 22.3099 22.0664 22.7358C21.8878 23.0034 21.5944 23.1481 21.2951 23.1481C21.1188 23.1481 20.9402 23.0975 20.7824 22.9926L18.0046 21.1407C17.7469 20.9689 17.5923 20.6796 17.5923 20.3703C17.5923 20.0611 17.7469 19.7717 18.0046 19.5999L20.7824 17.7481C21.2069 17.4651 21.782 17.579 22.0664 18.0049C22.3499 18.4308 22.235 19.0049 21.8096 19.2889L21.5763 19.4444H25.9256V15.0951L25.7701 15.3284C25.4862 15.7534 24.9106 15.8673 24.4861 15.5852C24.0607 15.3012 23.9458 14.7271 24.2293 14.3012L26.0812 11.5234C26.4248 11.008 27.2784 11.008 27.622 11.5234L29.4738 14.3012C29.7573 14.7271 29.6425 15.3012 29.217 15.5852C29.0592 15.6901 28.8806 15.7407 28.7043 15.7407C28.405 15.7407 28.1116 15.596 27.933 15.3284L27.7775 15.0951V19.4444H32.1268L31.8935 19.2889C31.4681 19.0049 31.3532 18.4308 31.6367 18.0049C31.9202 17.579 32.4939 17.4651 32.9207 17.7481L35.6985 19.5999C35.9562 19.7717 36.1108 20.0611 36.1108 20.3703C36.1108 20.6796 35.9562 20.9689 35.6985 21.1407L32.9207 22.9926C32.7629 23.0975 32.5843 23.1481 32.408 23.1481C32.1087 23.1481 31.8153 23.0034 31.6367 22.7358C31.3532 22.3099 31.4681 21.7357 31.8935 21.4518L32.1268 21.2963H27.7775V25.6456L27.933 25.4123C28.2165 24.9864 28.7902 24.8725 29.217 25.1555C29.6425 25.4394 29.7573 26.0136 29.4738 26.4395L27.622 29.2173C27.4502 29.475 27.1613 29.6296 26.8516 29.6296C26.5419 29.6296 26.253 29.475 26.0812 29.2173L24.2293 26.4395C23.9458 26.0136 24.0607 25.4394 24.4861 25.1555C24.9106 24.8725 25.4862 24.9864 25.7701 25.4123L25.9256 25.6456Z" fill="#343840"/>
</svg>
