<svg width="41" height="40" viewBox="0 0 41 40" fill="none" xmlns="http://www.w3.org/2000/svg">
<path d="M31.1667 4H9.83333C6.88781 4 4.5 6.38781 4.5 9.33333V30.6667C4.5 33.6122 6.88781 36 9.83333 36H31.1667C34.1122 36 36.5 33.6122 36.5 30.6667V9.33333C36.5 6.38781 34.1122 4 31.1667 4Z" stroke="black" stroke-width="2" stroke-linejoin="round"/>
<path d="M18.7303 28.0927C19.251 28.6133 19.251 29.4576 18.7303 29.9783C18.2097 30.4989 17.3654 30.4989 16.8447 29.9783L18.7303 28.0927ZM16.8447 17.7217C17.3654 17.2011 18.2097 17.2011 18.7303 17.7217C19.251 18.2424 19.251 19.0867 18.7303 19.6073L16.8447 17.7217ZM12.6021 23.85L11.6593 24.7928C11.1386 24.2721 11.1386 23.4279 11.6593 22.9072L12.6021 23.85ZM18.7303 19.6073L13.5449 24.7928L11.6593 22.9072L16.8447 17.7217L18.7303 19.6073ZM13.5449 22.9072L18.7303 28.0927L16.8447 29.9783L11.6593 24.7928L13.5449 22.9072Z" fill="black"/>
<path d="M22.1843 19.6073C21.6636 19.0867 21.6636 18.2424 22.1843 17.7217C22.7049 17.2011 23.5492 17.2011 24.0699 17.7217L22.1843 19.6073ZM24.0699 29.9783C23.5492 30.4989 22.7049 30.4989 22.1843 29.9783C21.6636 29.4576 21.6636 28.6133 22.1843 28.0927L24.0699 29.9783ZM28.3125 23.85L29.2553 22.9072C29.776 23.4279 29.776 24.2721 29.2553 24.7928L28.3125 23.85ZM22.1843 28.0927L27.3697 22.9072L29.2553 24.7928L24.0699 29.9783L22.1843 28.0927ZM27.3697 24.7928L22.1843 19.6073L24.0699 17.7217L29.2553 22.9072L27.3697 24.7928Z" fill="black"/>
<path d="M4.5 9.33333C4.5 6.38781 6.88781 4 9.83333 4H31.1667C34.1121 4 36.5 6.38781 36.5 9.33333V12H4.5V9.33333Z" stroke="black" stroke-width="2"/>
</svg>
