<svg width="24" height="24" viewBox="0 0 24 24" fill="none" xmlns="http://www.w3.org/2000/svg">
<path d="M12.0421 2.5C14.5763 2.50004 16.9475 3.48215 18.7335 5.25977C20.5187 7.03682 21.5001 9.40022 21.5001 11.916C21.5001 17.1027 17.2543 21.3271 12.0421 21.3271H12.0372C10.4537 21.3271 8.89821 20.9299 7.51672 20.1816C7.43319 20.1364 7.33876 20.1159 7.24524 20.1221L7.15149 20.1377L2.71204 21.2969L3.89661 16.9971C3.93212 16.868 3.91475 16.7301 3.84778 16.6143C3.01947 15.1841 2.58351 13.5616 2.58411 11.9111C2.58423 6.72444 6.83005 2.5 12.0421 2.5ZM8.39172 6.66504C8.10419 6.66504 7.68459 6.7699 7.33704 7.14453C7.32491 7.1576 7.31145 7.17304 7.29407 7.19141C6.99995 7.50224 6.30286 8.24166 6.30286 9.62695C6.30288 10.3609 6.56642 11.0548 6.82629 11.5684C7.08959 12.0887 7.37223 12.4665 7.45129 12.5723L7.45618 12.5801C7.45802 12.5827 7.46118 12.5863 7.46497 12.5918C7.47267 12.603 7.4823 12.6176 7.49524 12.6367C7.81541 13.1099 9.49139 15.6045 12.0763 16.6211C13.0758 17.0145 13.7425 17.2044 14.2296 17.2861C14.735 17.3709 15.0357 17.3366 15.2755 17.3076C15.322 17.302 15.3598 17.2965 15.3966 17.293L15.3976 17.2939C15.7503 17.261 16.2111 17.0578 16.589 16.8145C16.9603 16.5753 17.3957 16.2055 17.5626 15.7451L17.5636 15.7412C17.6842 15.4005 17.7465 15.0808 17.7687 14.8223C17.7797 14.6935 17.7819 14.5718 17.7736 14.4658C17.7689 14.4063 17.7583 14.3047 17.7198 14.2012L17.671 14.0986L17.5997 13.999C17.5236 13.9094 17.437 13.8495 17.3732 13.8105C17.2876 13.7583 17.1861 13.711 17.1046 13.6719C17.0603 13.6506 17.0159 13.6289 16.9689 13.6055C16.8378 13.5403 16.4552 13.3518 16.0753 13.1689C15.7098 12.993 15.3065 12.8026 15.1603 12.748C15.0524 12.7078 14.8416 12.6272 14.6115 12.6543C14.3302 12.6875 14.13 12.8564 13.9923 13.0635C13.8529 13.2695 13.4478 13.7446 13.2579 13.9658C13.2568 13.9653 13.2552 13.9654 13.254 13.9648C13.1973 13.9366 13.1256 13.9059 13.0607 13.8779C12.7157 13.7291 12.056 13.4446 11.2911 12.7637L11.2902 12.7627C10.6429 12.189 10.1804 11.4801 10.0001 11.1807C10.0905 11.0891 10.189 10.9726 10.2657 10.8799C10.3149 10.8204 10.3589 10.7665 10.4005 10.7188C10.5611 10.5343 10.6337 10.3817 10.7032 10.2373C10.7123 10.2185 10.7213 10.1997 10.7306 10.1807C10.9105 9.81171 10.8083 9.48842 10.7081 9.28906C10.7072 9.28708 10.7001 9.27228 10.6847 9.23633C10.6691 9.20011 10.6492 9.15168 10.6251 9.09375C10.577 8.97805 10.5149 8.82785 10.4464 8.66113C10.2724 8.23743 10.0532 7.70264 9.92102 7.4082V7.40723L9.82336 7.21777C9.71796 7.03904 9.58771 6.89586 9.422 6.7998C9.20481 6.67405 8.99188 6.67227 8.90149 6.66992H8.90247C8.7443 6.6647 8.56247 6.66504 8.39172 6.66504Z" fill="#34C759" stroke="#34C759" stroke-linejoin="round"/>
</svg>
