<svg width="26" height="18" viewBox="0 0 26 18" fill="none" xmlns="http://www.w3.org/2000/svg">
<path d="M24.9631 2.79234C24.6692 1.7006 23.8084 0.839801 22.7166 0.545871C20.7221 0 12.744 0 12.744 0C12.744 0 4.76587 0 2.77134 0.524876C1.7006 0.818806 0.818806 1.7006 0.524876 2.79234C0 4.78687 0 8.92288 0 8.92288C0 8.92288 0 13.0799 0.524876 15.0534C0.818806 16.1452 1.6796 17.006 2.77134 17.2999C4.78687 17.8458 12.744 17.8458 12.744 17.8458C12.744 17.8458 20.7221 17.8458 22.7166 17.3209C23.8084 17.027 24.6692 16.1662 24.9631 15.0744C25.488 13.0799 25.488 8.94388 25.488 8.94388C25.488 8.94388 25.509 4.78687 24.9631 2.79234Z" fill="black"/>
<path d="M10.2049 12.7477L16.8393 8.92656L10.2049 5.10547V12.7477Z" fill="white"/>
</svg>
