<svg width="100" height="100" viewBox="0 0 100 100" fill="none" xmlns="http://www.w3.org/2000/svg">
<path fill-rule="evenodd" clip-rule="evenodd" d="M50 50C50 42.2335 56.296 35.9375 64.0625 35.9375C71.829 35.9375 78.125 42.2335 78.125 50C78.125 57.7665 71.829 64.0625 64.0625 64.0625C56.296 64.0625 50 57.7665 50 50Z" fill="#1ABCFE"/>
<path fill-rule="evenodd" clip-rule="evenodd" d="M21.875 78.125C21.875 70.3585 28.171 64.0625 35.9375 64.0625H50V78.125C50 85.8915 43.704 92.1875 35.9375 92.1875C28.171 92.1875 21.875 85.8915 21.875 78.125Z" fill="#0ACF83"/>
<path fill-rule="evenodd" clip-rule="evenodd" d="M50 7.8125V35.9375H64.0625C71.829 35.9375 78.125 29.6415 78.125 21.875C78.125 14.1085 71.829 7.8125 64.0625 7.8125H50Z" fill="#FF7262"/>
<path fill-rule="evenodd" clip-rule="evenodd" d="M21.875 21.875C21.875 29.6415 28.171 35.9375 35.9375 35.9375H50V7.8125H35.9375C28.171 7.8125 21.875 14.1085 21.875 21.875Z" fill="#F24E1E"/>
<path fill-rule="evenodd" clip-rule="evenodd" d="M21.875 50C21.875 57.7665 28.171 64.0625 35.9375 64.0625H50V35.9375H35.9375C28.171 35.9375 21.875 42.2335 21.875 50Z" fill="#A259FF"/>
</svg>
