<svg width="100" height="37" viewBox="0 0 100 37" fill="none" xmlns="http://www.w3.org/2000/svg">
<g clip-path="url(#clip0_7212_27685)">
<path d="M51.6481 7.36916C51.6481 7.36916 52.3446 6.51078 54.0991 6.086C53.63 6.08424 53.1449 6.11949 52.665 6.19175C50.4181 6.53017 49.5498 7.60534 49.5498 7.60534C49.5498 7.60534 50.7529 9.0859 53.3597 8.79155C53.7393 8.74925 54.1367 8.67875 54.5252 8.5871C52.563 8.49368 51.6481 7.36916 51.6481 7.36916Z" fill="#1288C6"/>
<path d="M97.1553 13.6915C96.1204 12.1827 94.4285 10.6369 91.4351 9.36257C86.7157 7.35147 78.7575 6.01367 65.0236 6.55126C65.0236 6.55126 64.5796 6.38558 63.8079 6.10709C63.8079 6.11943 63.8079 6.13177 63.8079 6.14234C60.0947 4.82041 48.2712 0.745333 42.175 0.227136C19.278 -1.71522 11.1659 9.4225 0.883789 9.99357C5.93799 12.4665 38.9255 8.69279 46.6115 10.5417C42.0228 8.93779 20.4346 7.91197 14.3939 8.76329C20.7246 4.4961 25.4816 1.20713 41.8831 1.46975C46.4378 1.54202 56.1165 4.40444 59.2031 6.76101C59.2729 7.91549 58.2739 8.91664 54.6323 9.53883C54.6323 9.53883 58.2721 9.8226 61.8045 8.82146C62.4222 8.64696 63.4123 8.51477 64.6494 8.42312C64.6548 8.42312 64.6584 8.42312 64.6637 8.42312C64.6637 8.42312 64.6709 8.42312 64.6763 8.42312C66.4666 8.29797 68.7834 8.26448 71.2648 8.31736C73.2449 8.35085 75.5348 8.44603 77.9393 8.65578C80.931 8.90077 83.6953 9.26563 85.5931 9.74505C87.0988 10.0588 88.5669 10.4413 89.958 10.8995C90.3089 11.0353 92.5773 11.9483 94.9621 13.8483C94.1206 13.5328 93.1287 13.3619 92.0939 13.3636C90.6079 13.3143 88.8533 13.6069 87.2725 14.779C86.2949 15.4452 85.4606 16.3635 84.9056 17.5726C84.9056 17.5726 93.6193 9.83846 99.66 19.649C99.66 19.649 99.5221 16.7072 97.1553 13.6897V13.6915Z" fill="#1288C6"/>
<path d="M70.8529 32.2651C70.946 32.1047 71.1196 32.0077 71.3058 32.0077H73.3039C73.4614 32.0077 73.5456 31.8226 73.4399 31.7081C72.8276 31.0418 71.9092 30.6523 70.903 30.7616C69.7912 30.8814 68.8548 31.6217 68.4627 32.6176H68.264H6.61279H6.39974C5.97184 31.5212 4.89225 30.7422 3.62646 30.7422C1.98649 30.7422 0.65625 32.0518 0.65625 33.6663C0.65625 35.2808 1.98649 36.5904 3.62646 36.5904C4.89046 36.5904 5.97005 35.8114 6.39974 34.715H6.67188H68.1548H68.4609C68.8888 35.8114 69.9684 36.5904 71.2342 36.5904C72.1079 36.5904 72.8939 36.2185 73.4364 35.6263C73.542 35.5117 73.4578 35.3267 73.3003 35.3267H71.3022C71.116 35.3267 70.9424 35.2279 70.8493 35.0693L70.1779 33.9236C70.0848 33.765 70.0848 33.5676 70.1779 33.409L70.8493 32.2633L70.8529 32.2651ZM5.32194 33.7721L4.9012 34.7732C4.87256 34.8384 4.82064 34.8913 4.7526 34.9195L3.73568 35.3337C3.66943 35.3619 3.59245 35.3619 3.5262 35.3337L2.50928 34.9195C2.44303 34.8913 2.38932 34.8402 2.36068 34.7732L1.93994 33.7721C1.9113 33.7068 1.9113 33.6311 1.93994 33.5658L2.36068 32.5647C2.38932 32.4995 2.44124 32.4466 2.50928 32.4184L3.5262 32.0042C3.59245 31.976 3.66943 31.976 3.73568 32.0042L4.7526 32.4184C4.81885 32.4466 4.87256 32.4977 4.9012 32.5647L5.32194 33.5658C5.35059 33.6311 5.35059 33.7068 5.32194 33.7721Z" fill="#4F4F50"/>
<path d="M77.2842 32.9782C77.4865 32.6874 77.7354 32.4636 78.0343 32.3067C78.3333 32.1498 78.6556 32.0723 79.0029 32.0723C79.327 32.0723 79.5991 32.141 79.8211 32.2785C80.0431 32.416 80.1989 32.6187 80.2902 32.8866H81.6634C81.5721 32.2926 81.3053 31.829 80.8613 31.4924C80.4173 31.1575 79.8641 30.9883 79.1981 30.9883C78.6287 30.9883 78.0934 31.1152 77.5903 31.3708C77.0872 31.6263 76.6629 31.9806 76.3192 32.4371C75.9754 32.8936 75.7516 33.4101 75.6496 33.9864C75.6156 34.1874 75.5977 34.3865 75.5977 34.5822C75.5977 35.0528 75.7033 35.4688 75.9128 35.8336C76.1222 36.1967 76.4194 36.4787 76.8044 36.6779C77.1875 36.877 77.6297 36.9758 78.131 36.9758C78.797 36.9758 79.4093 36.8101 79.9679 36.4769C80.5283 36.1438 80.9616 35.6785 81.2677 35.0792H79.8945C79.7065 35.3471 79.4774 35.5516 79.2035 35.6926C78.9313 35.8318 78.6323 35.9023 78.3083 35.9023C77.8535 35.9023 77.4937 35.7702 77.2287 35.5075C76.9637 35.2449 76.833 34.8871 76.833 34.4324C76.833 34.3143 76.8473 34.1662 76.876 33.9882C76.944 33.6075 77.0783 33.2726 77.2806 32.98L77.2842 32.9782Z" fill="#4F4F50"/>
<path d="M81.9512 36.924H83.1543L84.2715 30.7109H83.0684L81.9512 36.924Z" fill="#4F4F50"/>
<path d="M84.3223 36.9249H85.5254L86.3615 32.2734H85.1584L84.3223 36.9249Z" fill="#4F4F50"/>
<path d="M86.5563 30.5002C86.4417 30.3945 86.2949 30.3398 86.1123 30.3398C85.8796 30.3398 85.6755 30.4192 85.5018 30.5796C85.3281 30.7399 85.2422 30.9303 85.2422 31.1542C85.2422 31.3163 85.2995 31.4503 85.4123 31.5578C85.5251 31.6635 85.6772 31.7182 85.8634 31.7182C86.0962 31.7182 86.2985 31.6389 86.4686 31.4785C86.6387 31.3198 86.7246 31.1277 86.7246 30.9039C86.7246 30.7417 86.6673 30.6078 86.5545 30.5002H86.5563Z" fill="#4F4F50"/>
<path d="M90.1548 32.2031C89.8647 32.2031 89.5855 32.2613 89.3187 32.3759C89.0519 32.4904 88.821 32.6455 88.6276 32.8412L88.7297 32.2701H87.5265L86.6904 36.9215H87.8936L88.3626 34.2935C88.436 33.941 88.5864 33.6713 88.8102 33.4828C89.034 33.2959 89.3062 33.2007 89.6248 33.2007C89.9041 33.2007 90.1172 33.273 90.2694 33.4193C90.4198 33.5656 90.495 33.7771 90.495 34.0574C90.495 34.1525 90.486 34.2512 90.4699 34.3517L90.0098 36.9198H91.195L91.6891 34.1913C91.7178 34.045 91.7321 33.8829 91.7321 33.7048C91.7321 33.2237 91.5907 32.8535 91.3096 32.5927C91.0285 32.3318 90.6436 32.2031 90.1548 32.2031Z" fill="#4F4F50"/>
<path d="M94.1201 30.3398C93.8874 30.3398 93.6833 30.4192 93.5096 30.5796C93.3359 30.7399 93.25 30.9303 93.25 31.1542C93.25 31.3163 93.3073 31.4503 93.4201 31.5578C93.5329 31.6635 93.6851 31.7182 93.8713 31.7182C94.104 31.7182 94.3063 31.6389 94.4764 31.4785C94.6465 31.3198 94.7324 31.1277 94.7324 30.9039C94.7324 30.7417 94.6751 30.6078 94.5623 30.5002C94.4478 30.3945 94.301 30.3398 94.1183 30.3398H94.1201Z" fill="#4F4F50"/>
<path d="M92.3301 36.9249H93.5314L94.3675 32.2734H93.1662L92.3301 36.9249Z" fill="#4F4F50"/>
<path d="M96.9009 35.9901C96.6162 35.9901 96.3942 35.9055 96.2349 35.7346C96.0755 35.5636 95.9967 35.3186 95.9967 34.9996C95.9967 34.8885 96.0111 34.7528 96.0397 34.5959C96.1185 34.1482 96.2796 33.8028 96.5213 33.5595C96.763 33.3163 97.0548 33.1947 97.395 33.1947C97.6331 33.1947 97.8247 33.2529 97.9661 33.3674C98.1076 33.482 98.1971 33.6406 98.2311 33.8416H99.5184C99.479 33.3163 99.2928 32.9092 98.9598 32.6236C98.6268 32.3381 98.1685 32.1953 97.583 32.1953C97.1283 32.1953 96.7057 32.294 96.3172 32.4932C95.9269 32.6924 95.6029 32.9726 95.3415 33.3322C95.0801 33.6935 94.9064 34.1148 94.8205 34.5959C94.7865 34.7863 94.7686 34.9678 94.7686 35.1423C94.7686 35.7134 94.9458 36.1646 95.3021 36.4978C95.6566 36.8309 96.1328 36.9966 96.7308 36.9966C97.3288 36.9966 97.8122 36.8485 98.2526 36.5524C98.693 36.2563 99.0243 35.8562 99.2463 35.3521H97.959C97.7316 35.7769 97.3789 35.9901 96.9009 35.9901Z" fill="#4F4F50"/>
<path d="M7.20931 16.5361C7.2487 16.4198 7.31315 16.3264 7.40446 16.2559C7.49577 16.1854 7.5835 16.1501 7.67122 16.1501H10.7381V16.1378H17.0868L17.9157 12.5703H7.00879C5.37419 12.5703 4.25342 13.434 3.64469 15.1595L0.660156 28.1956H4.54525L5.91846 22.1675H12.3494L13.1318 18.6001H6.73665L7.2111 16.5361H7.20931Z" fill="#1288C6"/>
<path d="M27.2704 16.8867H27.2579L27.4351 16.268H21.9047C18.4152 16.0812 15.8407 17.3485 14.1828 20.0681C13.2124 22.2678 13.0459 24.1115 13.6851 25.6008C14.3243 27.0902 15.6384 27.938 17.6293 28.1478L20.4831 28.1936H24.3557L26.2982 20.6621L27.2686 16.8849L27.2704 16.8867ZM22.4382 20.6639L21.3479 24.7918H19.1923C17.4556 24.8147 16.7968 23.8894 17.2139 22.0175C17.4341 21.3107 17.8531 20.7026 18.469 20.1933C19.0848 19.6839 19.8905 19.4213 20.8842 19.4072H22.7443L22.4239 20.6656H22.4364L22.4382 20.6639Z" fill="#1288C6"/>
<path d="M43.0223 24.6616C42.9041 24.5065 42.8558 24.3267 42.8809 24.1258C42.9668 23.7909 43.0474 23.4842 43.1172 23.2039C43.1888 22.9237 43.2533 22.6646 43.3123 22.4231C43.3714 22.1816 43.4251 21.9631 43.4717 21.7639C43.5182 21.5665 43.563 21.385 43.6024 21.221C43.6418 21.0571 43.6776 20.9126 43.7098 20.7839C43.742 20.6552 43.7707 20.5407 43.7993 20.4402C43.8262 20.3397 43.8494 20.2516 43.8638 20.1776C43.8799 20.1036 43.8942 20.0401 43.9049 19.9855C43.9175 19.9308 43.9264 19.8868 43.9354 19.8515C43.9425 19.8163 43.9497 19.7881 43.9533 19.7634C43.9569 19.7405 43.9604 19.7246 43.9658 19.7176C43.9694 19.7105 43.9712 19.7017 43.9712 19.6946H46.8018L47.5716 16.2312H44.7769C44.8485 15.9668 44.9129 15.72 44.972 15.4909C45.0311 15.2618 45.0848 15.0503 45.1313 14.8546C45.1779 14.6607 45.2244 14.4809 45.2674 14.3188C45.3104 14.1549 45.3498 14.0068 45.3856 13.8693C45.4214 13.7336 45.4518 13.612 45.4805 13.508C45.5073 13.4022 45.5324 13.3071 45.5521 13.2225C45.5718 13.1379 45.5915 13.0621 45.6112 12.9951C45.6309 12.9299 45.647 12.8735 45.6577 12.8259C45.6702 12.7801 45.6792 12.7413 45.6864 12.7096C45.6935 12.6778 45.7025 12.6532 45.7096 12.6338C45.7168 12.6144 45.724 12.6003 45.7275 12.5932C45.7311 12.5862 45.7329 12.5774 45.7329 12.5703H41.8371L40.9329 16.2435L39.728 16.2559H33.1663C30.3232 16.0919 28.5508 17.146 27.849 19.4162C27.6037 20.7293 27.8042 21.7604 28.4469 22.506C29.0897 23.2515 30.0207 23.6375 31.2363 23.6604H32.9891C33.7715 23.6146 34.1528 23.8438 34.1385 24.3478C34.0042 24.8061 33.605 25.0088 32.9425 24.9542H26.7013L26.0264 28.1956H33.0607C35.8161 28.2802 37.4382 27.1662 37.9287 24.8502C38.1489 23.56 38.0218 22.5289 37.5438 21.7551C37.0658 20.9813 36.0882 20.5724 34.613 20.5248L33.0374 20.5706C32.6185 20.5936 32.2891 20.5583 32.0492 20.4649C31.8075 20.3715 31.7036 20.1811 31.7358 19.8938C31.8075 19.5202 32.0868 19.3457 32.5773 19.3686H40.1667L38.9958 24.1258C38.7666 25.2062 38.9618 26.1545 39.5812 26.9706C40.2007 27.7866 41.0439 28.1956 42.1092 28.1956H44.7733L45.5557 24.896H43.5308C43.3088 24.896 43.1405 24.8185 43.0223 24.6633V24.6616Z" fill="#1288C6"/>
<path d="M52.6323 12.5703C51.0693 12.5703 49.9754 13.434 49.3524 15.1595L46.1064 28.1938H49.8483L50.9136 23.8913H57.6489L56.5854 28.1938H60.3506L64.1999 12.5703H52.6287H52.6323ZM58.5405 20.3115H51.7926L52.729 16.5343C52.7612 16.418 52.8221 16.3246 52.9134 16.2541C53.0047 16.1836 53.0924 16.1483 53.1802 16.1483H59.5754L58.5423 20.3115H58.5405Z" fill="#1288C6"/>
<path d="M72.1866 16.2461L70.1133 24.9092H67.2828C67.0608 24.9092 66.8925 24.8316 66.7725 24.6765C66.6544 24.5214 66.606 24.3416 66.6311 24.1407L68.5844 16.2479H64.6635L62.7102 24.1407C62.481 25.2211 62.6797 26.1676 63.3082 26.9802C63.9366 27.7927 64.787 28.1981 65.8594 28.1981H69.6854L69.698 28.1858H73.2501L76.1039 16.2461H72.183H72.1866Z" fill="#1288C6"/>
<path d="M79.8137 23.2039C79.8853 22.9237 79.9497 22.6646 80.0088 22.4231C80.0679 22.1816 80.1216 21.9631 80.1682 21.7639C80.2147 21.5665 80.2595 21.385 80.2989 21.221C80.3382 21.0571 80.374 20.9126 80.4045 20.7839C80.4367 20.6552 80.4654 20.5407 80.494 20.4402C80.5209 20.3397 80.5423 20.2516 80.5584 20.1776C80.5746 20.1036 80.5871 20.0401 80.5996 19.9855C80.6122 19.9308 80.6211 19.8868 80.6301 19.8515C80.6372 19.8163 80.6444 19.7881 80.648 19.7634C80.6515 19.7405 80.6551 19.7246 80.6605 19.7176C80.6641 19.7105 80.6659 19.7017 80.6659 19.6946H83.4964L84.2663 16.2312H81.4715C81.5432 15.9668 81.6076 15.72 81.6667 15.4909C81.7258 15.2618 81.7795 15.0503 81.826 14.8546C81.8726 14.6607 81.9191 14.4809 81.9621 14.3188C82.0051 14.1549 82.0445 14.0068 82.0803 13.8693C82.1161 13.7336 82.1465 13.612 82.1751 13.508C82.202 13.4022 82.2271 13.3071 82.2468 13.2225C82.2665 13.1379 82.2862 13.0621 82.3058 12.9951C82.3255 12.9299 82.3417 12.8735 82.3524 12.8259C82.3649 12.7801 82.3739 12.7413 82.3828 12.7096C82.39 12.6778 82.3989 12.6532 82.4061 12.6338C82.4133 12.6144 82.4204 12.6003 82.424 12.5932C82.4276 12.5862 82.4294 12.5774 82.4294 12.5703H78.5335L75.6904 24.124C75.4613 25.2045 75.6564 26.1527 76.2777 26.9688C76.8972 27.7849 77.7404 28.1938 78.8057 28.1938H81.4697L82.2521 24.8942H80.2272C80.007 24.8942 79.8369 24.8167 79.7188 24.6616C79.6006 24.5065 79.5523 24.3267 79.5773 24.1258C79.6651 23.7909 79.7438 23.4842 79.8137 23.2039Z" fill="#1288C6"/>
<path d="M96.9995 17.9113C95.9342 16.7145 94.1725 16.1628 91.7179 16.2562C87.4139 16.8555 84.8483 18.849 84.0194 22.2367C83.7669 24.1808 84.1125 25.6067 85.056 26.5162C85.9995 27.4257 87.174 27.9668 88.5794 28.136C92.0527 28.4621 94.7383 27.4169 96.6325 25.0004C98.3781 22.3036 98.4998 19.94 96.9995 17.9113ZM93.315 24.1596C92.6275 24.9299 91.7752 25.3335 90.7565 25.3723C88.5938 25.2877 87.6646 24.2495 87.9725 22.2596C88.1533 21.2567 88.6117 20.4371 89.3457 19.799C90.0798 19.161 90.957 18.8701 91.9758 18.9248C92.6471 18.9565 93.2039 19.1698 93.6462 19.5664C94.0884 19.9629 94.3247 20.4917 94.3569 21.1527C94.3498 22.3882 94.0025 23.3911 93.315 24.1614V24.1596Z" fill="#1288C6"/>
</g>
<defs>
<clipPath id="clip0_7212_27685">
<rect width="99" height="37" fill="white" transform="translate(0.660156)"/>
</clipPath>
</defs>
</svg>
