<svg width="97" height="30" viewBox="0 0 97 30" fill="none" xmlns="http://www.w3.org/2000/svg">
<path d="M34.3055 17.8591C34.3055 18.5249 34.3138 19.1907 34.3055 19.8552C34.2972 20.43 34.0167 20.754 33.4141 20.7512C32.9317 20.7512 32.4466 20.7512 31.9657 20.7512C30.9595 20.7512 30.7494 20.5417 30.748 19.556C30.748 17.9018 30.748 16.2476 30.748 14.5934C30.748 12.1598 30.748 9.7277 30.748 7.29692C30.748 6.20376 30.8185 6.0852 31.9048 5.93632C34.1645 5.62754 36.4325 5.46212 38.6853 5.97355C40.5663 6.40089 41.6402 7.67739 41.7798 9.59903C41.8309 10.3076 41.8724 11.0258 41.7411 11.7275C41.3085 14.0447 39.9112 15.2137 37.4235 15.3571C36.5942 15.404 35.7719 15.4949 34.944 15.3847C34.4741 15.3226 34.2737 15.5087 34.3 16.0008C34.3345 16.6184 34.3083 17.2415 34.3083 17.8591H34.3055ZM35.6171 12.6207C36.2142 12.6207 36.8071 12.6028 37.3654 12.345C38.1007 12.0114 38.4241 11.2891 38.3246 10.1918C38.2403 9.26543 37.8312 8.78571 36.9978 8.59134C36.2694 8.42178 35.5397 8.45349 34.8044 8.50587C34.452 8.53344 34.2848 8.6837 34.3 9.07106C34.3276 9.80443 34.3 10.5378 34.3083 11.2767C34.3193 12.8179 34.13 12.5477 35.6171 12.6194V12.6207Z" fill="#0F172A"/>
<path d="M69.2694 13.9846C69.948 13.0348 70.581 12.1512 71.2112 11.2676C71.3038 11.1297 71.3881 10.9919 71.4793 10.8678C72.6334 9.2136 72.6347 9.21359 74.6678 9.31147C75.0534 9.33077 75.3975 9.40108 75.573 9.79947C75.7334 10.1634 75.5952 10.4501 75.374 10.7437C74.5987 11.7694 73.8537 12.8198 73.0673 13.8302C72.6845 14.3196 72.6527 14.7208 73.0079 15.2473C73.9118 16.5721 74.7604 17.9341 75.6339 19.274C75.8564 19.6131 76.0485 19.9467 75.8398 20.3547C75.6228 20.7876 75.2137 20.76 74.8212 20.7545C74.0638 20.7435 73.1765 20.964 72.5864 20.6428C72.0335 20.3396 71.782 19.4656 71.4019 18.8411C70.7938 17.8431 70.1912 16.8423 69.5817 15.8456C69.4947 15.7078 69.4629 15.4955 69.1381 15.4652C69.1381 16.568 69.1229 17.6556 69.1381 18.7419C69.1727 20.891 69.1257 20.7752 67.0885 20.7545C67.0194 20.7545 66.9503 20.7545 66.8812 20.7545C66.0436 20.7421 65.8197 20.5229 65.8184 19.6972C65.8184 17.9511 65.8184 16.205 65.8184 14.4588C65.8184 11.6356 65.8184 8.81153 65.8184 5.9865C65.8184 5.16629 66.0091 4.97054 66.8204 4.95124C67.2792 4.94159 67.7408 4.93745 68.2024 4.95124C68.9363 4.98157 69.1326 5.18283 69.134 5.9162C69.134 8.34927 69.134 10.7837 69.134 13.2223C69.1478 13.4456 69.0953 13.6758 69.2694 13.9846Z" fill="#0F172A"/>
<path d="M53.1005 15.7559C53.1005 16.8132 53.1005 17.8691 53.1005 18.9265C53.1005 19.4627 52.9623 19.8914 52.3846 20.1258C50.2841 20.9787 47.9698 21.1598 45.7617 20.6441C44.0645 20.254 43.2394 18.852 43.3735 16.969C43.5283 14.7772 44.6173 13.6854 46.906 13.429C47.34 13.3807 47.774 13.3283 48.2093 13.2911C48.6682 13.2539 48.8755 12.9561 48.8824 12.5605C48.8893 12.1649 48.6544 11.8712 48.2038 11.8519C47.2376 11.825 46.2708 11.8748 45.3125 12.0008C44.8841 12.0546 44.3672 12.2048 44.1225 11.7362C43.9647 11.4573 43.8693 11.1477 43.8431 10.8285C43.8168 10.5094 43.8603 10.1883 43.9705 9.88756C44.0659 9.63943 44.2884 9.56224 44.5233 9.52915C46.5039 9.23966 48.4871 8.92674 50.4801 9.41887C52.2146 9.84621 53.106 10.9931 53.1171 12.7907C53.1254 13.7777 53.1171 14.7661 53.1171 15.7531L53.1005 15.7559ZM49.8595 16.7636C49.8499 15.5229 49.6923 15.3644 48.4553 15.5091C47.8763 15.5767 47.2391 15.5974 46.8563 16.1515C46.45 16.7415 46.5674 17.7589 47.0539 18.098C47.6648 18.5239 49.4034 18.4495 49.7186 17.9698C49.8004 17.8328 49.8478 17.6782 49.8568 17.519C49.8775 17.2681 49.8595 17.0158 49.8595 16.7636Z" fill="#0F172A"/>
<path d="M89.2887 15.3929C89.8415 13.6532 90.4137 11.9466 90.9099 10.2221C91.1144 9.50936 91.5097 9.2571 92.2035 9.3081C92.6181 9.33567 93.0328 9.28605 93.4474 9.31775C94.1287 9.37013 94.4259 9.80574 94.2061 10.4523C92.6398 15.0703 91.0674 19.6874 89.4891 24.3036C89.3302 24.7709 89.0468 24.9611 88.5673 24.9418C88.1305 24.9253 87.6924 24.9501 87.2557 24.9418C86.3076 24.9294 86.0353 24.5283 86.3587 23.6198C86.7319 22.5666 87.1064 21.5148 87.5086 20.474C87.582 20.2985 87.6171 20.1094 87.6117 19.9192C87.6062 19.7291 87.5602 19.5423 87.4768 19.3712C86.2191 16.5085 84.9753 13.6408 83.7452 10.7679C83.3085 9.76026 83.607 9.31223 84.7223 9.31499C86.9599 9.31499 86.5508 9.11787 87.3704 11.0947C87.9053 12.3808 88.407 13.6794 88.9321 14.9697C88.975 15.1034 88.9916 15.2853 89.2887 15.3929Z" fill="#0F172A"/>
<path d="M20.6134 10.9362C20.6134 12.4845 20.5906 14.0371 20.6134 15.5813C20.6258 16.2015 20.4372 16.6149 19.8838 16.9229C17.6972 18.1633 15.5314 19.4161 13.3572 20.675C12.7479 21.0264 12.1137 21.136 11.7489 20.4435C11.3841 19.751 11.7323 19.2321 12.4121 18.8558C14.0059 17.9772 15.5749 17.0552 17.1521 16.1457C18.2941 15.4841 18.3066 14.7875 17.1708 14.1301C12.6484 11.5116 8.12323 8.90268 3.5953 6.30345C3.09373 6.0161 2.51133 5.83005 2.51962 5.07757C2.51962 4.37264 3.07507 4.18658 3.54141 3.91577C5.61401 2.71056 7.7094 1.52396 9.77785 0.300143C10.41 -0.0740299 10.9634 -0.113309 11.6059 0.267066C14.3376 1.85885 17.0734 3.44237 19.8341 4.98247C20.4414 5.3215 20.6237 5.74529 20.6113 6.39234C20.5927 7.90557 20.6113 9.42914 20.6134 10.9362Z" fill="#0F172A"/>
<path d="M1.50511 22.5146C1.50511 20.5197 1.52169 18.5269 1.50511 16.532C1.50511 15.9118 1.68128 15.4839 2.23052 15.1738C4.44405 13.9169 6.63686 12.6228 8.86283 11.3825C10.1561 10.6631 10.7862 11.0662 10.7862 12.5753C10.7862 16.5031 10.7593 20.4143 10.7862 24.3338C10.7862 25.078 10.5458 25.5514 9.89291 25.9173C7.73119 27.1267 5.59849 28.3981 3.43884 29.6033C2.19528 30.302 1.53205 29.9092 1.52376 28.4973C1.49682 26.5024 1.50511 24.5199 1.50511 22.5146Z" fill="#14B8A6"/>
<path d="M60.2587 20.8911C59.5014 20.9062 58.7509 20.8911 58.0184 20.636C56.2963 20.0405 55.7311 18.6262 55.4906 17.0299C55.2472 15.4872 55.2809 13.9137 55.5901 12.3829C55.9522 10.6487 57.0841 9.58038 58.8393 9.30192C60.1823 9.09584 61.5521 9.1426 62.8778 9.43977C63.6186 9.59968 63.7637 9.93466 63.602 11.0678C63.5025 11.7571 63.2468 11.9914 62.5474 11.917C61.7707 11.8342 61.0037 11.6936 60.2228 11.8853C59.2802 12.1182 58.8863 12.5359 58.7841 13.4747C58.6783 14.5013 58.6783 15.536 58.7841 16.5625C58.8753 17.4903 59.3618 17.9411 60.3043 18.1451C61.0686 18.3091 61.808 18.1823 62.5613 18.1203C63.2661 18.061 63.5135 18.2829 63.602 18.9846C63.6338 19.2341 63.6503 19.4864 63.6614 19.7386C63.6807 20.2101 63.4955 20.512 62.9939 20.6154C62.0942 20.8014 61.1775 20.8938 60.2587 20.8911Z" fill="#0F172A"/>
<path d="M81.4463 12.9463C81.4463 15.2209 81.4463 17.4945 81.4463 19.7672C81.4463 20.5254 81.2404 20.7418 80.4789 20.7556C79.9951 20.7639 79.5114 20.7556 79.0291 20.7556C78.3975 20.7556 78.1072 20.4496 78.1114 19.8279C78.1114 18.9553 78.1114 18.0827 78.1114 17.2087C78.1114 13.5097 78.1114 9.81205 78.1114 6.1158C78.1114 5.115 78.2675 4.96337 79.2654 4.94545C79.5874 4.93855 79.9108 4.94545 80.2329 4.94545C81.2805 4.94545 81.4449 5.11776 81.4449 6.19576L81.4463 12.9463Z" fill="#0F172A"/>
</svg>
