<svg width="134" height="37" viewBox="0 0 134 37" fill="none" xmlns="http://www.w3.org/2000/svg">
<g clip-path="url(#clip0_7212_27946)">
<path d="M27.6224 12.4965C26.6294 12.514 25.6287 12.514 24.626 12.5063H22.9813V7.33203H21.3367C15.7957 7.33203 10.2352 7.33203 4.69422 7.34175C4.29857 7.34175 3.91262 7.36895 3.52667 7.43307C1.88201 7.70897 0.660156 9.174 0.660156 10.8489V36.4965H2.30481C10.0413 36.4791 17.77 36.4868 25.5084 36.4868C26.9048 36.4868 28.1461 35.2627 28.1461 33.8541C28.1461 27.2906 28.1461 20.7174 28.1558 14.1442V12.4965H27.6224ZM20.4717 22.0153C19.6998 22.7148 18.7533 22.9907 17.7332 23.0743C16.1894 23.2122 14.6456 23.3327 13.1018 23.4609C12.8904 23.4784 12.679 23.5075 12.4772 23.5717C12.4036 23.5989 12.3395 23.6261 12.2852 23.6727V28.2582C12.2949 30.312 12.2949 32.3638 12.2949 34.4078V34.7401C12.0661 34.6662 9.65728 32.5581 8.64683 31.5555C8.55567 31.4544 8.50913 31.2601 8.50913 31.1144C8.49943 30.1565 8.49943 29.2083 8.49943 28.2601V23.391C8.61967 21.8346 9.25388 20.5367 10.724 19.8275C11.1836 19.6157 11.7247 19.5322 12.2309 19.4952C13.4528 19.4039 14.6843 19.4408 15.8965 19.3107C16.4396 19.2563 17.0641 19.2096 17.45 18.8132C17.8263 18.4363 17.9271 17.7077 17.7157 17.1384C17.5043 16.5866 17.0447 16.2543 16.4842 16.2543C14.8492 16.2543 10.9237 16.264 10.9237 16.264C10.9237 16.264 7.11078 12.1215 7.02738 11.937H7.79929C10.5475 11.9272 13.3035 11.8825 16.042 11.9467C18.5962 12.0108 20.5454 13.198 21.5927 15.5548C22.5857 17.7912 22.0523 20.5989 20.4717 22.0173V22.0153Z" fill="#ED1651"/>
<path d="M75.4458 29.613C72.4048 29.6305 65.83 29.6227 65.6555 29.6227C66.5845 28.7114 67.4747 27.8002 68.3571 26.9705C68.5045 26.8228 68.7974 26.7781 69.0185 26.7781C70.3334 26.7684 71.6464 26.7684 72.9614 26.7684H75.4051V22.3209H75.0734C75.0366 22.3112 74.9997 22.3112 74.9532 22.3112C72.2515 22.3209 69.5499 22.3209 66.8579 22.3112H65.0756C65.0756 22.3112 65.0756 30.5223 65.0659 33.0832C65.0659 33.497 65.2036 33.6078 65.6089 33.6078C69.7807 33.5903 73.9427 33.5981 78.1164 33.5981H78.7313V36.4698C78.5373 36.4796 78.3628 36.497 78.1882 36.497H65.1861C63.1923 36.4873 61.7397 35.0514 61.7397 33.0638C61.73 29.6577 61.73 26.2516 61.7397 22.8455C61.7397 20.8578 63.173 19.4297 65.1396 19.4297H75.3488C77.3058 19.4297 78.7584 20.885 78.7681 22.8358C78.7681 23.8384 78.7778 25.2082 78.7584 26.203L75.4439 29.611L75.4458 29.613Z" fill="#ED1651"/>
<path d="M111.76 36.2121C111.76 36.286 111.742 36.3598 111.723 36.4705H108.406V34.0029C108.104 34.2322 107.91 34.3721 107.735 34.5275C107.054 35.0988 106.393 35.6875 105.714 36.2393C105.54 36.3773 105.282 36.4783 105.063 36.488C102.729 36.4978 100.385 36.5055 98.0515 36.488C96.2595 36.4783 94.7797 35.0696 94.7254 33.284C94.6885 31.9861 94.6788 30.6882 94.7351 29.4C94.7991 27.7154 96.2052 26.3164 97.8867 26.297C99.0814 26.2873 100.276 26.2795 101.471 26.2795H107.609L106.542 27.4025L106.174 27.7892L104.925 29.1143H101.469C100.522 29.1143 99.5585 29.1143 98.6023 29.0968H98.0418V33.6085H108.399V33.1305C108.389 31.786 108.389 30.4414 108.389 29.0988C108.389 27.2024 108.389 25.306 108.399 23.4097V22.3138H105.854C103.676 22.3235 101.508 22.3235 99.3296 22.3235H94.7622C94.8999 22.1856 95.0376 22.0476 95.1656 21.9097L96.1664 20.8974L97.5259 19.5353L97.6268 19.4343H99.3277V19.444C102.406 19.4343 105.493 19.4265 108.571 19.444C110.253 19.4537 111.732 20.9265 111.75 22.6946C111.787 27.1966 111.76 31.7082 111.76 36.218V36.2121Z" fill="#ED1651"/>
<path d="M35.7434 12.5742V16.4019H32.4463V12.5742H35.7434Z" fill="#ED1651"/>
<path d="M28.6601 6.64453V11.1601H24.0811V6.64453H28.6601Z" fill="#ED1651"/>
<path d="M32.6548 3.14453V5.5286H30.2383V3.14453H32.6548Z" fill="#ED1651"/>
<path d="M35.4884 0.5V2.12047H33.8477V0.5H35.4884Z" fill="#ED1651"/>
<path d="M32.4463 21.9155L35.7414 18.4492V36.4997H32.4463V21.9155Z" fill="#ED1651"/>
<path d="M84.7197 11.7632L88.0149 8.29688V36.4996H84.7197V11.7632Z" fill="#ED1651"/>
<path d="M57.8764 36.5009H53.788L49.1663 29.8675C49.0286 29.6693 48.7357 29.6693 48.5961 29.8675L43.9647 36.5009H39.7832L46.6566 27.4854L40.2235 19.4297H44.4864L48.5941 25.3073C48.7318 25.5055 49.0247 25.5055 49.1643 25.3073L53.2624 19.4297H57.4342L50.9932 27.4854L57.8764 36.5009Z" fill="#ED1651"/>
<path d="M133.661 36.5009H129.572L124.95 29.8675C124.813 29.6693 124.52 29.6693 124.38 29.8675L119.749 36.5009H115.567L122.441 27.4854L116.008 19.4297H120.271L124.378 25.3073C124.516 25.5055 124.809 25.5055 124.949 25.3073L129.047 19.4297H133.218L126.777 27.4854L133.661 36.5009Z" fill="#ED1651"/>
</g>
<defs>
<clipPath id="clip0_7212_27946">
<rect width="133" height="36" fill="white" transform="translate(0.660156 0.5)"/>
</clipPath>
</defs>
</svg>
