<svg width="134" height="29" viewBox="0 0 134 29" fill="none" xmlns="http://www.w3.org/2000/svg">
<g clip-path="url(#clip0_7212_27707)">
<path d="M10.3949 9.00509L7.60426 10.7691C7.60426 10.7691 3.26512 5.03554 0.660156 3.52432L31.0805 0.5C31.0805 0.5 8.16313 3.77714 6.36398 4.91102L10.3949 9.00697V9.00509Z" fill="#4E4E4F"/>
<path d="M32.9339 0.5C32.9339 0.5 22.6403 3.28849 15.0445 18.2988L12.0997 11.6823L9.61914 13.5727C9.61914 13.5727 14.2702 22.174 14.5617 26.668C14.5617 26.668 20.9209 7.96553 32.9339 0.5Z" fill="#34A487"/>
<path d="M2.45703 17.7497C2.45703 17.7497 10.3146 7.8824 28.4807 1.60547C28.4807 1.60547 14.6538 6.55608 2.45889 17.7497H2.45703Z" fill="#4E4E4F"/>
<path d="M94.2547 24.1948C93.9651 23.5948 93.3784 23.2929 92.4983 23.2929C91.7519 23.2929 91.1113 23.4986 90.5803 23.908C90.0326 24.3287 89.6835 24.9041 89.5331 25.6362C89.4849 25.8494 89.4607 26.0512 89.4607 26.2418C89.4607 26.8153 89.652 27.2512 90.0326 27.553C90.3761 27.8266 90.8421 27.9624 91.427 27.9624C92.2755 27.9624 92.9996 27.6568 93.5956 27.0455L93.9818 27.3323C93.2447 28.0851 92.3646 28.4624 91.3379 28.4624C90.4411 28.4624 89.7801 28.2077 89.3549 27.7002C89.0597 27.3512 88.9111 26.9116 88.9111 26.3814C88.9111 26.1569 88.9371 25.9211 88.991 25.6682C89.1785 24.7721 89.6037 24.0684 90.2647 23.5552C90.909 23.0477 91.6888 22.793 92.6023 22.793C93.6717 22.793 94.394 23.1646 94.7709 23.9061L94.2547 24.1929V24.1948Z" fill="#4E4E4F"/>
<path d="M100.703 27.914C100.38 28.1819 100.092 28.3517 99.8413 28.4215C99.6686 28.4706 99.392 28.4951 99.0113 28.4951C98.4896 28.4951 98.0737 28.3668 97.7618 28.1102C97.4238 27.8367 97.2549 27.4442 97.2549 26.9311C97.2549 26.7669 97.2734 26.5933 97.3106 26.4066C97.4443 25.767 97.7488 25.2576 98.2222 24.8784C98.6957 24.4991 99.2546 24.3086 99.8988 24.3086C100.421 24.3086 100.838 24.4369 101.156 24.6935C101.494 24.9727 101.663 25.3689 101.663 25.8821C101.663 26.0462 101.644 26.2198 101.607 26.4066C101.479 27.0235 101.176 27.5254 100.705 27.914H100.703ZM100.892 25.2406C100.738 25.0406 100.577 24.9142 100.404 24.8595C100.291 24.8218 100.086 24.8029 99.7911 24.8029C99.2917 24.8029 98.8665 24.9482 98.5174 25.2368C98.1684 25.5255 97.9419 25.916 97.8398 26.4085C97.8082 26.5556 97.7915 26.6933 97.7915 26.8179C97.7915 27.2065 97.9177 27.5027 98.1702 27.7103C98.406 27.9065 98.7217 28.0046 99.1135 28.0046C99.6073 28.0046 100.033 27.8593 100.387 27.5706C100.742 27.282 100.97 26.8933 101.072 26.4066C101.104 26.2537 101.121 26.1122 101.121 25.9802C101.121 25.6859 101.044 25.4387 100.89 25.2387L100.892 25.2406Z" fill="#4E4E4F"/>
<path d="M107.484 28.4155L107.573 27.9816C107.164 28.325 106.667 28.4986 106.082 28.4986C105.668 28.4986 105.336 28.4174 105.083 28.2533C104.782 28.0571 104.632 27.7609 104.632 27.3684C104.632 27.2534 104.645 27.1288 104.673 26.9911L105.213 24.4102H105.744L105.204 26.9817C105.181 27.0854 105.172 27.1817 105.172 27.2685C105.172 27.759 105.508 28.0061 106.18 28.0061C106.632 28.0061 107.003 27.8797 107.293 27.625C107.582 27.3703 107.775 27.0194 107.874 26.5723L108.325 24.4102H108.858L108.018 28.4155H107.486H107.484Z" fill="#4E4E4F"/>
<path d="M112.328 26.7859L111.99 28.4084H111.457L112.296 24.4031H112.829L112.716 24.9521C113.178 24.5257 113.793 24.3125 114.561 24.3125L114.465 24.8049C113.321 24.8049 112.608 25.4653 112.328 26.7878V26.7859Z" fill="#4E4E4F"/>
<path d="M116.875 28.4072L117.729 24.3112H118.262L117.408 28.4072H116.877H116.875ZM118.091 23.7792C117.978 23.7792 117.909 23.7112 117.881 23.5735L118.011 22.983C118.102 22.8472 118.199 22.7773 118.301 22.7773C118.386 22.7773 118.468 22.8377 118.542 22.9585L118.414 23.598C118.29 23.7188 118.184 23.7773 118.091 23.7773V23.7792Z" fill="#4E4E4F"/>
<path d="M121.469 26.6123C121.452 26.7161 121.445 26.8142 121.445 26.9067C121.445 27.6387 121.872 28.0047 122.726 28.0047C123.478 28.0047 124.042 27.6915 124.419 27.0633H124.967C124.468 28.0198 123.682 28.4971 122.613 28.4971C122.091 28.4971 121.686 28.382 121.395 28.1537C121.072 27.9028 120.91 27.5255 120.91 27.0236C120.91 26.8387 120.934 26.6369 120.983 26.418C121.111 25.7898 121.41 25.2822 121.877 24.8936C122.345 24.5049 122.893 24.3125 123.523 24.3125C124.028 24.3125 124.436 24.4276 124.748 24.6559C125.097 24.9181 125.272 25.2917 125.272 25.7784C125.272 25.9313 125.253 26.0954 125.216 26.2709L125.151 26.6067L121.467 26.6142L121.469 26.6123ZM123.428 24.803C122.993 24.803 122.613 24.9181 122.288 25.1502C121.963 25.3822 121.727 25.7067 121.582 26.1199H124.67C124.681 26.0482 124.687 25.9784 124.687 25.9067C124.687 25.5464 124.566 25.2672 124.325 25.0709C124.098 24.8917 123.801 24.8011 123.43 24.8011L123.428 24.803Z" fill="#4E4E4F"/>
<path d="M128.78 26.7859L128.442 28.4084H127.911L128.75 24.4031H129.281L129.168 24.9521C129.63 24.5257 130.245 24.3125 131.014 24.3125L130.917 24.8049C129.773 24.8049 129.06 25.4653 128.78 26.7878V26.7859Z" fill="#4E4E4F"/>
<path d="M33.5163 8.63069C33.4123 8.63069 33.3213 8.66276 33.2471 8.72691C33.1728 8.79106 33.1189 8.86652 33.0892 8.94954C33.0892 8.95708 33.0855 8.9684 33.0781 8.9835C33.0707 8.99859 33.0632 9.025 33.0558 9.06274C33.0484 9.10047 33.0373 9.15518 33.0224 9.22876C33.0075 9.30046 32.9871 9.39102 32.9611 9.49667C32.9351 9.60232 32.9036 9.73628 32.8664 9.89476C32.8293 10.0551 32.7847 10.24 32.7328 10.4532C32.7105 10.5985 32.7402 10.723 32.8219 10.8287C32.9036 10.9343 33.0131 10.9871 33.1468 10.9871H38.6074C39.6156 10.9871 40.4214 11.3833 41.023 12.1776C41.6245 12.9719 41.8102 13.8851 41.5781 14.9171C41.5781 14.9246 41.5763 14.9359 41.5726 14.951C41.5688 14.9661 41.5633 14.9906 41.5558 15.0246C41.5484 15.0586 41.5373 15.1076 41.5224 15.1718C41.5076 15.2359 41.4871 15.3189 41.4612 15.417C41.4352 15.5151 41.4055 15.6397 41.372 15.7868C41.3386 15.934 41.2978 16.1075 41.2495 16.3056C41.2012 16.5037 41.1455 16.7301 41.0805 16.9886C41.0174 17.2471 40.9468 17.5395 40.8726 17.8659C40.6776 18.6111 40.2896 19.2187 39.7066 19.6884C39.1236 20.1601 38.4477 20.394 37.6772 20.394H26.7021C26.7021 20.394 26.7021 20.3733 26.7077 20.3544C26.7114 20.3356 26.7189 20.3054 26.73 20.2639C26.7411 20.2224 26.756 20.1639 26.7746 20.0865C26.7931 20.0111 26.8173 19.9111 26.847 19.7903C26.8767 19.6696 26.9101 19.5205 26.9472 19.3469C26.9844 19.1715 27.0308 18.9658 27.0865 18.7262C27.1422 18.4866 27.2072 18.2112 27.2833 17.8999C27.3576 17.5886 27.4411 17.2395 27.5302 16.8528H37.1833C37.3931 16.8528 37.5379 16.7434 37.6215 16.5226C37.6215 16.5151 37.6215 16.5037 37.627 16.4887C37.6308 16.4736 37.6363 16.4471 37.6438 16.4094C37.6512 16.3717 37.6642 16.317 37.6827 16.2434C37.7013 16.1717 37.7236 16.083 37.7496 15.9755C37.7756 15.8698 37.8071 15.7359 37.8443 15.5774C37.8814 15.417 37.9223 15.2321 37.9668 15.0189C38.0188 14.8831 38.0058 14.7586 37.9278 14.6492C37.8498 14.5397 37.7422 14.4831 37.6085 14.4831C37.6159 14.4831 37.6178 14.4831 37.614 14.4831H32.1033C31.0951 14.4831 30.2875 14.0945 29.6822 13.3153C29.0769 12.5361 28.8894 11.6192 29.1214 10.5645C29.1214 10.557 29.1214 10.5457 29.127 10.5306C29.1307 10.5155 29.1382 10.4891 29.1493 10.4513C29.1604 10.4136 29.1734 10.3626 29.1883 10.2985C29.2031 10.2344 29.2217 10.1532 29.244 10.0532C29.2663 9.95513 29.296 9.8325 29.3331 9.68911C29.3702 9.54572 29.4111 9.37215 29.4557 9.17028C29.5002 8.9684 29.5541 8.74012 29.619 8.48164C29.6822 8.22317 29.7546 7.93074 29.8381 7.60434C30.4731 5.95729 31.5352 5.13281 33.0224 5.13281H44.055C44.055 5.13281 44.0531 5.15357 44.0494 5.17243C44.0457 5.1913 44.0383 5.22149 44.0271 5.26299C44.016 5.3045 44.0011 5.36299 43.9826 5.44034C43.964 5.51581 43.938 5.61391 43.9046 5.73089C43.8712 5.84786 43.834 5.99313 43.7932 6.16293C43.7523 6.33462 43.7022 6.53649 43.6409 6.77232C43.5815 7.00816 43.5128 7.27984 43.433 7.58736C43.355 7.89489 43.2659 8.24204 43.1693 8.6288H33.5163V8.63069Z" fill="#4E4E4F"/>
<path d="M45.1194 5.13268H48.8087C48.8087 5.13268 48.8068 5.14777 48.8031 5.15532C48.7994 5.16287 48.7938 5.17607 48.7864 5.19494C48.7789 5.21381 48.7715 5.23833 48.7641 5.26852C48.7567 5.29871 48.7474 5.33644 48.7362 5.38172C48.7251 5.427 48.7102 5.48171 48.6917 5.54586C48.6731 5.61001 48.6545 5.68547 48.636 5.76849C48.6174 5.8515 48.5951 5.94583 48.5691 6.04771C48.5431 6.14959 48.5134 6.26845 48.48 6.40052C48.4466 6.53259 48.4095 6.67974 48.3686 6.83822C48.3278 6.9967 48.2851 7.17216 48.2405 7.36272C48.1959 7.55327 48.1458 7.75892 48.0882 7.98343C48.0325 8.20794 47.9713 8.44944 47.9026 8.70602H50.5484L49.8206 12.0888H47.1413C47.1413 12.0888 47.1395 12.1039 47.1358 12.1115C47.132 12.119 47.1283 12.1341 47.1246 12.1567C47.1209 12.1794 47.1153 12.2077 47.1079 12.2416C47.1005 12.2756 47.0912 12.319 47.0801 12.3718C47.0689 12.4246 47.0559 12.4869 47.0411 12.5605C47.0262 12.6322 47.0058 12.719 46.9798 12.8171C46.9538 12.9152 46.9259 13.0284 46.8962 13.1529C46.8665 13.2774 46.8331 13.4208 46.796 13.5793C46.7588 13.7396 46.718 13.9151 46.6734 14.1094C46.6289 14.3038 46.5787 14.517 46.523 14.7528C46.4673 14.9886 46.4061 15.2433 46.3374 15.5169C46.2705 15.7905 46.1963 16.0904 46.1127 16.4168C46.0904 16.6149 46.135 16.7885 46.2464 16.9413C46.3578 17.0941 46.5193 17.1696 46.7291 17.1696H48.6471L47.9063 20.3939H45.383C44.3748 20.3939 43.5764 19.9958 42.9897 19.1978C42.403 18.3997 42.2173 17.4734 42.4346 16.4187L45.1249 5.12891L45.1194 5.13268Z" fill="#4E4E4F"/>
<path d="M52.6643 11.03C54.1144 9.58298 55.8746 8.8151 57.9448 8.72266H60.6798C61.6434 8.72266 62.4121 9.07924 62.984 9.79428C63.5558 10.5074 63.7341 11.3244 63.5168 12.2432C63.4574 12.4715 63.4054 12.6696 63.359 12.8356C63.3145 13.0035 63.2773 13.1431 63.2476 13.2563C63.2179 13.3695 63.1919 13.4657 63.1696 13.5412C63.1473 13.6167 63.1325 13.677 63.1251 13.7185C63.1176 13.7601 63.1102 13.7884 63.1028 13.8034C63.0954 13.8185 63.0916 13.8299 63.0916 13.8374C62.9115 14.5657 62.5365 15.1486 61.9646 15.5863C61.3928 16.0222 60.7336 16.241 59.9854 16.241H56.5987C56.1123 16.158 55.8059 15.8939 55.6796 15.4486C55.5534 15.0053 55.6258 14.5525 55.8987 14.0921C56.1717 13.6336 56.6748 13.3337 57.4064 13.1978H59.5472C59.5917 13.0148 59.6307 12.8582 59.6642 12.7243C59.6976 12.5922 59.7273 12.479 59.7533 12.3884C59.7793 12.2979 59.7997 12.2224 59.8145 12.1602C59.8294 12.0998 59.8405 12.0526 59.848 12.0187C59.8554 11.9847 59.861 11.9621 59.8647 11.9507C59.8684 11.9394 59.8702 11.93 59.8702 11.9224H57.5605C56.7603 11.9224 56.0696 12.1375 55.4866 12.5658C54.9035 12.996 54.4895 13.6846 54.2426 14.6336C54.1237 15.309 54.2277 15.9316 54.5563 16.5014C54.885 17.0711 55.5311 17.356 56.4966 17.356H62.2246C62.1429 17.6975 62.0649 18.0013 61.9943 18.2673C61.9238 18.5333 61.8606 18.7673 61.8031 18.9672C61.7474 19.1691 61.701 19.3446 61.6638 19.4974C61.6267 19.6502 61.5933 19.7766 61.5636 19.8785C61.5339 19.9804 61.5116 20.0653 61.4967 20.1294C61.4819 20.1936 61.4689 20.2445 61.4577 20.2823C61.4466 20.32 61.4392 20.3464 61.4355 20.3615C61.4317 20.3766 61.4299 20.3879 61.4299 20.3955H54.8831C53.3291 20.3955 52.2113 20.0181 51.5318 19.2616C50.8522 18.5069 50.5031 17.6032 50.4883 16.5561C50.4883 14.3166 51.2124 12.4715 52.6625 11.0244L52.6643 11.03Z" fill="#4E4E4F"/>
<path d="M67.9901 20.351C66.1074 20.1454 64.8615 19.3171 64.2562 17.8625C63.6509 16.4079 63.8069 14.6061 64.7278 12.4572C66.2968 9.79889 68.7346 8.56124 72.0377 8.74424H77.2736L77.1047 9.34798H77.1158L76.1967 13.0383L74.3586 20.3982H70.6935L67.9919 20.3529L67.9901 20.351ZM72.5427 13.0383H72.5316L72.8342 11.8082H71.0741C70.1327 11.8233 69.3696 12.0799 68.7866 12.5779C68.2036 13.076 67.8081 13.6703 67.5983 14.3608C67.2028 16.1909 67.8267 17.0946 69.4699 17.072H71.5104L72.5409 13.0383H72.5427Z" fill="#4E4E4F"/>
<path d="M88.4735 16.2621H84.8641L85.8834 11.8983H83.6182C82.0122 11.8832 80.9501 12.7831 80.4339 14.5981C80.3003 15.2961 80.3987 15.9225 80.731 16.4772C81.0634 17.0319 81.6854 17.3205 82.597 17.3432H88.2247L87.4393 20.3958H81.0374C79.5502 20.3732 78.4677 19.9864 77.7918 19.2336C77.116 18.4808 76.7502 17.579 76.6982 16.5225C76.7651 14.2679 77.4929 12.4152 78.878 10.9681C80.265 9.52106 81.9787 8.74942 84.0174 8.64942H86.6966L87.6157 5.12891H91.2252L88.4679 16.2583L88.4735 16.2621Z" fill="#4E4E4F"/>
<path d="M91.7359 7.66094C92.3115 5.97427 93.3735 5.13281 94.9201 5.13281H105.245L104.46 8.61937H98.4497V8.63069H95.5459C95.4642 8.63069 95.3787 8.66465 95.2933 8.73257C95.2079 8.80049 95.1467 8.89105 95.1077 9.00614L94.6583 11.023H100.713L99.9723 14.5095H93.8841L92.5844 20.3997H88.9062L91.7322 7.66283L91.7359 7.66094Z" fill="#34A487"/>
<path d="M105.317 20.351C103.435 20.1454 102.189 19.3171 101.583 17.8625C100.978 16.4079 101.134 14.6061 102.055 12.4572C103.624 9.79889 106.062 8.56124 109.365 8.74424H114.601L114.432 9.34798H114.443L113.524 13.0383L111.686 20.3982H108.019L105.317 20.3529V20.351ZM109.87 13.0383H109.859L110.161 11.8082H108.401C107.46 11.8233 106.697 12.0799 106.114 12.5779C105.531 13.076 105.135 13.6703 104.925 14.3608C104.53 16.1909 105.154 17.0946 106.797 17.072H108.838L109.868 13.0383H109.87Z" fill="#34A487"/>
<path d="M127.375 8.73257L128.233 5.13281H131.922C131.922 5.13281 131.92 5.14791 131.916 5.15545C131.913 5.163 131.907 5.17621 131.9 5.19507C131.892 5.21394 131.885 5.23847 131.877 5.26865C131.87 5.29884 131.861 5.33657 131.85 5.38185C131.839 5.42713 131.824 5.48185 131.805 5.54599C131.787 5.61014 131.768 5.68561 131.749 5.76862C131.731 5.85163 131.709 5.94597 131.683 6.04785C131.657 6.14973 131.627 6.26859 131.593 6.40065C131.56 6.53272 131.523 6.67988 131.482 6.83836C131.441 6.99684 131.398 7.1723 131.354 7.36285C131.309 7.5534 131.259 7.75905 131.202 7.98356C131.146 8.20808 131.085 8.44957 131.016 8.70616H133.662L132.934 12.0889H130.255C130.255 12.0889 130.253 12.104 130.249 12.1116C130.245 12.1191 130.242 12.1342 130.238 12.1569C130.234 12.1795 130.229 12.2078 130.221 12.2418C130.214 12.2757 130.205 12.3191 130.193 12.3719C130.182 12.4248 130.169 12.487 130.154 12.5606C130.14 12.6323 130.119 12.7191 130.093 12.8172C130.067 12.9153 130.039 13.0285 130.01 13.153C129.98 13.2775 129.947 13.4209 129.909 13.5794C129.872 13.7398 129.831 13.9152 129.787 14.1096C129.742 14.3039 129.692 14.5171 129.636 14.7529C129.581 14.9888 129.519 15.2435 129.451 15.517C129.384 15.7906 129.308 16.0906 129.226 16.417C129.204 16.6151 129.248 16.7886 129.36 16.9415C129.471 17.0943 129.633 17.1697 129.843 17.1697H131.761L131.02 20.394H128.496C127.488 20.394 126.69 19.996 126.103 19.1979C125.516 18.3998 125.331 17.4735 125.548 16.4188L126.656 11.7701H119.473C119.009 11.7475 118.745 11.9173 118.676 12.2833C118.647 12.5644 118.745 12.7512 118.973 12.8417C119.202 12.9323 119.514 12.9662 119.909 12.9436L121.4 12.8983C122.798 12.9436 123.723 13.3455 124.174 14.1001C124.625 14.8567 124.748 15.8642 124.538 17.1245C124.074 19.3885 122.538 20.4771 119.93 20.394H113.27L113.908 17.2263H119.816C120.444 17.2792 120.821 17.0829 120.949 16.6339C120.964 16.1396 120.602 15.917 119.861 15.9623H118.201C117.05 15.9396 116.17 15.5642 115.561 14.834C114.952 14.1058 114.762 13.0983 114.994 11.8154C115.659 9.59855 117.338 8.56843 120.028 8.7288H127.377L127.375 8.73257Z" fill="#34A487"/>
<mask id="mask0_7212_27707" style="mask-type:luminance" maskUnits="userSpaceOnUse" x="26" y="25" width="62" height="2">
<path d="M87.4017 25.8438H26.7002V26.6663H87.4017V25.8438Z" fill="white"/>
</mask>
<g mask="url(#mask0_7212_27707)">
<path d="M27.014 25.8438H26.7002V26.6663H27.014V25.8438Z" fill="#34A487"/>
<path d="M27.3275 25.8438H27.0137V26.6663H27.3275V25.8438Z" fill="#34A487"/>
<path d="M27.6419 25.8438H27.3281V26.6663H27.6419V25.8438Z" fill="#35A487"/>
<path d="M27.9573 25.8438H27.6436V26.6663H27.9573V25.8438Z" fill="#35A487"/>
<path d="M28.2708 25.8438H27.957V26.6663H28.2708V25.8438Z" fill="#36A488"/>
<path d="M28.5862 25.8438H28.2725V26.6663H28.5862V25.8438Z" fill="#37A588"/>
<path d="M28.9007 25.8438H28.5869V26.6663H28.9007V25.8438Z" fill="#37A588"/>
<path d="M29.2142 25.8438H28.9004V26.6663H29.2142V25.8438Z" fill="#38A588"/>
<path d="M29.5296 25.8438H29.2158V26.6663H29.5296V25.8438Z" fill="#39A588"/>
<path d="M29.8441 25.8438H29.5303V26.6663H29.8441V25.8438Z" fill="#3AA588"/>
<path d="M30.1595 25.8438H29.8457V26.6663H30.1595V25.8438Z" fill="#3BA589"/>
<path d="M30.473 25.8438H30.1592V26.6663H30.473V25.8438Z" fill="#3BA589"/>
<path d="M30.7864 25.8438H30.4727V26.6663H30.7864V25.8438Z" fill="#3CA689"/>
<path d="M31.1028 25.8438H30.7891V26.6663H31.1028V25.8438Z" fill="#3DA689"/>
<path d="M31.4163 25.8438H31.1025V26.6663H31.4163V25.8438Z" fill="#3EA68A"/>
<path d="M31.7318 25.8438H31.418V26.6663H31.7318V25.8438Z" fill="#3FA68A"/>
<path d="M32.0452 25.8438H31.7314V26.6663H32.0452V25.8438Z" fill="#40A68A"/>
<path d="M32.3597 25.8438H32.0459V26.6663H32.3597V25.8438Z" fill="#41A68A"/>
<path d="M32.6751 25.8438H32.3613V26.6663H32.6751V25.8438Z" fill="#42A78B"/>
<path d="M32.9886 25.8438H32.6748V26.6663H32.9886V25.8438Z" fill="#43A78B"/>
<path d="M33.305 25.8438H32.9912V26.6663H33.305V25.8438Z" fill="#43A78B"/>
<path d="M33.6185 25.8438H33.3047V26.6663H33.6185V25.8438Z" fill="#44A78C"/>
<path d="M33.9319 25.8438H33.6182V26.6663H33.9319V25.8438Z" fill="#45A78C"/>
<path d="M34.2474 25.8438H33.9336V26.6663H34.2474V25.8438Z" fill="#46A88C"/>
<path d="M34.5618 25.8438H34.248V26.6663H34.5618V25.8438Z" fill="#47A88C"/>
<path d="M34.8753 25.8438H34.5615V26.6663H34.8753V25.8438Z" fill="#48A88D"/>
<path d="M35.1907 25.8438H34.877V26.6663H35.1907V25.8438Z" fill="#49A88D"/>
<path d="M35.5052 25.8438H35.1914V26.6663H35.5052V25.8438Z" fill="#4AA98D"/>
<path d="M35.8206 25.8438H35.5068V26.6663H35.8206V25.8438Z" fill="#4BA98E"/>
<path d="M36.1341 25.8438H35.8203V26.6663H36.1341V25.8438Z" fill="#4CA98E"/>
<path d="M36.4476 25.8438H36.1338V26.6663H36.4476V25.8438Z" fill="#4DA98E"/>
<path d="M36.764 25.8438H36.4502V26.6663H36.764V25.8438Z" fill="#4EAA8F"/>
<path d="M37.0775 25.8438H36.7637V26.6663H37.0775V25.8438Z" fill="#4FAA8F"/>
<path d="M37.3929 25.8438H37.0791V26.6663H37.3929V25.8438Z" fill="#4FAA8F"/>
<path d="M37.7064 25.8438H37.3926V26.6663H37.7064V25.8438Z" fill="#50AA90"/>
<path d="M38.0208 25.8438H37.707V26.6663H38.0208V25.8438Z" fill="#51AB90"/>
<path d="M38.3362 25.8438H38.0225V26.6663H38.3362V25.8438Z" fill="#52AB90"/>
<path d="M38.6497 25.8438H38.3359V26.6663H38.6497V25.8438Z" fill="#53AB91"/>
<path d="M38.9652 25.8438H38.6514V26.6663H38.9652V25.8438Z" fill="#54AB91"/>
<path d="M39.2796 25.8438H38.9658V26.6663H39.2796V25.8438Z" fill="#55AC92"/>
<path d="M39.5931 25.8438H39.2793V26.6663H39.5931V25.8438Z" fill="#56AC92"/>
<path d="M39.9085 25.8438H39.5947V26.6663H39.9085V25.8438Z" fill="#57AC92"/>
<path d="M40.223 25.8438H39.9092V26.6663H40.223V25.8438Z" fill="#58AC93"/>
<path d="M40.5384 25.8438H40.2246V26.6663H40.5384V25.8438Z" fill="#59AD93"/>
<path d="M40.8519 25.8438H40.5381V26.6663H40.8519V25.8438Z" fill="#5AAD93"/>
<path d="M41.1663 25.8438H40.8525V26.6663H41.1663V25.8438Z" fill="#5BAD94"/>
<path d="M41.4818 25.8438H41.168V26.6663H41.4818V25.8438Z" fill="#5CAE94"/>
<path d="M41.7952 25.8438H41.4814V26.6663H41.7952V25.8438Z" fill="#5DAE95"/>
<path d="M42.1107 25.8438H41.7969V26.6663H42.1107V25.8438Z" fill="#5DAE95"/>
<path d="M42.4251 25.8438H42.1113V26.6663H42.4251V25.8438Z" fill="#5EAF96"/>
<path d="M42.7386 25.8438H42.4248V26.6663H42.7386V25.8438Z" fill="#5FAF96"/>
<path d="M43.054 25.8438H42.7402V26.6663H43.054V25.8438Z" fill="#60AF96"/>
<path d="M43.3675 25.8438H43.0537V26.6663H43.3675V25.8438Z" fill="#61AF97"/>
<path d="M43.6819 25.8438H43.3682V26.6663H43.6819V25.8438Z" fill="#62B097"/>
<path d="M43.9974 25.8438H43.6836V26.6663H43.9974V25.8438Z" fill="#63B098"/>
<path d="M44.3109 25.8438H43.9971V26.6663H44.3109V25.8438Z" fill="#64B098"/>
<path d="M44.6263 25.8438H44.3125V26.6663H44.6263V25.8438Z" fill="#65B199"/>
<path d="M44.9407 25.8438H44.627V26.6663H44.9407V25.8438Z" fill="#66B199"/>
<path d="M45.2542 25.8438H44.9404V26.6663H45.2542V25.8438Z" fill="#67B19A"/>
<path d="M45.5696 25.8438H45.2559V26.6663H45.5696V25.8438Z" fill="#68B29A"/>
<path d="M45.8841 25.8438H45.5703V26.6663H45.8841V25.8438Z" fill="#69B29A"/>
<path d="M46.1995 25.8438H45.8857V26.6663H46.1995V25.8438Z" fill="#6AB29B"/>
<path d="M46.513 25.8438H46.1992V26.6663H46.513V25.8438Z" fill="#6BB39B"/>
<path d="M46.8265 25.8438H46.5127V26.6663H46.8265V25.8438Z" fill="#6CB39C"/>
<path d="M47.1429 25.8438H46.8291V26.6663H47.1429V25.8438Z" fill="#6DB39C"/>
<path d="M47.4564 25.8438H47.1426V26.6663H47.4564V25.8438Z" fill="#6EB49D"/>
<path d="M47.7718 25.8438H47.458V26.6663H47.7718V25.8438Z" fill="#6FB49D"/>
<path d="M48.0862 25.8438H47.7725V26.6663H48.0862V25.8438Z" fill="#70B49E"/>
<path d="M48.3997 25.8438H48.0859V26.6663H48.3997V25.8438Z" fill="#71B59E"/>
<path d="M48.7152 25.8438H48.4014V26.6663H48.7152V25.8438Z" fill="#72B59F"/>
<path d="M49.0286 25.8438H48.7148V26.6663H49.0286V25.8438Z" fill="#73B69F"/>
<path d="M49.345 25.8438H49.0312V26.6663H49.345V25.8438Z" fill="#74B6A0"/>
<path d="M49.6585 25.8438H49.3447V26.6663H49.6585V25.8438Z" fill="#75B6A0"/>
<path d="M49.972 25.8438H49.6582V26.6663H49.972V25.8438Z" fill="#76B7A1"/>
<path d="M50.2874 25.8438H49.9736V26.6663H50.2874V25.8438Z" fill="#76B7A1"/>
<path d="M50.6019 25.8438H50.2881V26.6663H50.6019V25.8438Z" fill="#77B7A2"/>
<path d="M50.9173 25.8438H50.6035V26.6663H50.9173V25.8438Z" fill="#78B8A2"/>
<path d="M51.2308 25.8438H50.917V26.6663H51.2308V25.8438Z" fill="#79B8A3"/>
<path d="M51.5452 25.8438H51.2314V26.6663H51.5452V25.8438Z" fill="#7AB9A4"/>
<path d="M51.8607 25.8438H51.5469V26.6663H51.8607V25.8438Z" fill="#7BB9A4"/>
<path d="M52.1741 25.8438H51.8604V26.6663H52.1741V25.8438Z" fill="#7CB9A5"/>
<path d="M52.4896 25.8438H52.1758V26.6663H52.4896V25.8438Z" fill="#7DBAA5"/>
<path d="M52.804 25.8438H52.4902V26.6663H52.804V25.8438Z" fill="#7EBAA6"/>
<path d="M53.1175 25.8438H52.8037V26.6663H53.1175V25.8438Z" fill="#7FBBA6"/>
<path d="M53.4329 25.8438H53.1191V26.6663H53.4329V25.8438Z" fill="#80BBA7"/>
<path d="M53.7474 25.8438H53.4336V26.6663H53.7474V25.8438Z" fill="#81BBA7"/>
<path d="M54.0608 25.8438H53.7471V26.6663H54.0608V25.8438Z" fill="#82BCA8"/>
<path d="M54.3763 25.8438H54.0625V26.6663H54.3763V25.8438Z" fill="#83BCA9"/>
<path d="M54.6898 25.8438H54.376V26.6663H54.6898V25.8438Z" fill="#84BDA9"/>
<path d="M55.0062 25.8438H54.6924V26.6663H55.0062V25.8438Z" fill="#85BDAA"/>
<path d="M55.3196 25.8438H55.0059V26.6663H55.3196V25.8438Z" fill="#86BEAA"/>
<path d="M55.6331 25.8438H55.3193V26.6663H55.6331V25.8438Z" fill="#87BEAB"/>
<path d="M55.9486 25.8438H55.6348V26.6663H55.9486V25.8438Z" fill="#88BEAC"/>
<path d="M56.263 25.8438H55.9492V26.6663H56.263V25.8438Z" fill="#89BFAC"/>
<path d="M56.5784 25.8438H56.2646V26.6663H56.5784V25.8438Z" fill="#8ABFAD"/>
<path d="M56.8919 25.8438H56.5781V26.6663H56.8919V25.8438Z" fill="#8BC0AD"/>
<path d="M57.2064 25.8438H56.8926V26.6663H57.2064V25.8438Z" fill="#8CC0AE"/>
<path d="M57.5218 25.8438H57.208V26.6663H57.5218V25.8438Z" fill="#8DC1AF"/>
<path d="M57.8353 25.8438H57.5215V26.6663H57.8353V25.8438Z" fill="#8EC1AF"/>
<path d="M58.1507 25.8438H57.8369V26.6663H58.1507V25.8438Z" fill="#8FC1B0"/>
<path d="M58.4651 25.8438H58.1514V26.6663H58.4651V25.8438Z" fill="#90C2B0"/>
<path d="M58.7786 25.8438H58.4648V26.6663H58.7786V25.8438Z" fill="#91C2B1"/>
<path d="M59.0941 25.8438H58.7803V26.6663H59.0941V25.8438Z" fill="#92C3B2"/>
<path d="M59.4085 25.8438H59.0947V26.6663H59.4085V25.8438Z" fill="#93C3B2"/>
<path d="M59.7239 25.8438H59.4102V26.6663H59.7239V25.8438Z" fill="#94C4B3"/>
<path d="M60.0374 25.8438H59.7236V26.6663H60.0374V25.8438Z" fill="#95C4B4"/>
<path d="M60.3509 25.8438H60.0371V26.6663H60.3509V25.8438Z" fill="#96C5B4"/>
<path d="M60.6673 25.8438H60.3535V26.6663H60.6673V25.8438Z" fill="#97C5B5"/>
<path d="M60.9808 25.8438H60.667V26.6663H60.9808V25.8438Z" fill="#98C6B6"/>
<path d="M61.2962 25.8438H60.9824V26.6663H61.2962V25.8438Z" fill="#99C6B6"/>
<path d="M61.6097 25.8438H61.2959V26.6663H61.6097V25.8438Z" fill="#9AC7B7"/>
<path d="M61.9241 25.8438H61.6104V26.6663H61.9241V25.8438Z" fill="#9BC7B8"/>
<path d="M62.2396 25.8438H61.9258V26.6663H62.2396V25.8438Z" fill="#9CC8B8"/>
<path d="M62.553 25.8438H62.2393V26.6663H62.553V25.8438Z" fill="#9DC8B9"/>
<path d="M62.8675 25.8438H62.5537V26.6663H62.8675V25.8438Z" fill="#9FC9BA"/>
<path d="M63.1829 25.8438H62.8691V26.6663H63.1829V25.8438Z" fill="#A0C9BA"/>
<path d="M63.4964 25.8438H63.1826V26.6663H63.4964V25.8438Z" fill="#A1CABB"/>
<path d="M63.8118 25.8438H63.498V26.6663H63.8118V25.8438Z" fill="#A2CABC"/>
<path d="M64.1263 25.8438H63.8125V26.6663H64.1263V25.8438Z" fill="#A3CBBC"/>
<path d="M64.4398 25.8438H64.126V26.6663H64.4398V25.8438Z" fill="#A4CBBD"/>
<path d="M64.7552 25.8438H64.4414V26.6663H64.7552V25.8438Z" fill="#A5CCBE"/>
<path d="M65.0687 25.8438H64.7549V26.6663H65.0687V25.8438Z" fill="#A6CCBE"/>
<path d="M65.3851 25.8438H65.0713V26.6663H65.3851V25.8438Z" fill="#A7CDBF"/>
<path d="M65.6986 25.8438H65.3848V26.6663H65.6986V25.8438Z" fill="#A8CDC0"/>
<path d="M66.012 25.8438H65.6982V26.6663H66.012V25.8438Z" fill="#A9CEC1"/>
<path d="M66.3284 25.8438H66.0146V26.6663H66.3284V25.8438Z" fill="#AACFC1"/>
<path d="M66.6419 25.8438H66.3281V26.6663H66.6419V25.8438Z" fill="#ACCFC2"/>
<path d="M66.9573 25.8438H66.6436V26.6663H66.9573V25.8438Z" fill="#ADD0C3"/>
<path d="M67.2708 25.8438H66.957V26.6663H67.2708V25.8438Z" fill="#AED0C3"/>
<path d="M67.5853 25.8438H67.2715V26.6663H67.5853V25.8438Z" fill="#AFD1C4"/>
<path d="M67.9007 25.8438H67.5869V26.6663H67.9007V25.8438Z" fill="#B0D1C5"/>
<path d="M68.2142 25.8438H67.9004V26.6663H68.2142V25.8438Z" fill="#B1D2C6"/>
<path d="M68.5296 25.8438H68.2158V26.6663H68.5296V25.8438Z" fill="#B2D2C6"/>
<path d="M68.8441 25.8438H68.5303V26.6663H68.8441V25.8438Z" fill="#B3D3C7"/>
<path d="M69.1575 25.8438H68.8438V26.6663H69.1575V25.8438Z" fill="#B4D4C8"/>
<path d="M69.473 25.8438H69.1592V26.6663H69.473V25.8438Z" fill="#B6D4C9"/>
<path d="M69.7874 25.8438H69.4736V26.6663H69.7874V25.8438Z" fill="#B7D5C9"/>
<path d="M70.1028 25.8438H69.7891V26.6663H70.1028V25.8438Z" fill="#B8D5CA"/>
<path d="M70.4163 25.8438H70.1025V26.6663H70.4163V25.8438Z" fill="#B9D6CB"/>
<path d="M70.7298 25.8438H70.416V26.6663H70.7298V25.8438Z" fill="#BAD7CC"/>
<path d="M71.0462 25.8438H70.7324V26.6663H71.0462V25.8438Z" fill="#BBD7CC"/>
<path d="M71.3597 25.8438H71.0459V26.6663H71.3597V25.8438Z" fill="#BCD8CD"/>
<path d="M71.6732 25.8438H71.3594V26.6663H71.6732V25.8438Z" fill="#BED8CE"/>
<path d="M71.9896 25.8438H71.6758V26.6663H71.9896V25.8438Z" fill="#BFD9CF"/>
<path d="M72.303 25.8438H71.9893V26.6663H72.303V25.8438Z" fill="#C0DACF"/>
<path d="M72.6185 25.8438H72.3047V26.6663H72.6185V25.8438Z" fill="#C1DAD0"/>
<path d="M72.9319 25.8438H72.6182V26.6663H72.9319V25.8438Z" fill="#C2DBD1"/>
<path d="M73.2464 25.8438H72.9326V26.6663H73.2464V25.8438Z" fill="#C3DBD2"/>
<path d="M73.5618 25.8438H73.248V26.6663H73.5618V25.8438Z" fill="#C5DCD3"/>
<path d="M73.8753 25.8438H73.5615V26.6663H73.8753V25.8438Z" fill="#C6DDD3"/>
<path d="M74.1907 25.8438H73.877V26.6663H74.1907V25.8438Z" fill="#C7DDD4"/>
<path d="M74.5052 25.8438H74.1914V26.6663H74.5052V25.8438Z" fill="#C8DED5"/>
<path d="M74.8187 25.8438H74.5049V26.6663H74.8187V25.8438Z" fill="#C9DFD6"/>
<path d="M75.1341 25.8438H74.8203V26.6663H75.1341V25.8438Z" fill="#CADFD7"/>
<path d="M75.4486 25.8438H75.1348V26.6663H75.4486V25.8438Z" fill="#CCE0D8"/>
<path d="M75.764 25.8438H75.4502V26.6663H75.764V25.8438Z" fill="#CDE0D8"/>
<path d="M76.0775 25.8438H75.7637V26.6663H76.0775V25.8438Z" fill="#CEE1D9"/>
<path d="M76.3909 25.8438H76.0771V26.6663H76.3909V25.8438Z" fill="#CFE2DA"/>
<path d="M76.7073 25.8438H76.3936V26.6663H76.7073V25.8438Z" fill="#D0E2DB"/>
<path d="M77.0208 25.8438H76.707V26.6663H77.0208V25.8438Z" fill="#D1E3DC"/>
<path d="M77.3362 25.8438H77.0225V26.6663H77.3362V25.8438Z" fill="#D3E4DD"/>
<path d="M77.6507 25.8438H77.3369V26.6663H77.6507V25.8438Z" fill="#D4E4DD"/>
<path d="M77.9642 25.8438H77.6504V26.6663H77.9642V25.8438Z" fill="#D5E5DE"/>
<path d="M78.2796 25.8438H77.9658V26.6663H78.2796V25.8438Z" fill="#D6E6DF"/>
<path d="M78.5931 25.8438H78.2793V26.6663H78.5931V25.8438Z" fill="#D7E7E0"/>
<path d="M78.9095 25.8438H78.5957V26.6663H78.9095V25.8438Z" fill="#D9E7E1"/>
<path d="M79.223 25.8438H78.9092V26.6663H79.223V25.8438Z" fill="#DAE8E2"/>
<path d="M79.5364 25.8438H79.2227V26.6663H79.5364V25.8438Z" fill="#DBE9E3"/>
<path d="M79.8519 25.8438H79.5381V26.6663H79.8519V25.8438Z" fill="#DCE9E4"/>
<path d="M80.1663 25.8438H79.8525V26.6663H80.1663V25.8438Z" fill="#DEEAE5"/>
<path d="M80.4818 25.8438H80.168V26.6663H80.4818V25.8438Z" fill="#DFEBE6"/>
<path d="M80.7952 25.8438H80.4814V26.6663H80.7952V25.8438Z" fill="#E0ECE7"/>
<path d="M81.1097 25.8438H80.7959V26.6663H81.1097V25.8438Z" fill="#E1ECE7"/>
<path d="M81.4251 25.8438H81.1113V26.6663H81.4251V25.8438Z" fill="#E3EDE8"/>
<path d="M81.7386 25.8438H81.4248V26.6663H81.7386V25.8438Z" fill="#E4EEE9"/>
<path d="M82.0521 25.8438H81.7383V26.6663H82.0521V25.8438Z" fill="#E5EFEA"/>
<path d="M82.3685 25.8438H82.0547V26.6663H82.3685V25.8438Z" fill="#E7EFEB"/>
<path d="M82.6819 25.8438H82.3682V26.6663H82.6819V25.8438Z" fill="#E8F0EC"/>
<path d="M82.9974 25.8438H82.6836V26.6663H82.9974V25.8438Z" fill="#E9F1ED"/>
<path d="M83.3118 25.8438H82.998V26.6663H83.3118V25.8438Z" fill="#EBF2EE"/>
<path d="M83.6253 25.8438H83.3115V26.6663H83.6253V25.8438Z" fill="#ECF3EF"/>
<path d="M83.9407 25.8438H83.627V26.6663H83.9407V25.8438Z" fill="#EDF3F0"/>
<path d="M84.2542 25.8438H83.9404V26.6663H84.2542V25.8438Z" fill="#EFF4F1"/>
<path d="M84.5706 25.8438H84.2568V26.6663H84.5706V25.8438Z" fill="#F0F5F2"/>
<path d="M84.8841 25.8438H84.5703V26.6663H84.8841V25.8438Z" fill="#F1F6F3"/>
<path d="M85.1976 25.8438H84.8838V26.6663H85.1976V25.8438Z" fill="#F3F7F4"/>
<path d="M85.513 25.8438H85.1992V26.6663H85.513V25.8438Z" fill="#F4F8F6"/>
<path d="M85.8275 25.8438H85.5137V26.6663H85.8275V25.8438Z" fill="#F5F9F7"/>
<path d="M86.1429 25.8438H85.8291V26.6663H86.1429V25.8438Z" fill="#F7FAF8"/>
<path d="M86.4564 25.8438H86.1426V26.6663H86.4564V25.8438Z" fill="#F9FBFA"/>
<path d="M86.7708 25.8438H86.457V26.6663H86.7708V25.8438Z" fill="#FAFCFB"/>
<path d="M87.0862 25.8438H86.7725V26.6663H87.0862V25.8438Z" fill="#FDFEFD"/>
<path d="M87.3997 25.8438H87.0859V26.6663H87.3997V25.8438Z" fill="white"/>
</g>
</g>
<defs>
<clipPath id="clip0_7212_27707">
<rect width="133" height="28" fill="white" transform="translate(0.660156 0.5)"/>
</clipPath>
</defs>
</svg>
