<svg width="161" height="35" viewBox="0 0 161 35" fill="none" xmlns="http://www.w3.org/2000/svg">
<g clip-path="url(#clip0_7212_27930)">
<path d="M40.0192 18.1223C40.6144 18.9227 40.8887 19.9167 40.7884 20.9091C40.688 21.9015 40.2203 22.8204 39.4769 23.4855C38.3946 24.2728 37.0708 24.6565 35.7352 24.5701H28.2246V9.42415H35.4912C36.7873 9.3474 38.0713 9.71045 39.1353 10.4545C39.572 10.7968 39.9202 11.239 40.1504 11.7438C40.3807 12.2487 40.4863 12.8015 40.4585 13.3557C40.4998 14.1379 40.2667 14.9101 39.7994 15.5388C39.3321 16.1675 38.6599 16.6133 37.8989 16.7992C38.7419 16.9706 39.4947 17.4405 40.0192 18.1223ZM32.4273 15.4435H34.5585C35.643 15.4435 36.1473 15.0042 36.1473 14.1312C36.1473 13.2581 35.6051 12.7754 34.5585 12.7754H32.4273V15.4435ZM36.4727 19.8522C36.485 19.6556 36.4534 19.4588 36.3803 19.2759C36.3071 19.093 36.1942 18.9286 36.0497 18.7948C35.7087 18.5341 35.2851 18.4051 34.8567 18.4314H32.4273V21.1862H34.8784C35.9485 21.1862 36.4836 20.7416 36.4836 19.8522H36.4727Z" fill="#201B6D"/>
<path d="M42.6431 15.2689C43.0415 14.3852 43.6828 13.6329 44.4923 13.0998C45.2687 12.5975 46.176 12.3353 47.1007 12.346C47.8541 12.3219 48.601 12.4918 49.2698 12.8395C49.8489 13.1485 50.3326 13.6098 50.6689 14.1735V12.4978H54.877V24.5799H50.6635V22.9042C50.3245 23.4696 49.8368 23.931 49.2535 24.2382C48.5845 24.5852 47.8377 24.7551 47.0844 24.7317C46.1597 24.7424 45.2524 24.4802 44.476 23.9779C43.6663 23.445 43.025 22.6927 42.6269 21.8088C42.1588 20.7891 41.9271 19.6769 41.949 18.5551C41.9243 17.4209 42.1619 16.2963 42.6431 15.2689ZM50.0181 16.7114C49.8157 16.5006 49.5728 16.3329 49.304 16.2183C49.0351 16.1038 48.7459 16.0447 48.4537 16.0447C48.1614 16.0447 47.8722 16.1038 47.6034 16.2183C47.3345 16.3329 47.0916 16.5006 46.8892 16.7114C46.448 17.2185 46.224 17.8788 46.2656 18.5497C46.228 19.22 46.4515 19.8789 46.8892 20.388C47.0863 20.607 47.3284 20.7809 47.5988 20.8979C47.8693 21.0149 48.1618 21.0722 48.4564 21.0659C48.749 21.0714 49.0396 21.0147 49.3088 20.8998C49.578 20.7848 49.8197 20.6141 50.0181 20.3989C50.4644 19.8898 50.6923 19.2255 50.6526 18.5497C50.67 18.2151 50.621 17.8804 50.5083 17.5649C50.3957 17.2494 50.2217 16.9593 49.9965 16.7114H50.0181Z" fill="#201B6D"/>
<path d="M68.478 13.7994C69.3435 14.8519 69.7811 16.1916 69.7036 17.552V24.6017H65.4901V18.1106C65.522 17.5192 65.3282 16.9377 64.9478 16.4837C64.7638 16.2876 64.5397 16.1333 64.2909 16.0313C64.042 15.9293 63.7741 15.882 63.5053 15.8926C63.2298 15.8789 62.9545 15.9246 62.6981 16.0266C62.4418 16.1286 62.2103 16.2845 62.0195 16.4837C61.6391 16.9377 61.4453 17.5192 61.4772 18.1106V24.58H57.2637V12.5196H61.4772V14.2387C61.8644 13.6814 62.3819 13.2272 62.9847 12.9155C63.6547 12.5699 64.4002 12.3966 65.1539 12.4112C65.7763 12.3809 66.3977 12.4899 66.9727 12.73C67.5477 12.9702 68.062 13.3355 68.478 13.7994Z" fill="#201B6D"/>
<path d="M78.6129 12.8694C79.1972 13.1751 79.6853 13.6369 80.0228 14.2035V12.5278H84.2363V24.458C84.2618 25.5091 84.0505 26.5526 83.6181 27.511C83.1837 28.4201 82.4842 29.1763 81.6117 29.6802C80.5555 30.2606 79.3617 30.5437 78.1573 30.499C76.5622 30.5804 74.9867 30.1177 73.689 29.1867C73.1374 28.7595 72.682 28.221 72.3522 27.6062C72.0224 26.9915 71.8256 26.3142 71.7747 25.6185H75.9231C75.9626 25.805 76.0403 25.9813 76.1513 26.1363C76.2624 26.2912 76.4045 26.4214 76.5685 26.5187C76.9737 26.7498 77.4364 26.8608 77.9025 26.8386C79.3486 26.8386 80.0716 26.036 80.0716 24.4309V22.8854C79.7341 23.452 79.246 23.9138 78.6617 24.2194C78.0026 24.5619 77.2675 24.7316 76.5251 24.7129C75.5987 24.7237 74.6896 24.4615 73.9113 23.9591C73.1016 23.4261 72.4602 22.6738 72.0621 21.79C71.5965 20.7695 71.3649 19.6578 71.3843 18.5363C71.3622 17.4145 71.5939 16.3022 72.0621 15.2826C72.4605 14.3989 73.1018 13.6466 73.9113 13.1135C74.6896 12.611 75.5987 12.3489 76.5251 12.3597C77.2525 12.3541 77.9699 12.5293 78.6129 12.8694ZM79.3883 16.7196C79.1859 16.5089 78.943 16.3412 78.6741 16.2266C78.4053 16.1121 78.1161 16.053 77.8238 16.053C77.5316 16.053 77.2424 16.1121 76.9735 16.2266C76.7047 16.3412 76.4618 16.5089 76.2594 16.7196C75.8207 17.2282 75.5971 17.8875 75.6357 18.558C75.6005 19.228 75.8237 19.886 76.2594 20.3963C76.4618 20.6071 76.7047 20.7748 76.9735 20.8893C77.2424 21.0039 77.5316 21.0629 77.8238 21.0629C78.1161 21.0629 78.4053 21.0039 78.6741 20.8893C78.943 20.7748 79.1859 20.6071 79.3883 20.3963C79.8346 19.8872 80.0625 19.2229 80.0228 18.5471C80.0623 17.8762 79.8341 17.2171 79.3883 16.7142V16.7196Z" fill="#201B6D"/>
<path d="M90.8635 8.67188V24.5824H86.6445V8.67188H90.8635Z" fill="#201B6D"/>
<path d="M93.26 15.2689C93.6583 14.3852 94.2996 13.6329 95.1091 13.0998C95.8856 12.5975 96.7928 12.3353 97.7175 12.346C98.4709 12.3219 99.2178 12.4918 99.8866 12.8395C100.466 13.1485 100.949 13.6098 101.286 14.1735V12.4978H105.499V24.5799H101.286V22.9042C100.952 23.4741 100.468 23.9412 99.8866 24.2545C99.2257 24.597 98.4888 24.7667 97.7446 24.748C96.82 24.7587 95.9127 24.4965 95.1363 23.9942C94.3265 23.4613 93.6852 22.7089 93.2871 21.8251C92.819 20.8054 92.5873 19.6932 92.6092 18.5714C92.5685 17.4351 92.7912 16.3048 93.26 15.2689ZM100.635 16.7114C100.433 16.5006 100.19 16.3329 99.9208 16.2183C99.652 16.1038 99.3627 16.0447 99.0705 16.0447C98.7783 16.0447 98.4891 16.1038 98.2202 16.2183C97.9514 16.3329 97.7084 16.5006 97.506 16.7114C97.0648 17.2185 96.8408 17.8788 96.8824 18.5497C96.8449 19.22 97.0684 19.8789 97.506 20.388C97.7027 20.6076 97.9447 20.7819 98.2152 20.8989C98.4858 21.0159 98.7785 21.0729 99.0732 21.0659C99.3659 21.0714 99.6564 21.0147 99.9256 20.8998C100.195 20.7848 100.437 20.6141 100.635 20.3989C101.081 19.8898 101.309 19.2255 101.269 18.5497C101.29 18.2166 101.244 17.8828 101.135 17.5674C101.026 17.2519 100.856 16.961 100.635 16.7114Z" fill="#201B6D"/>
<path d="M118.069 10.3785C119.233 10.9825 120.194 11.9137 120.835 13.0573C121.497 14.2624 121.831 15.6197 121.806 16.9943C121.827 18.3612 121.489 19.7097 120.824 20.9042C120.175 22.0537 119.212 22.9944 118.048 23.6156C116.766 24.2874 115.335 24.6232 113.888 24.5917H107.891V9.42406H113.888C115.339 9.39169 116.776 9.71962 118.069 10.3785ZM116.47 19.8521C116.834 19.4754 117.116 19.0265 117.297 18.5344C117.479 18.0422 117.555 17.5177 117.522 16.9943C117.555 16.4652 117.479 15.9348 117.298 15.4364C117.117 14.9381 116.835 14.4826 116.47 14.0985C116.077 13.7457 115.619 13.474 115.121 13.299C114.623 13.124 114.095 13.0493 113.568 13.079H112.104V20.8608H113.568C114.631 20.922 115.674 20.5593 116.47 19.8521Z" fill="#F04E23"/>
<path d="M129.631 13.016C130.286 12.6203 131.036 12.4121 131.8 12.4141V16.9096H130.618C129.895 16.8576 129.176 17.0485 128.574 17.4519C128.33 17.6936 128.143 17.9875 128.029 18.3115C127.914 18.6355 127.874 18.9812 127.912 19.3227V24.5883H123.693V12.5225H127.912V14.6483C128.359 13.985 128.946 13.4278 129.631 13.016Z" fill="#F04E23"/>
<path d="M153.388 12.8662C154.045 12.5224 154.778 12.3525 155.519 12.3727C156.445 12.3625 157.354 12.6246 158.133 13.1265C158.941 13.6612 159.582 14.413 159.982 15.2956C160.45 16.3152 160.682 17.4275 160.66 18.5493C160.679 19.6708 160.448 20.7825 159.982 21.803C159.582 22.6857 158.941 23.4376 158.133 23.9721C157.354 24.474 156.445 24.7361 155.519 24.7259C154.782 24.746 154.052 24.576 153.399 24.2324C152.821 23.9174 152.335 23.4577 151.989 22.8984V30.3385H147.775V12.5191H151.989V14.1948C152.326 13.6331 152.81 13.1738 153.388 12.8662ZM155.741 16.7055C155.539 16.4964 155.297 16.3302 155.029 16.2166C154.761 16.1031 154.473 16.0445 154.182 16.0445C153.892 16.0445 153.604 16.1031 153.336 16.2166C153.068 16.3302 152.826 16.4964 152.623 16.7055C152.181 17.2085 151.954 17.8644 151.989 18.533C151.952 19.2084 152.18 19.8717 152.623 20.3822C152.822 20.5974 153.064 20.7681 153.333 20.8831C153.602 20.9981 153.892 21.0547 154.185 21.0492C154.478 21.0539 154.768 20.9959 155.037 20.879C155.305 20.762 155.546 20.589 155.741 20.3714C156.185 19.865 156.413 19.2052 156.376 18.533C156.415 17.8622 156.187 17.2033 155.741 16.7001V16.7055Z" fill="#F04E23"/>
<path d="M137.684 14.9295C137.794 14.9307 137.902 14.9586 137.998 15.0108L142.759 17.7602C142.854 17.8157 142.932 17.895 142.987 17.9901C143.041 18.0852 143.07 18.1929 143.07 18.3025C143.07 18.412 143.041 18.5197 142.987 18.6148C142.932 18.71 142.854 18.7892 142.759 18.8447L137.998 21.5941C137.903 21.651 137.794 21.6815 137.684 21.6824C137.573 21.6834 137.464 21.6548 137.368 21.5995C137.271 21.5443 137.192 21.4644 137.137 21.3681C137.082 21.2719 137.053 21.1627 137.055 21.0518V15.5802C137.054 15.4974 137.07 15.4153 137.101 15.3386C137.132 15.262 137.179 15.1923 137.237 15.1338C137.296 15.0752 137.366 15.0289 137.442 14.9976C137.519 14.9662 137.601 14.9504 137.684 14.9512M137.684 11.6975C136.661 11.6989 135.68 12.1063 134.957 12.8303C134.234 13.5542 133.828 14.5354 133.828 15.5585V21.0572C133.828 21.7338 134.006 22.3984 134.344 22.9843C134.683 23.5703 135.169 24.0569 135.755 24.3954C136.34 24.7339 137.005 24.9123 137.681 24.9127C138.358 24.9131 139.023 24.7355 139.609 24.3977L144.375 21.6483C144.961 21.309 145.447 20.8218 145.785 20.2355C146.122 19.6493 146.3 18.9845 146.3 18.3079C146.3 17.6312 146.122 16.9665 145.785 16.3802C145.447 15.7939 144.961 15.3067 144.375 14.9674L139.609 12.2181C139.027 11.8699 138.362 11.6828 137.684 11.6758V11.6975Z" fill="#F04E23"/>
<path d="M19.895 18.916L8.02987 12.067C7.28324 11.6314 6.43482 11.4008 5.57044 11.3985C4.70606 11.3961 3.85639 11.6221 3.10739 12.0535C2.35839 12.485 1.73664 13.1066 1.30502 13.8555C0.873411 14.6044 0.647252 15.4541 0.64943 16.3184V30.0219C0.648366 30.8847 0.874775 31.7325 1.30583 32.4799C1.73689 33.2272 2.35736 33.8478 3.1047 34.2789C3.85204 34.7101 4.69983 34.9366 5.56261 34.9356C6.42539 34.9346 7.27266 34.7062 8.01903 34.2734L19.8841 27.4244C20.6293 26.992 21.2479 26.3714 21.6779 25.6248C22.1078 24.8782 22.3342 24.0317 22.3342 23.1702C22.3342 22.3086 22.1078 21.4621 21.6779 20.7155C21.2479 19.9689 20.6293 19.3484 19.8841 18.916H19.895ZM17.0805 24.2249L7.1568 29.9622C6.97308 30.0717 6.76331 30.1298 6.54945 30.1303C6.38876 30.1303 6.22965 30.0986 6.08127 30.037C5.93288 29.9753 5.79813 29.8849 5.68476 29.7711C5.57139 29.6572 5.48163 29.522 5.42063 29.3734C5.35963 29.2247 5.3286 29.0655 5.32931 28.9048V17.4355C5.32608 17.2204 5.3803 17.0083 5.48638 16.8211C5.59247 16.6339 5.74658 16.4784 5.93281 16.3707C6.11905 16.2629 6.33066 16.2068 6.54582 16.2081C6.76098 16.2094 6.97189 16.2681 7.1568 16.3781L17.0805 22.1154C17.2665 22.2217 17.4211 22.3752 17.5286 22.5604C17.6361 22.7456 17.6927 22.956 17.6927 23.1702C17.6927 23.3843 17.6361 23.5947 17.5286 23.7799C17.4211 23.9652 17.2665 24.1187 17.0805 24.2249Z" fill="#F04E23"/>
<path d="M5.31821 9.82044V5.75875C5.3175 5.60046 5.34814 5.44359 5.40839 5.29721C5.46864 5.15082 5.55728 5.01783 5.66922 4.9059C5.78115 4.79396 5.91415 4.70531 6.06053 4.64506C6.20691 4.58482 6.36378 4.55417 6.52208 4.55489C6.73186 4.55498 6.93781 4.61115 7.11859 4.71758L16.8796 10.3627C17.062 10.4686 17.2134 10.6205 17.3186 10.8032C17.4238 10.9859 17.4792 11.1931 17.4792 11.4039C17.4792 11.6148 17.4238 11.8219 17.3186 12.0046C17.2134 12.1873 17.062 12.3392 16.8796 12.4451L14.3689 13.893L18.859 16.4851L19.1193 16.3278C19.9842 15.8293 20.7026 15.1118 21.2021 14.2474C21.7016 13.383 21.9646 12.4022 21.9646 11.4039C21.9646 10.4056 21.7016 9.42484 21.2021 8.56044C20.7026 7.69605 19.9842 6.97849 19.1193 6.47999L9.3582 0.834841C8.49396 0.334599 7.51317 0.070905 6.5146 0.0703135C5.51602 0.069722 4.53491 0.332255 3.67008 0.831473C2.80525 1.33069 2.08722 2.04897 1.5883 2.91398C1.08938 3.77899 0.82719 4.76018 0.828128 5.75875V11.8703C1.99441 10.6195 3.60916 9.8823 5.31821 9.82044Z" fill="#201B6D"/>
</g>
<defs>
<clipPath id="clip0_7212_27930">
<rect width="160" height="34.8632" fill="white" transform="translate(0.660156 0.0703125)"/>
</clipPath>
</defs>
</svg>
