<svg width="53" height="52" viewBox="0 0 53 52" fill="none" xmlns="http://www.w3.org/2000/svg">
<path d="M23.2857 10.5508C23.1532 10.3872 23.0902 10.1781 23.1101 9.96853C23.13 9.75893 23.2312 9.56548 23.3921 9.42967C23.553 9.29387 23.7607 9.22653 23.9707 9.24211C24.1806 9.25768 24.3761 9.35493 24.5152 9.51298L25.5377 10.7237L28.1458 7.6352C28.2848 7.47689 28.4804 7.37942 28.6905 7.36372C28.9006 7.34803 29.1084 7.41535 29.2695 7.55125C29.4305 7.68714 29.5317 7.88075 29.5515 8.09051C29.5714 8.30026 29.5081 8.50942 29.3754 8.67305L26.1526 12.4894C26.0759 12.577 25.9813 12.6473 25.8753 12.6953C25.7693 12.7434 25.6542 12.7683 25.5378 12.7683C25.4213 12.7683 25.3063 12.7434 25.2002 12.6953C25.0942 12.6473 24.9997 12.577 24.923 12.4894L23.2857 10.5508ZM12.9672 40.7803L11.0766 42.679L10.3927 41.9952C10.2412 41.8489 10.0384 41.7679 9.82782 41.7694C9.61723 41.7709 9.41561 41.8548 9.26619 42.0032C9.11676 42.1516 9.03141 42.3526 9.02845 42.5632C9.02549 42.7738 9.10514 42.9771 9.25034 43.1296L10.5054 44.3847C10.6581 44.5337 10.8631 44.6171 11.0766 44.6171C11.29 44.6171 11.495 44.5337 11.6478 44.3847C14.1418 41.8745 14.174 41.8343 14.2062 41.7941C11.6478 44.3847 14.1097 41.9147 14.1097 41.9147C14.25 41.7613 14.3256 41.5595 14.3207 41.3516C14.3157 41.1437 14.2305 40.9458 14.0829 40.7992C13.9353 40.6527 13.7368 40.5689 13.5289 40.5654C13.3209 40.5619 13.1197 40.6389 12.9672 40.7803ZM43.5706 39.8385C43.4959 39.7637 43.4072 39.7045 43.3096 39.664C43.212 39.6236 43.1074 39.6028 43.0018 39.6028C42.8961 39.6028 42.7915 39.6236 42.6939 39.664C42.5963 39.7045 42.5076 39.7637 42.433 39.8385L41.3181 40.9535L40.2032 39.8385C40.0523 39.6876 39.8477 39.6028 39.6344 39.6028C39.421 39.6028 39.2164 39.6876 39.0655 39.8385C38.9147 39.9893 38.8299 40.1939 38.8299 40.4073C38.8299 40.6206 38.9147 40.8253 39.0655 40.9761L40.1805 42.0912L39.0655 43.2063C38.9908 43.281 38.9316 43.3697 38.8912 43.4673C38.8507 43.5649 38.8299 43.6695 38.8299 43.7751C38.8299 43.8808 38.8507 43.9854 38.8912 44.083C38.9316 44.1806 38.9908 44.2692 39.0655 44.3439C39.1402 44.4186 39.2289 44.4779 39.3265 44.5183C39.4241 44.5588 39.5287 44.5796 39.6344 44.5796C39.74 44.5796 39.8446 44.5588 39.9422 44.5183C40.0398 44.4779 40.1285 44.4186 40.2032 44.3439L41.3181 43.2289L42.433 44.3439C42.5077 44.4186 42.5963 44.4779 42.6939 44.5183C42.7915 44.5588 42.8961 44.5796 43.0018 44.5796C43.1074 44.5796 43.212 44.5588 43.3096 44.5183C43.4072 44.4779 43.4959 44.4186 43.5706 44.3439C43.6453 44.2692 43.7046 44.1806 43.745 44.083C43.7854 43.9854 43.8062 43.8808 43.8062 43.7751C43.8062 43.6695 43.7854 43.5649 43.745 43.4673C43.7046 43.3697 43.6453 43.281 43.5706 43.2063L42.4557 42.0912L43.5706 40.9761C43.6453 40.9014 43.7046 40.8128 43.7451 40.7152C43.7855 40.6176 43.8063 40.513 43.8063 40.4073C43.8063 40.3017 43.7855 40.197 43.7451 40.0994C43.7046 40.0018 43.6453 39.9131 43.5706 39.8385ZM46.822 42.0916C46.6428 49.0022 36.7638 49.5149 35.8562 42.6951H31.3347V43.7088C31.3348 43.9202 31.2932 44.1294 31.2124 44.3247C31.1315 44.5199 31.013 44.6973 30.8636 44.8468C30.7141 44.9962 30.5367 45.1147 30.3415 45.1956C30.1462 45.2764 29.937 45.318 29.7256 45.3179H22.9354C22.7241 45.318 22.5148 45.2764 22.3195 45.1956C22.1243 45.1147 21.9469 44.9962 21.7975 44.8468C21.648 44.6973 21.5295 44.5199 21.4487 44.3247C21.3678 44.1294 21.3263 43.9202 21.3263 43.7088V42.6951H17.5128C16.9534 50.2289 6.08289 50.004 5.83911 42.4298C5.97186 35.5011 15.6956 34.4416 17.3681 41.0861H21.3264V40.0724C21.3263 39.861 21.3679 39.6518 21.4487 39.4565C21.5296 39.2613 21.6481 39.0839 21.7975 38.9344C21.9469 38.785 22.1243 38.6665 22.3196 38.5856C22.5148 38.5048 22.7241 38.4632 22.9354 38.4633H25.526V32.6143H10.1514C10.0055 32.6154 9.86223 32.5761 9.7373 32.5009C9.61237 32.4256 9.51065 32.3173 9.44337 32.1879C9.37432 32.0591 9.34159 31.914 9.34867 31.768C9.35576 31.6221 9.4024 31.4808 9.4836 31.3593C9.55387 31.3124 12.3157 27.062 12.388 27.2562V10.2483C12.3886 10.0351 12.4736 9.83088 12.6243 9.68014C12.775 9.5294 12.9793 9.44443 13.1925 9.44379H20.031C20.9426 1.88279 31.7157 1.87734 32.63 9.44379H39.4685C39.6817 9.44443 39.886 9.5294 40.0367 9.68014C40.1875 9.83088 40.2724 10.0351 40.2731 10.2483V27.2561C40.3279 27.0474 43.1178 31.3203 43.1774 31.3593C43.2586 31.4808 43.3053 31.6221 43.3124 31.768C43.3195 31.914 43.2867 32.0591 43.2177 32.1879C43.1504 32.3173 43.0487 32.4256 42.9237 32.5009C42.7988 32.5761 42.6555 32.6154 42.5097 32.6143H27.135V38.4633H29.7256C29.937 38.4632 30.1462 38.5048 30.3415 38.5856C30.5367 38.6665 30.7141 38.785 30.8636 38.9344C31.013 39.0839 31.1315 39.2613 31.2124 39.4565C31.2932 39.6518 31.3348 39.861 31.3347 40.0724V41.0861H35.9125C37.2473 34.5956 46.6728 35.4192 46.822 42.0916ZM11.68 38.1978C6.08815 38.3754 6.08818 46.4835 11.68 46.6615C17.2698 46.4869 17.2874 38.3856 11.68 38.1978ZM21.616 10.2563C22.0241 16.2428 30.636 16.2442 31.0451 10.2564C31.0688 3.75324 21.591 3.75603 21.616 10.2563ZM13.997 27.1516H38.664V11.0529H32.5817C31.3579 18.1161 21.3056 18.121 20.0793 11.0529H13.997V27.1516ZM40.9891 31.0053L39.4605 28.7606H13.2005L11.6719 31.0053H40.9891ZM29.7337 43.7088C29.7277 42.7945 29.7239 40.987 29.7256 40.0724H22.9354V43.7088H29.7337ZM41.319 38.1978C36.171 38.3654 36.1768 45.8222 41.319 45.9857C46.4646 45.8241 46.4646 38.3597 41.319 38.1978Z" fill="black"/>
</svg>
