<svg width="50" height="50" viewBox="0 0 50 50" fill="none" xmlns="http://www.w3.org/2000/svg">
<path d="M25 25H47.7507" stroke="black" stroke-width="2" stroke-miterlimit="10" stroke-linecap="round" stroke-linejoin="round"/>
<path d="M45.3984 21.8619L48.5364 24.9999L45.3984 28.1379" stroke="black" stroke-width="2" stroke-miterlimit="10" stroke-linecap="round" stroke-linejoin="round"/>
<path d="M23.04 30.8838C26.2896 30.8838 28.9238 28.2495 28.9238 25C28.9238 21.7505 26.2896 19.1162 23.04 19.1162C19.7905 19.1162 17.1562 21.7505 17.1562 25C17.1562 28.2495 19.7905 30.8838 23.04 30.8838Z" stroke="black" stroke-width="2" stroke-miterlimit="10" stroke-linecap="round" stroke-linejoin="round"/>
<path d="M21.8606 37.552C28.793 37.552 34.4127 31.9322 34.4127 24.9999C34.4127 18.0676 28.793 12.4479 21.8606 12.4479C14.9283 12.4479 9.30859 18.0676 9.30859 24.9999C9.30859 31.9322 14.9283 37.552 21.8606 37.552Z" stroke="black" stroke-width="2" stroke-miterlimit="10" stroke-linecap="round" stroke-linejoin="round"/>
<path d="M20.6853 44.2204C31.3004 44.2204 39.9057 35.6151 39.9057 25C39.9057 14.3848 31.3004 5.77954 20.6853 5.77954C10.0701 5.77954 1.46484 14.3848 1.46484 25C1.46484 35.6151 10.0701 44.2204 20.6853 44.2204Z" stroke="black" stroke-width="2" stroke-miterlimit="10" stroke-linecap="round" stroke-linejoin="round"/>
</svg>
