<svg width="52" height="51" viewBox="0 0 52 51" fill="none" xmlns="http://www.w3.org/2000/svg">
<g clip-path="url(#clip0_20924_8232)">
<path d="M46.7736 29.5866C49.1786 27.5622 49.4866 23.9719 47.4622 21.5668C45.4378 19.1618 41.8475 18.8538 39.4425 20.8782C37.0375 22.9026 36.7295 26.4929 38.7538 28.898C38.9633 29.1469 39.1941 29.3771 39.4425 29.5866C36.8008 30.9548 35.1421 33.6807 35.1395 36.6557V39.9569C34.0696 37.8657 32.313 36.2057 30.1648 35.2558C33.1683 32.9733 33.7532 28.6885 31.4707 25.685C29.1883 22.6815 24.9035 22.0966 21.9 24.3791C18.8964 26.6615 18.3116 30.9463 20.594 33.9498C20.9682 34.4426 21.4078 34.8816 21.9 35.2558C19.7517 36.2064 17.9958 37.8663 16.9252 39.9569V36.6557C16.9226 33.6807 15.264 30.9548 12.6223 29.5866C15.0273 27.5622 15.3353 23.9719 13.3109 21.5668C11.2865 19.1618 7.69617 18.8538 5.29116 20.8782C2.88615 22.9026 2.57815 26.4929 4.60253 28.898C4.81197 29.1469 5.04281 29.3771 5.29116 29.5866C2.65077 30.9548 0.992096 33.6807 0.989502 36.6557V41.209C0.989502 41.8379 1.49916 42.3476 2.12814 42.3476H15.7885C15.8793 42.3593 15.9707 42.3593 16.0615 42.3476C15.8871 43.0939 15.7957 43.8578 15.7885 44.6242V49.1775C15.7885 49.8065 16.2982 50.3161 16.9272 50.3161H35.1408C35.7698 50.3161 36.2794 49.8065 36.2794 49.1775V44.6242C36.2717 43.8578 36.1802 43.0939 36.0065 42.3476C36.0972 42.3593 36.1887 42.3593 36.2794 42.3476H49.9398C50.5688 42.3476 51.0785 41.8379 51.0785 41.209V36.6557C51.0746 33.6807 49.4153 30.9548 46.7736 29.5866ZM5.54275 25.272C5.54275 23.3857 7.07174 21.8567 8.95801 21.8567C10.8443 21.8567 12.3733 23.3857 12.3733 25.272C12.3733 27.1582 10.8443 28.6872 8.95801 28.6872C7.07174 28.6872 5.54275 27.1582 5.54275 25.272ZM14.6499 40.0703H3.26613V36.6551C3.26613 33.5115 5.81444 30.9632 8.95801 30.9632C12.1016 30.9632 14.6499 33.5115 14.6499 36.6551V40.0703ZM21.4798 29.8252C21.4798 27.3106 23.5184 25.272 26.033 25.272C28.5476 25.272 30.5863 27.3106 30.5863 29.8252C30.5863 32.3398 28.5476 34.3785 26.033 34.3785C23.5184 34.3785 21.4798 32.3404 21.4798 29.8252ZM34.0015 48.0388H18.0645V44.6236C18.0645 40.2227 21.6322 36.6551 26.033 36.6551C30.4339 36.6551 34.0015 40.2227 34.0015 44.6236V48.0388ZM39.6934 25.272C39.6934 23.3857 41.2224 21.8567 43.1087 21.8567C44.9949 21.8567 46.5239 23.3857 46.5239 25.272C46.5239 27.1582 44.9949 28.6872 43.1087 28.6872C41.2224 28.6872 39.6934 27.1582 39.6934 25.272ZM48.7999 40.0703H37.4168V36.6551C37.4168 33.5115 39.9651 30.9632 43.1087 30.9632C46.2522 30.9632 48.8006 33.5115 48.8006 36.6551L48.7999 40.0703Z" fill="black"/>
<path d="M26.0331 0.228516C22.2612 0.235 19.2084 3.29881 19.2149 7.07071C19.2194 9.50166 20.5149 11.7472 22.6178 12.9668V15.0275C22.6178 16.9138 24.1468 18.4428 26.0331 18.4428C27.9193 18.4428 29.4483 16.9138 29.4483 15.0275V12.9668C32.7112 11.0741 33.8219 6.89434 31.9292 3.63146C30.7095 1.52861 28.464 0.233055 26.0331 0.228516ZM27.1717 15.0269C27.1717 15.6559 26.662 16.1655 26.0331 16.1655C25.4041 16.1655 24.8944 15.6559 24.8944 15.0269V13.7858C25.6472 13.9226 26.4182 13.9226 27.171 13.7858L27.1717 15.0269ZM27.1717 11.4528V9.80188L29.1183 7.86698C29.5644 7.42086 29.5644 6.69722 29.1183 6.25045C28.6722 5.80368 27.9485 5.80433 27.5017 6.25045L26.0331 7.73016L24.5644 6.25045C24.1183 5.80433 23.3946 5.80433 22.9478 6.25045C22.5011 6.69657 22.5017 7.42021 22.9478 7.86698L24.8944 9.80188V11.4528C22.4596 10.8238 20.9954 8.34033 21.6238 5.90549C22.2527 3.47065 24.7362 2.0065 27.171 2.63483C29.6059 3.26315 31.07 5.74727 30.4417 8.18211C30.028 9.78632 28.7752 11.0384 27.1717 11.4528Z" fill="black"/>
<path d="M43.1086 18.4421C43.7376 18.4421 44.2472 17.9324 44.2472 17.3034V15.0268C44.2472 14.3978 43.7376 13.8882 43.1086 13.8882H31.7248C31.0958 13.8882 30.5862 14.3978 30.5862 15.0268C30.5862 15.6558 31.0958 16.1655 31.7248 16.1655H41.97V17.3041C41.97 17.9324 42.4796 18.4421 43.1086 18.4421Z" fill="black"/>
<path d="M7.81934 15.027V17.3036C7.81934 17.9326 8.329 18.4422 8.95797 18.4422C9.58695 18.4422 10.0966 17.9326 10.0966 17.3036V16.165H20.3417C20.9707 16.165 21.4804 15.6553 21.4804 15.0263C21.4804 14.3974 20.9707 13.8877 20.3417 13.8877H8.95797C8.329 13.889 7.81934 14.3987 7.81934 15.027Z" fill="black"/>
</g>
<defs>
<clipPath id="clip0_20924_8232">
<rect width="50.087" height="50.087" fill="white" transform="translate(0.989502 0.228516)"/>
</clipPath>
</defs>
</svg>
