<svg width="40" height="40" viewBox="0 0 40 40" fill="none" xmlns="http://www.w3.org/2000/svg">
<path d="M29.3945 25.2461C29.3945 25.4102 29.3828 25.5703 29.3633 25.7344C29.3789 25.6289 29.3906 25.5273 29.4062 25.4219C29.3593 25.7695 29.2695 26.1094 29.1328 26.4336C29.1718 26.3398 29.2109 26.2461 29.25 26.1523C29.1523 26.3711 29.039 26.5859 28.9062 26.7852C28.8789 26.8281 28.8476 26.8672 28.8164 26.9102C28.707 27.0703 29.0273 26.6562 28.8437 26.875C28.7734 26.9609 28.6992 27.043 28.6211 27.1211C28.5429 27.1992 28.4609 27.2734 28.375 27.3437C28.1562 27.5273 28.5703 27.207 28.4101 27.3164C28.3672 27.3477 28.3281 27.375 28.2851 27.4062C28.0859 27.5391 27.875 27.6523 27.6523 27.75L27.9336 27.6328C27.6093 27.7695 27.2695 27.8594 26.9218 27.9062C27.0273 27.8906 27.1289 27.8789 27.2343 27.8633C26.9101 27.9023 26.5859 27.9023 26.2578 27.8633C26.3633 27.8789 26.4648 27.8906 26.5703 27.9062C26.2226 27.8594 25.8828 27.7695 25.5586 27.6328L25.8398 27.75C25.6211 27.6523 25.4062 27.5391 25.207 27.4062C25.164 27.3789 25.125 27.3477 25.082 27.3164C24.9218 27.207 25.3359 27.5273 25.1172 27.3437C25.0312 27.2734 24.9492 27.1992 24.8711 27.1211C24.7929 27.043 24.7187 26.9609 24.6484 26.875C24.4648 26.6562 24.7851 27.0703 24.6758 26.9102C24.6445 26.8672 24.6172 26.8281 24.5859 26.7852C24.4531 26.5859 24.3398 26.375 24.2422 26.1523C24.2812 26.2461 24.3203 26.3398 24.3593 26.4336C24.2226 26.1094 24.1328 25.7695 24.0859 25.4219C24.1015 25.5273 24.1133 25.6289 24.1289 25.7344C24.0898 25.4102 24.0898 25.0859 24.1289 24.7578C24.1133 24.8633 24.1015 24.9648 24.0859 25.0703C24.1328 24.7227 24.2226 24.3828 24.3593 24.0586C24.3203 24.1523 24.2812 24.2461 24.2422 24.3398C24.3398 24.1211 24.4531 23.9062 24.5859 23.707C24.6133 23.6641 24.6445 23.625 24.6758 23.582C24.7851 23.4219 24.4648 23.8359 24.6484 23.6172C24.7187 23.5312 24.7929 23.4492 24.8711 23.3711C24.9492 23.293 25.0312 23.2187 25.1172 23.1484C25.3359 22.9648 24.9218 23.2852 25.082 23.1758C25.125 23.1445 25.164 23.1172 25.207 23.0859C25.4062 22.9531 25.6172 22.8398 25.8398 22.7422C25.7461 22.7812 25.6523 22.8203 25.5586 22.8594C25.8828 22.7227 26.2226 22.6328 26.5703 22.5859C26.4648 22.6016 26.3633 22.6133 26.2578 22.6289C26.582 22.5898 26.9062 22.5898 27.2343 22.6289C27.1289 22.6133 27.0273 22.6016 26.9218 22.5859C27.2695 22.6328 27.6093 22.7227 27.9336 22.8594C27.8398 22.8203 27.7461 22.7812 27.6523 22.7422C27.8711 22.8398 28.0859 22.9531 28.2851 23.0859C28.3281 23.1133 28.3672 23.1445 28.4101 23.1758C28.5703 23.2852 28.1562 22.9648 28.375 23.1484C28.4609 23.2187 28.5429 23.293 28.6211 23.3711C28.6992 23.4492 28.7734 23.5312 28.8437 23.6172C29.0273 23.8359 28.707 23.4219 28.8164 23.582C28.8476 23.625 28.875 23.6641 28.9062 23.707C29.039 23.9062 29.1523 24.1172 29.25 24.3398C29.2109 24.2461 29.1718 24.1523 29.1328 24.0586C29.2695 24.3828 29.3593 24.7227 29.4062 25.0703C29.3906 24.9648 29.3789 24.8633 29.3633 24.7578C29.3828 24.918 29.3906 25.082 29.3945 25.2461C29.3984 25.8594 29.9297 26.4453 30.5664 26.418C31.1992 26.3906 31.7422 25.9023 31.7383 25.2461C31.7304 24.2461 31.4375 23.2109 30.8398 22.3984C30.1992 21.5273 29.3828 20.8945 28.3633 20.5234C26.5 19.8477 24.2148 20.4609 22.9609 22C22.2656 22.8516 21.8633 23.8203 21.7695 24.918C21.6836 25.9102 21.9531 26.9648 22.4687 27.8164C22.9687 28.6445 23.7265 29.3516 24.6093 29.75C25.6289 30.207 26.707 30.3398 27.8086 30.1211C30.0859 29.668 31.7226 27.5312 31.7383 25.2461C31.7422 24.6328 31.1953 24.0469 30.5664 24.0742C29.9258 24.1016 29.3984 24.5859 29.3945 25.2461Z" fill="black"/>
<path d="M26.3359 8.84375C26.3359 8.89844 26.332 8.95703 26.3242 9.01172C26.3398 8.90625 26.3516 8.80469 26.3672 8.69922C26.3477 8.83203 26.3125 8.96094 26.2617 9.08594C26.3008 8.99219 26.3398 8.89844 26.3789 8.80469C26.3398 8.89453 26.2969 8.97656 26.2461 9.05859C26.2188 9.10547 26.1875 9.14844 26.1563 9.19141C26.0469 9.34766 26.3711 8.93359 26.2266 9.09766C26.1484 9.1875 26.0703 9.27344 25.9844 9.35156C25.9453 9.39062 25.9023 9.42578 25.8594 9.46484C25.8164 9.5 25.6133 9.66016 25.8125 9.50781C26.0039 9.35938 25.8164 9.50391 25.7656 9.53516C25.707 9.57422 25.6484 9.61328 25.5898 9.65234C25.4727 9.73047 25.3477 9.80078 25.2266 9.87109C24.9453 10.0273 24.6563 10.1641 24.3594 10.293C24.4531 10.2539 24.5469 10.2148 24.6406 10.1758C23.0938 10.8281 21.4258 11.1719 19.7656 11.3984C19.8711 11.3828 19.9727 11.3711 20.0781 11.3555C17.1523 11.7461 14.1563 11.7461 11.2305 11.3555C11.3359 11.3711 11.4375 11.3828 11.543 11.3984C9.88672 11.1719 8.21485 10.8281 6.66797 10.1758L6.94922 10.293C6.66016 10.1719 6.375 10.0352 6.10157 9.88281C5.97266 9.8125 5.84375 9.73438 5.71875 9.65234C5.66407 9.61719 5.61329 9.58203 5.5586 9.54688C5.51172 9.51562 5.29688 9.35156 5.4961 9.50781C5.6875 9.65625 5.50782 9.51563 5.46094 9.47656C5.41407 9.4375 5.36719 9.39453 5.32032 9.35156C5.23829 9.27344 5.16016 9.19531 5.08985 9.10938C5.07422 9.08984 5.05469 9.0625 5.03516 9.04297C5.01954 9.02734 5.23438 9.3125 5.16016 9.20313C5.12891 9.16016 5.09766 9.11719 5.07032 9.07031C5.01563 8.98438 4.96875 8.89453 4.92969 8.80078C4.96875 8.89453 5.00782 8.98828 5.04688 9.08203C4.9961 8.95703 4.96094 8.82813 4.94141 8.69531C4.95704 8.80078 4.96875 8.90234 4.98438 9.00781C4.97266 8.89453 4.97266 8.78125 4.98438 8.66797C4.96875 8.77344 4.95704 8.875 4.94141 8.98047C4.96094 8.84766 4.9961 8.71875 5.04688 8.59375C5.00782 8.6875 4.96875 8.78125 4.92969 8.875C4.96875 8.78516 5.01172 8.69922 5.06641 8.61719C5.09375 8.57422 5.125 8.53125 5.15235 8.48828C5.23829 8.35547 5.02344 8.65234 5.03126 8.64453C5.05079 8.625 5.07032 8.59766 5.08594 8.57813C5.16016 8.49219 5.23829 8.41016 5.32032 8.33203C5.41797 8.23828 5.78907 7.96875 5.39063 8.25391C5.87891 7.90234 6.39844 7.62109 6.94922 7.38672C6.85547 7.42578 6.76172 7.46484 6.66797 7.50391C8.22266 6.85156 9.90235 6.50391 11.5703 6.28125C11.4648 6.29688 11.3633 6.30859 11.2578 6.32422C14.1602 5.94141 17.1328 5.94141 20.0313 6.32422C19.9258 6.30859 19.8242 6.29688 19.7188 6.28125C21.3867 6.50391 23.0664 6.85156 24.6211 7.50391C24.5273 7.46484 24.4336 7.42578 24.3398 7.38672C24.6328 7.51172 24.9219 7.64844 25.1992 7.80078C25.3242 7.87109 25.4492 7.94531 25.5703 8.02344C25.6641 8.08594 25.793 8.22266 25.8984 8.25391C25.8945 8.25391 25.625 8.03516 25.7578 8.14453C25.7813 8.16406 25.8008 8.17969 25.8242 8.19922C25.875 8.24219 25.9258 8.28516 25.9727 8.33203C26.0547 8.41016 26.1367 8.49219 26.207 8.57813C26.3711 8.76953 26.0586 8.36719 26.1328 8.47656C26.1641 8.51953 26.1914 8.55859 26.2188 8.60547C26.2734 8.69141 26.3203 8.78125 26.3594 8.875C26.3203 8.78125 26.2813 8.6875 26.2422 8.59375C26.293 8.71875 26.3281 8.84766 26.3477 8.98047C26.332 8.875 26.3203 8.77344 26.3047 8.66797C26.332 8.73047 26.332 8.78516 26.3359 8.84375C26.3398 9.45703 26.8711 10.043 27.5078 10.0156C28.1367 9.98828 28.6875 9.5 28.6797 8.84375C28.668 7.34766 27.4063 6.29297 26.1797 5.66406C24.4961 4.79688 22.6055 4.35156 20.7422 4.07813C18.3203 3.72266 15.8711 3.61719 13.4297 3.76953C11.2969 3.90625 9.12891 4.19922 7.09376 4.86328C5.61719 5.34375 4.01954 6.02734 3.10547 7.35156C2.6836 7.96094 2.5625 8.71484 2.71094 9.43359C2.85938 10.1445 3.36329 10.7773 3.91797 11.2188C5.49219 12.4727 7.54688 13.0547 9.4961 13.4258C11.9805 13.8984 14.5352 14.0586 17.0625 13.957C19.4375 13.8633 21.8672 13.5742 24.1406 12.8477C25.0391 12.5625 25.9453 12.207 26.7422 11.6992C27.3828 11.293 28.043 10.7539 28.375 10.0508C28.5625 9.66016 28.6758 9.27734 28.6797 8.83984C28.6875 8.22656 28.1367 7.64063 27.5078 7.66797C26.8672 7.69922 26.3398 8.1875 26.3359 8.84375Z" fill="black"/>
<path d="M35.043 28.293C34.7578 28.7891 34.4726 29.2851 34.1836 29.7773C34.0117 30.0742 33.8398 30.3711 33.668 30.668C33.6289 30.7383 33.5898 30.8086 33.5469 30.8789C33.543 30.8828 33.543 30.8867 33.5391 30.8906C33.5312 30.9062 33.5195 30.9219 33.5117 30.9375C33.4453 31.0351 33.4726 30.9961 33.5976 30.8281C33.5742 30.8555 33.5508 30.8789 33.5234 30.9023C33.4336 30.9766 33.4727 30.9492 33.6406 30.8125C33.5781 30.8359 33.5195 30.8789 33.4609 30.9062L33.7422 30.7891C33.6602 30.8203 33.582 30.8398 33.5 30.8555C33.6055 30.8398 33.707 30.8281 33.8125 30.8125C33.7266 30.8242 33.6445 30.8242 33.5586 30.8164C33.6641 30.832 33.7656 30.8437 33.8711 30.8594C33.7656 30.8437 33.668 30.8164 33.5703 30.7773L33.8516 30.8945C33.5 30.7266 33.1562 30.5352 32.7695 30.4453C32.4141 30.3594 32.0312 30.3125 31.6641 30.3437C31.0312 30.3945 30.4141 30.5664 29.875 30.9101C29.3476 31.2461 28.8906 31.707 28.5859 32.2539C28.4258 32.5391 28.293 32.8555 28.2187 33.1758C28.1367 33.5234 28.1328 33.875 28.0976 34.2266C28.1133 34.1211 28.125 34.0195 28.1406 33.9141C28.1289 33.9961 28.1094 34.0742 28.0781 34.1562C28.1172 34.0625 28.1562 33.9687 28.1953 33.875C28.1719 33.9336 28.1445 33.9844 28.1133 34.0391C28.0117 34.2305 28.293 33.832 28.1484 33.9922C28.0156 34.1367 28.3867 33.8672 28.1953 33.957C28.1406 33.9844 28.0898 34.0156 28.0312 34.0391C28.125 34 28.2187 33.9609 28.3125 33.9219C28.2344 33.9492 28.1562 33.9687 28.0703 33.9844C28.1758 33.9687 28.2773 33.957 28.3828 33.9414C27.8398 33.9922 27.2773 33.9492 26.7305 33.9492C26.3789 33.9492 26.0273 33.9492 25.6719 33.9492C25.4766 33.9492 25.2773 33.9609 25.0859 33.9375C25.1914 33.9531 25.293 33.9648 25.3984 33.9805C25.3125 33.9648 25.2305 33.9414 25.1484 33.9062C25.2422 33.9453 25.3359 33.9844 25.4297 34.0234C25.3828 34 25.3398 33.9766 25.293 33.9531C25.1172 33.8633 25.5234 34.1641 25.3516 33.9922C25.1914 33.832 25.4531 34.1758 25.4062 34.0742C25.3828 34.0195 25.3437 33.9726 25.3203 33.918C25.3594 34.0117 25.3984 34.1055 25.4375 34.1992C25.4023 34.1172 25.3789 34.0351 25.3633 33.9492C25.3789 34.0547 25.3906 34.1562 25.4062 34.2617C25.3594 33.8945 25.3672 33.5234 25.2773 33.1602C25.1992 32.8398 25.0664 32.5234 24.9023 32.2344C24.5937 31.6875 24.1289 31.2266 23.5977 30.8945C23.0547 30.5547 22.4297 30.3828 21.793 30.3437C21.4414 30.3203 21.0742 30.3672 20.7344 30.4492C20.3398 30.543 19.9922 30.7461 19.625 30.9101L19.9062 30.793C19.8203 30.8242 19.7383 30.8476 19.6484 30.8594C19.7539 30.8437 19.8555 30.832 19.9609 30.8164C19.8789 30.8242 19.8008 30.8242 19.7187 30.8203C19.8242 30.8359 19.9258 30.8476 20.0312 30.8633C19.9375 30.8516 19.8516 30.8281 19.7617 30.7969C19.8555 30.8359 19.9492 30.875 20.043 30.9141C19.9766 30.8867 19.9102 30.832 19.8477 30.8086C20.0078 30.9375 20.043 30.9648 19.9531 30.8867C19.9258 30.8594 19.8984 30.832 19.875 30.8047C19.9961 30.8945 20.0234 31.0234 19.957 30.8945C19.9531 30.8867 19.9492 30.8828 19.9453 30.875C19.9023 30.8008 19.8594 30.7266 19.8164 30.6484C19.6406 30.3398 19.4609 30.0351 19.2852 29.7266C18.9922 29.2226 18.6602 28.7226 18.4062 28.1953C18.4453 28.2891 18.4844 28.3828 18.5234 28.4766C18.4844 28.3789 18.457 28.2812 18.4414 28.1758C18.457 28.2812 18.4687 28.3828 18.4844 28.4883C18.4766 28.4023 18.4766 28.3203 18.4883 28.2344C18.4727 28.3398 18.4609 28.4414 18.4453 28.5469C18.4609 28.4609 18.4805 28.3828 18.5117 28.3008C18.4727 28.3945 18.4336 28.4883 18.3945 28.582C18.4219 28.5195 18.4648 28.4609 18.4883 28.4023C18.3516 28.5703 18.3242 28.6055 18.3984 28.5156C18.4219 28.4883 18.4453 28.4648 18.4727 28.4414C18.3008 28.5664 18.2656 28.5937 18.3633 28.5273C18.3984 28.5039 18.4375 28.4844 18.4727 28.4609C18.5508 28.4101 18.6289 28.3555 18.7031 28.3008C19.0898 28.0117 19.3906 27.707 19.668 27.3086C20.0859 26.707 20.2969 25.918 20.2812 25.1914C20.2656 24.4844 20.0625 23.7383 19.6484 23.1562C19.375 22.7695 19.0859 22.4766 18.7109 22.1953C18.6445 22.1484 18.582 22.0976 18.5117 22.0547C18.4766 22.0312 18.4414 22.0117 18.4062 21.9922C18.3047 21.9258 18.3359 21.9531 18.5 22.0742C18.4687 22.0508 18.4414 22.0234 18.418 21.9961C18.3398 21.9062 18.3633 21.9414 18.4961 22.1016C18.4727 22.0351 18.418 21.9687 18.3906 21.9062C18.4297 22 18.4687 22.0937 18.5078 22.1875C18.4766 22.0976 18.4531 22.0117 18.4414 21.918C18.457 22.0234 18.4687 22.125 18.4844 22.2305C18.4766 22.1484 18.4805 22.0703 18.4883 21.9883C18.4727 22.0937 18.4609 22.1953 18.4453 22.3008C18.4609 22.2109 18.4805 22.1289 18.5156 22.043C18.4766 22.1367 18.4375 22.2305 18.3984 22.3242C18.6055 21.8633 18.9023 21.4336 19.1523 21C19.3555 20.6445 19.5625 20.293 19.7656 19.9375C19.8281 19.832 19.8867 19.7226 19.9492 19.6172C19.9531 19.6133 19.957 19.6055 19.9609 19.5976C19.9766 19.5742 19.9922 19.5508 20.0039 19.5273C20.0625 19.4258 19.832 19.7109 19.9219 19.6406C19.9414 19.625 19.9609 19.6016 19.9766 19.5859C20.0898 19.4687 19.8672 19.6875 19.8633 19.6758C19.8594 19.6641 20.0312 19.5859 20.043 19.582C19.9492 19.6211 19.8555 19.6601 19.7617 19.6992C19.8437 19.668 19.9219 19.6484 20.0078 19.6328C19.9023 19.6484 19.8008 19.6601 19.6953 19.6758C19.7812 19.6641 19.8633 19.6641 19.9492 19.6719C19.8437 19.6562 19.7422 19.6445 19.6367 19.6289C19.7422 19.6445 19.8398 19.6719 19.9375 19.7109C19.8437 19.6719 19.75 19.6328 19.6562 19.5937C20.0078 19.7617 20.3516 19.9531 20.7383 20.043C21.0937 20.1289 21.4766 20.1758 21.8437 20.1445C22.4766 20.0937 23.0937 19.9219 23.6328 19.5781C24.1602 19.2422 24.6172 18.7812 24.9219 18.2344C25.082 17.9492 25.2148 17.6328 25.2891 17.3125C25.3711 16.9648 25.375 16.6133 25.4102 16.2617C25.3945 16.3672 25.3828 16.4687 25.3672 16.5742C25.3789 16.4922 25.3984 16.4141 25.4297 16.332C25.3906 16.4258 25.3516 16.5195 25.3125 16.6133C25.3359 16.5547 25.3633 16.5039 25.3945 16.4492C25.4961 16.2578 25.2148 16.6562 25.3594 16.4961C25.4922 16.3516 25.1211 16.6211 25.3125 16.5312C25.3672 16.5039 25.418 16.4726 25.4766 16.4492C25.3828 16.4883 25.2891 16.5273 25.1953 16.5664C25.2734 16.5391 25.3516 16.5195 25.4375 16.5039C25.332 16.5195 25.2305 16.5312 25.125 16.5469C25.668 16.4961 26.2305 16.5391 26.7773 16.5391H27.8359C28.0312 16.5391 28.2305 16.5273 28.4219 16.5508C28.3164 16.5351 28.2148 16.5234 28.1094 16.5078C28.1953 16.5234 28.2773 16.5469 28.3594 16.582C28.2656 16.543 28.1719 16.5039 28.0781 16.4648C28.125 16.4883 28.168 16.5117 28.2148 16.5351C28.3906 16.625 27.9844 16.3242 28.1562 16.4961C28.3164 16.6562 28.0547 16.3125 28.1016 16.4141C28.125 16.4687 28.1641 16.5156 28.1875 16.5703C28.1484 16.4766 28.1094 16.3828 28.0703 16.2891C28.1055 16.3711 28.1289 16.4531 28.1445 16.5391C28.1289 16.4336 28.1172 16.332 28.1016 16.2266C28.1484 16.5703 28.1406 16.9141 28.2148 17.2578C28.2851 17.582 28.4141 17.8984 28.5703 18.1875C28.8672 18.75 29.3359 19.2187 29.8633 19.5625C30.4062 19.918 31.0351 20.0898 31.6719 20.1445C32.0391 20.1758 32.4219 20.1289 32.7773 20.043C33.1719 19.9492 33.5195 19.7461 33.8867 19.582C33.793 19.6211 33.6992 19.6601 33.6055 19.6992C33.6914 19.668 33.7734 19.6445 33.8633 19.6328C33.7578 19.6484 33.6562 19.6601 33.5508 19.6758C33.6328 19.668 33.7109 19.668 33.793 19.6719C33.6875 19.6562 33.5859 19.6445 33.4805 19.6289C33.5742 19.6406 33.6602 19.6641 33.75 19.6953C33.6562 19.6562 33.5625 19.6172 33.4687 19.5781C33.5352 19.6055 33.6016 19.6601 33.6641 19.6836C33.5039 19.5547 33.4687 19.5273 33.5586 19.6055C33.5859 19.6328 33.6133 19.6601 33.6367 19.6875C33.5156 19.5976 33.4883 19.4687 33.5547 19.5976C33.5586 19.6055 33.5625 19.6094 33.5664 19.6172C33.6094 19.6914 33.6523 19.7656 33.6953 19.8437C33.8711 20.1523 34.0508 20.457 34.2266 20.7656C34.5195 21.2695 34.8516 21.7695 35.1055 22.2969C35.0664 22.2031 35.0273 22.1094 34.9883 22.0156C35.0273 22.1133 35.0547 22.2109 35.0703 22.3164C35.0547 22.2109 35.043 22.1094 35.0273 22.0039C35.0352 22.0898 35.0351 22.1719 35.0234 22.2578C35.0391 22.1523 35.0508 22.0508 35.0664 21.9453C35.0508 22.0312 35.0312 22.1094 35 22.1914C35.0391 22.0976 35.0781 22.0039 35.1172 21.9102C35.0898 21.9727 35.0469 22.0312 35.0234 22.0898C35.1601 21.9219 35.1875 21.8867 35.1133 21.9766C35.0898 22.0039 35.0664 22.0273 35.0391 22.0508C35.2109 21.9258 35.2461 21.8984 35.1484 21.9648C35.1172 21.9844 35.082 22.0039 35.0469 22.0234C34.9766 22.0664 34.9102 22.1133 34.8437 22.1601C34.4453 22.4492 34.1406 22.7539 33.8555 23.1562C33.4336 23.75 33.2227 24.5234 33.2227 25.2461C33.2227 25.9687 33.4336 26.7422 33.8555 27.3359C34.1406 27.7383 34.4453 28.043 34.8437 28.332C34.9102 28.3789 34.9766 28.4258 35.0469 28.4687C35.082 28.4883 35.1133 28.5078 35.1484 28.5273C35.2461 28.5937 35.207 28.5664 35.0391 28.4414C35.0664 28.4648 35.0898 28.4883 35.1133 28.5156C35.1875 28.6055 35.1601 28.5664 35.0234 28.4023C35.0469 28.4648 35.0937 28.5234 35.1172 28.582C35.0781 28.4883 35.0391 28.3945 35 28.3008C35.0312 28.3828 35.0508 28.4609 35.0664 28.5469C35.0508 28.4414 35.0391 28.3398 35.0234 28.2344C35.0351 28.3203 35.0352 28.4023 35.0273 28.4883C35.043 28.3828 35.0547 28.2812 35.0703 28.1758C35.0547 28.2812 35.0273 28.3789 34.9883 28.4766C35.0273 28.3828 35.0664 28.2891 35.1055 28.1953C35.0781 28.2305 35.0586 28.2617 35.043 28.293C34.75 28.832 34.8906 29.5937 35.4648 29.8945C36.0117 30.1836 36.7539 30.0508 37.0664 29.4726C37.543 28.5976 37.4258 27.4766 36.6836 26.7812C36.5078 26.6172 36.3125 26.5078 36.1172 26.375C36.082 26.3516 36.0508 26.3281 36.0195 26.3047C36.1758 26.4297 36.207 26.4531 36.1172 26.375C36.0586 26.3203 36 26.2734 35.9453 26.2148C35.8906 26.1601 35.8477 26.0976 35.793 26.043C35.918 26.207 35.9453 26.2422 35.875 26.1445C35.8516 26.1133 35.832 26.082 35.8125 26.0508C35.7305 25.9258 35.6641 25.793 35.6055 25.6562C35.6445 25.75 35.6836 25.8437 35.7227 25.9375C35.6328 25.7148 35.5703 25.4883 35.5391 25.25C35.5547 25.3555 35.5664 25.457 35.582 25.5625C35.5586 25.3437 35.5586 25.1289 35.582 24.9102C35.5664 25.0156 35.5547 25.1172 35.5391 25.2227C35.5703 24.9844 35.6328 24.7578 35.7227 24.5351C35.6836 24.6289 35.6445 24.7226 35.6055 24.8164C35.6836 24.6367 35.7812 24.4726 35.8906 24.3086C35.9727 24.1875 35.6875 24.5469 35.832 24.3906C35.8711 24.3477 35.9062 24.3047 35.9492 24.2617C35.9766 24.2344 36.0039 24.207 36.0312 24.1797C36.0625 24.1484 36.2695 23.9844 36.0937 24.1172C35.9258 24.2461 36.0898 24.125 36.1211 24.1016C36.1719 24.0664 36.2266 24.0351 36.2773 24.0039C36.4219 23.9141 36.5625 23.8125 36.6875 23.6953C36.9531 23.4492 37.1289 23.1406 37.2539 22.8008C37.4687 22.207 37.3711 21.5469 37.0742 21C37.0312 20.9258 36.9883 20.8516 36.9453 20.7734C36.5 20 36.0547 19.2226 35.6055 18.4492C35.3789 18.0625 35.0586 17.7226 34.6445 17.5351C34.1875 17.3281 33.7305 17.2617 33.2305 17.3516C32.875 17.4141 32.5781 17.6133 32.2539 17.7539C32.3477 17.7148 32.4414 17.6758 32.5352 17.6367C32.3242 17.7187 32.1094 17.7773 31.8867 17.8086C31.9922 17.793 32.0937 17.7812 32.1992 17.7656C31.9687 17.793 31.7422 17.793 31.5156 17.7617C31.6211 17.7773 31.7226 17.7891 31.8281 17.8047C31.6094 17.7695 31.3945 17.7109 31.1914 17.6289C31.2852 17.668 31.3789 17.707 31.4727 17.7461C31.332 17.6875 31.1953 17.6172 31.0664 17.5351C31.0312 17.5117 30.9961 17.4883 30.9609 17.4648C30.8789 17.4101 30.8242 17.3086 31.0547 17.5391C31 17.4844 30.9375 17.4375 30.8828 17.3867C30.8281 17.332 30.7734 17.2773 30.7266 17.2187C30.7148 17.207 30.6602 17.1562 30.6602 17.1406C30.6602 17.1523 30.8477 17.4101 30.7383 17.2305C30.6484 17.0898 30.5664 16.9492 30.5 16.7969C30.5391 16.8906 30.5781 16.9844 30.6172 17.0781C30.5273 16.8594 30.4648 16.6328 30.4336 16.4023C30.4492 16.5078 30.4609 16.6094 30.4766 16.7148C30.4492 16.4961 30.4492 16.2773 30.4219 16.0586C30.3828 15.7578 30.2852 15.4766 30.125 15.2187C29.8203 14.7383 29.3203 14.3555 28.7578 14.2422C28.3867 14.168 28.0117 14.1836 27.6367 14.1836C26.8477 14.1836 26.0625 14.1758 25.2734 14.1836C24.6875 14.1914 24.1172 14.4101 23.7031 14.8281C23.4375 15.0937 23.2266 15.4531 23.1328 15.8164C23.0586 16.1172 23.0742 16.418 23.0391 16.7187C23.0547 16.6133 23.0664 16.5117 23.082 16.4062C23.0508 16.6406 22.9883 16.8672 22.8984 17.082C22.9375 16.9883 22.9766 16.8945 23.0156 16.8008C22.9531 16.9453 22.8789 17.082 22.793 17.2148C22.7695 17.25 22.6602 17.3945 22.793 17.2226C22.9297 17.0469 22.8164 17.1953 22.7891 17.2226C22.7383 17.2812 22.6875 17.3359 22.6328 17.3906C22.6172 17.4062 22.4766 17.5508 22.4609 17.543C22.457 17.5391 22.7109 17.3633 22.5781 17.4531C22.543 17.4766 22.5078 17.5039 22.4727 17.5234C22.3359 17.6133 22.1953 17.6875 22.0469 17.75L22.3281 17.6328C22.1211 17.7187 21.9102 17.7773 21.6914 17.8086C21.7969 17.793 21.8984 17.7812 22.0039 17.7656C21.7734 17.7969 21.5469 17.7969 21.3203 17.7695C21.4258 17.7851 21.5273 17.7969 21.6328 17.8125C21.4102 17.7812 21.1953 17.7226 20.9844 17.6406L21.2656 17.7578C20.9883 17.6406 20.7383 17.4766 20.4492 17.3867C20.0937 17.2812 19.7266 17.2851 19.3711 17.3594C18.7734 17.4805 18.2617 17.8828 17.9492 18.3984C17.75 18.7266 17.5625 19.0664 17.3711 19.3984C17.1797 19.7266 16.9922 20.0586 16.8008 20.3867C16.4727 20.957 16.1055 21.5156 16.1562 22.2148C16.1836 22.6055 16.293 22.9922 16.5195 23.3164C16.7578 23.6601 17.0547 23.8672 17.3984 24.0976C17.4297 24.1172 17.4648 24.1484 17.4961 24.168C17.3398 24.043 17.3086 24.0195 17.3984 24.0976C17.4297 24.1211 17.457 24.1484 17.4844 24.1758C17.5547 24.2383 17.6875 24.3398 17.7187 24.4297C17.7187 24.4297 17.5391 24.1758 17.6367 24.3281C17.6719 24.3828 17.7109 24.4375 17.7422 24.4922C17.8047 24.5937 17.8555 24.7031 17.9062 24.8125C17.8672 24.7187 17.8281 24.625 17.7891 24.5312C17.8789 24.7539 17.9414 24.9805 17.9727 25.2187C17.957 25.1133 17.9453 25.0117 17.9297 24.9062C17.957 25.1289 17.9531 25.3516 17.9258 25.5742C17.9414 25.4687 17.9531 25.3672 17.9687 25.2617C17.9375 25.4922 17.875 25.7148 17.7891 25.9297C17.8281 25.8359 17.8672 25.7422 17.9062 25.6484C17.8672 25.7383 17.8242 25.8242 17.7773 25.9101C17.75 25.9609 17.7187 26.0117 17.6875 26.0625C17.6641 26.0937 17.5469 26.2578 17.6758 26.0898C17.8086 25.9219 17.6797 26.082 17.6523 26.1094C17.6172 26.1484 17.5859 26.1836 17.5469 26.2187C17.5117 26.2539 17.4727 26.2891 17.4336 26.3242C17.4023 26.3516 17.3711 26.3789 17.3398 26.4062C17.3867 26.3711 17.4297 26.3359 17.4766 26.3008C17.3984 26.3828 17.2773 26.4258 17.1836 26.4883C17.0352 26.5859 16.8867 26.6953 16.7656 26.8242C16.5195 27.082 16.3477 27.3711 16.2383 27.7109C16.0469 28.293 16.1484 28.9336 16.4375 29.4648C16.4844 29.5469 16.5312 29.6289 16.5781 29.7109C17.0234 30.4805 17.4648 31.25 17.9102 32.0195C18.1367 32.4062 18.457 32.7422 18.8672 32.9297C19.3281 33.1406 19.7812 33.2031 20.2812 33.1133C20.6367 33.0508 20.9336 32.8516 21.2578 32.7109C21.1641 32.75 21.0703 32.7891 20.9766 32.8281C21.1875 32.7461 21.4023 32.6875 21.625 32.6562C21.5195 32.6719 21.418 32.6836 21.3125 32.6992C21.5312 32.6758 21.7461 32.6719 21.9609 32.6992C21.8555 32.6836 21.7539 32.6719 21.6484 32.6562C21.8789 32.6875 22.1016 32.75 22.3203 32.8359C22.2266 32.7969 22.1328 32.7578 22.0391 32.7187C22.1797 32.7773 22.3125 32.8477 22.4414 32.9297C22.4805 32.9531 22.5156 32.9805 22.5508 33.0039C22.6797 33.0859 22.4531 32.9336 22.4414 32.918C22.4805 32.9766 22.5703 33.0273 22.6211 33.0781C22.6719 33.1289 22.7227 33.1797 22.7695 33.2344C22.8281 33.3008 22.8984 33.4297 22.7031 33.1445C22.7227 33.1758 22.7461 33.2031 22.7656 33.2344C22.8594 33.3711 22.9375 33.5156 23.0039 33.6641C22.9648 33.5703 22.9258 33.4766 22.8867 33.3828C22.9805 33.6055 23.0391 33.832 23.0742 34.0703C23.0586 33.9648 23.0469 33.8633 23.0312 33.7578C23.0937 34.3008 23.082 34.8008 23.3984 35.2773C23.7539 35.8086 24.293 36.1758 24.9297 36.2578C25.25 36.3008 25.5625 36.293 25.8867 36.293C26.668 36.293 27.4531 36.3047 28.2383 36.293C28.8242 36.2851 29.3906 36.0664 29.8047 35.6484C30.0703 35.3828 30.2812 35.0234 30.375 34.6601C30.4492 34.3594 30.4336 34.0586 30.4687 33.7578C30.4531 33.8633 30.4414 33.9648 30.4258 34.0703C30.457 33.8359 30.5195 33.6094 30.6094 33.3945C30.5703 33.4883 30.5312 33.582 30.4922 33.6758C30.5547 33.5312 30.6289 33.3945 30.7148 33.2617C30.7383 33.2266 30.8476 33.082 30.7148 33.2539C30.5781 33.4297 30.6914 33.2812 30.7187 33.2539C30.7695 33.1953 30.8203 33.1406 30.875 33.0859C30.8906 33.0703 31.0312 32.9258 31.0469 32.9336C31.0508 32.9375 30.7969 33.1133 30.9297 33.0234C30.9648 33 31 32.9726 31.0352 32.9531C31.1719 32.8633 31.3125 32.7891 31.4609 32.7266C31.3672 32.7656 31.2734 32.8047 31.1797 32.8437C31.3867 32.7578 31.5977 32.6992 31.8164 32.668C31.7109 32.6836 31.6094 32.6953 31.5039 32.7109C31.7344 32.6797 31.9609 32.6797 32.1875 32.707C32.082 32.6914 31.9805 32.6797 31.875 32.6641C32.0977 32.6953 32.3125 32.7539 32.5234 32.8359C32.4297 32.7969 32.3359 32.7578 32.2422 32.7187C32.4297 32.8008 32.6055 32.9023 32.7969 32.9844C33.0586 33.0937 33.2812 33.1523 33.5742 33.168C34 33.1914 34.4609 33.0703 34.8203 32.8437C35.1992 32.6016 35.457 32.2656 35.6758 31.8867C36.0312 31.2734 36.3828 30.6602 36.7383 30.0469C36.8477 29.8594 36.957 29.668 37.0664 29.4805C37.375 28.9492 37.207 28.1719 36.6445 27.8789C36.0859 27.5781 35.3711 27.7266 35.043 28.293Z" fill="black"/>
<path d="M26.3359 8.84376V14.5586V15.3594L27.5078 14.1875C26.8984 14.1875 26.2891 14.1875 25.6797 14.1875C25.3125 14.1875 24.9414 14.1719 24.5898 14.2891C24.0664 14.4609 23.5898 14.8203 23.3281 15.3125C23.1641 15.6172 23.082 15.9141 23.0547 16.2578C23.043 16.4141 23.043 16.5703 23.0234 16.7266C23.0391 16.6211 23.0508 16.5195 23.0664 16.4141C23.0352 16.6484 22.9727 16.875 22.8828 17.0898C22.9219 16.9961 22.9609 16.9023 23 16.8086C22.9375 16.9531 22.8633 17.0898 22.7773 17.2227C22.7539 17.2578 22.6445 17.4023 22.7773 17.2305C22.9141 17.0547 22.8008 17.2031 22.7734 17.2305C22.7227 17.2891 22.6719 17.3438 22.6172 17.3984C22.6016 17.4141 22.4609 17.5586 22.4453 17.5508C22.4414 17.5469 22.6953 17.3711 22.5625 17.4609C22.5273 17.4844 22.4922 17.5117 22.457 17.5313C22.3203 17.6211 22.1797 17.6953 22.0312 17.7578C22.125 17.7188 22.2188 17.6797 22.3125 17.6406C22.1055 17.7266 21.8945 17.7852 21.6758 17.8164C21.7813 17.8008 21.8828 17.7891 21.9883 17.7734C21.7578 17.8047 21.5313 17.8047 21.3047 17.7773C21.4102 17.793 21.5117 17.8047 21.6172 17.8203C21.3945 17.7891 21.1797 17.7305 20.9688 17.6484C21.0625 17.6875 21.1562 17.7266 21.25 17.7656C20.9688 17.6445 20.707 17.4688 20.4063 17.3906C20.0508 17.293 19.6836 17.3008 19.3281 17.375C18.7422 17.4961 18.2344 17.9063 17.9297 18.4102C17.7305 18.7422 17.543 19.0781 17.3516 19.4141C17.6875 19.2188 18.0273 19.0273 18.3633 18.832C15.9922 19.0156 13.5977 18.9648 11.2422 18.6484C11.3477 18.6641 11.4492 18.6758 11.5547 18.6914C9.89844 18.4648 8.22656 18.1211 6.67969 17.4688L6.96094 17.5859C6.67187 17.4648 6.38672 17.3281 6.11328 17.1758C5.98438 17.1055 5.85547 17.0273 5.73047 16.9453C5.67578 16.9102 5.625 16.875 5.57031 16.8398C5.52344 16.8086 5.30859 16.6445 5.50781 16.8008C5.69922 16.9492 5.51953 16.8086 5.47266 16.7695C5.42578 16.7305 5.37891 16.6875 5.33203 16.6445C5.25 16.5664 5.17188 16.4883 5.10156 16.4023C5.08594 16.3828 5.06641 16.3555 5.04687 16.3359C5.03125 16.3203 5.24609 16.6055 5.17187 16.4961C5.14062 16.4531 5.10938 16.4102 5.08203 16.3633C5.02734 16.2773 4.98047 16.1875 4.94141 16.0938L5.05859 16.375C5.00781 16.25 4.97266 16.1211 4.95312 15.9883C4.96875 16.0938 4.98047 16.1953 4.99609 16.3008C4.96875 16.043 4.98437 15.7773 4.98437 15.5234C4.98437 14.9492 4.98437 14.375 4.98437 13.8047C4.98437 12.4609 4.98437 11.1172 4.98437 9.77735C4.98437 9.46485 4.98437 9.15235 4.98437 8.83985C4.20312 8.83985 3.42187 8.83985 2.64062 8.83985C2.65625 10.457 4.10937 11.5469 5.44531 12.168C7.42578 13.0898 9.58984 13.5078 11.75 13.7617C14.0781 14.0352 16.4414 14.0586 18.7734 13.8438C20.9062 13.6484 23.1016 13.3086 25.0977 12.5039C26.6719 11.8672 28.6602 10.793 28.6836 8.83985C28.6914 8.22657 28.1406 7.64063 27.5117 7.66797C26.8672 7.69922 26.3398 8.18751 26.3359 8.84376C26.3359 8.89844 26.332 8.95704 26.3242 9.01172C26.3398 8.90626 26.3516 8.80469 26.3672 8.69922C26.3477 8.83204 26.3125 8.96094 26.2617 9.08594C26.3008 8.99219 26.3398 8.89844 26.3789 8.80469C26.3398 8.89454 26.2969 8.97657 26.2461 9.0586C26.2188 9.10547 26.1875 9.14844 26.1562 9.19141C26.0469 9.34766 26.3711 8.9336 26.2266 9.09766C26.1484 9.18751 26.0703 9.27344 25.9844 9.35157C25.9453 9.39063 25.9023 9.42579 25.8594 9.46485C25.8164 9.50001 25.6133 9.66016 25.8125 9.50782C26.0039 9.35938 25.8164 9.50391 25.7656 9.53516C25.707 9.57422 25.6484 9.61329 25.5898 9.65235C25.4727 9.73047 25.3477 9.80079 25.2266 9.8711C24.9453 10.0273 24.6562 10.1641 24.3594 10.293C24.4531 10.2539 24.5469 10.2148 24.6406 10.1758C23.0938 10.8281 21.4258 11.1719 19.7656 11.3984C19.8711 11.3828 19.9727 11.3711 20.0781 11.3555C17.1523 11.7461 14.1562 11.7461 11.2305 11.3555C11.3359 11.3711 11.4375 11.3828 11.543 11.3984C9.88672 11.1719 8.21484 10.8281 6.66797 10.1758L6.94922 10.293C6.66016 10.1719 6.375 10.0352 6.10156 9.88282C5.97266 9.81251 5.84375 9.73438 5.71875 9.65235C5.66406 9.61719 5.61328 9.58204 5.55859 9.54688C5.51172 9.51563 5.29687 9.35157 5.49609 9.50782C5.6875 9.65626 5.50781 9.51563 5.46094 9.47657C5.41406 9.43751 5.36719 9.39454 5.32031 9.35157C5.23828 9.27344 5.16016 9.19532 5.08984 9.10938C5.07422 9.08985 5.05469 9.06251 5.03516 9.04297C5.01953 9.02735 5.23438 9.31251 5.16016 9.20313C5.12891 9.16016 5.09766 9.11719 5.07031 9.07032C5.01562 8.98438 4.96875 8.89454 4.92969 8.80079C4.96875 8.89454 5.00781 8.98829 5.04687 9.08204C4.99609 8.95704 4.96094 8.82813 4.94141 8.69532C4.95703 8.80079 4.96875 8.90235 4.98437 9.00782C4.97656 8.95313 4.97266 8.89454 4.97266 8.83985C4.96484 8.22657 4.4375 7.64063 3.80078 7.66797C3.16406 7.69532 2.62891 8.1836 2.62891 8.83985V11.7539V15.7734V16.1211C2.63281 16.5508 2.73437 16.9102 2.91016 17.2969C3.28125 18.1289 4.10547 18.7461 4.875 19.1797C5.92969 19.7734 7.10547 20.1641 8.27344 20.457C9.70312 20.8125 11.1758 21.0234 12.6445 21.1523C14.1484 21.2852 15.6641 21.3125 17.1719 21.25C17.5508 21.2344 17.9336 21.2148 18.3125 21.1836C18.6367 21.1523 18.9375 21.0742 19.1758 20.8359C19.2422 20.7695 19.3164 20.6641 19.3672 20.5859C19.3945 20.5469 19.4141 20.5 19.4414 20.4609C19.6055 20.1797 19.7656 19.8945 19.9297 19.6172C19.9336 19.6094 19.9375 19.6016 19.9414 19.5938C19.9492 19.5781 19.9727 19.543 19.9844 19.5234C20.0352 19.4336 19.8828 19.6563 19.8828 19.6563C19.8906 19.6523 19.9453 19.5938 19.957 19.582C20.0352 19.5 20.0547 19.5977 19.8438 19.6719C19.9023 19.6523 19.9648 19.6016 20.0234 19.5781C19.9297 19.6172 19.8359 19.6563 19.7422 19.6953C19.8242 19.6641 19.9023 19.6445 19.9883 19.6289C19.8828 19.6445 19.7813 19.6563 19.6758 19.6719C19.7617 19.6602 19.8438 19.6602 19.9297 19.668C19.8242 19.6523 19.7227 19.6406 19.6172 19.625C19.7227 19.6406 19.8203 19.668 19.918 19.707C19.8242 19.668 19.7305 19.6289 19.6367 19.5898C19.9883 19.7578 20.332 19.9492 20.7188 20.0391C21.0742 20.125 21.457 20.1719 21.8242 20.1406C22.457 20.0898 23.0742 19.918 23.6133 19.5742C24.1406 19.2383 24.5977 18.7773 24.9023 18.2305C25.0625 17.9453 25.1953 17.6289 25.2695 17.3086C25.3516 16.9609 25.3555 16.6094 25.3906 16.2578C25.375 16.3633 25.3633 16.4648 25.3477 16.5703C25.3594 16.4883 25.3789 16.4102 25.4102 16.3281C25.3711 16.4219 25.332 16.5156 25.293 16.6094C25.3164 16.5508 25.3438 16.5 25.375 16.4453C25.4766 16.2539 25.1953 16.6523 25.3398 16.4922C25.4727 16.3477 25.1016 16.6172 25.293 16.5273C25.3477 16.5 25.3984 16.4688 25.457 16.4453C25.3633 16.4844 25.2695 16.5234 25.1758 16.5625C25.2539 16.5352 25.332 16.5156 25.418 16.5C25.3125 16.5156 25.2109 16.5273 25.1055 16.543C25.5078 16.5039 25.9219 16.5352 26.3281 16.5352H27.5C28.1328 16.5352 28.6719 16 28.6719 15.3633C28.6719 13.457 28.6719 11.5508 28.6719 9.64844C28.6719 9.38282 28.6719 9.11329 28.6719 8.84766C28.6719 8.23438 28.1328 7.64844 27.5 7.67579C26.8711 7.69922 26.3359 8.18751 26.3359 8.84376Z" fill="black"/>
<path d="M17.9336 25.2461C17.9336 25.3633 17.9258 25.4766 17.9102 25.5898C17.9258 25.4844 17.9375 25.3828 17.9531 25.2773C17.9219 25.5078 17.8594 25.7305 17.7734 25.9453C17.8125 25.8516 17.8516 25.7578 17.8906 25.6641C17.8516 25.7539 17.8086 25.8399 17.7617 25.9258C17.7344 25.9766 17.7031 26.0273 17.6719 26.0781C17.6445 26.1172 17.5352 26.2656 17.6602 26.1055C17.7891 25.9375 17.6602 26.1016 17.6367 26.125C17.6016 26.1641 17.5703 26.1992 17.5312 26.2344C17.4648 26.3008 17.1562 26.5469 17.4609 26.3125C17.6562 26.2578 17.8555 26.207 18.0508 26.1524C15.7773 26.3047 13.4883 26.25 11.2305 25.9492C11.3359 25.9648 11.4375 25.9766 11.543 25.9922C9.88672 25.7656 8.21484 25.4219 6.66797 24.7695L6.94922 24.8867C6.66016 24.7656 6.375 24.6289 6.10156 24.4766C5.97266 24.4063 5.84375 24.3281 5.71875 24.2461C5.66406 24.2109 5.61328 24.1758 5.55859 24.1406C5.51172 24.1094 5.29687 23.9453 5.49609 24.1016C5.6875 24.25 5.50781 24.1094 5.46094 24.0703C5.41406 24.0313 5.36719 23.9883 5.32031 23.9453C5.23828 23.8672 5.16016 23.7891 5.08984 23.7031C5.07422 23.6836 5.05469 23.6563 5.03516 23.6367C5.01953 23.6211 5.23438 23.9063 5.16016 23.7969C5.12891 23.7539 5.09766 23.7109 5.07031 23.6641C5.01562 23.5781 4.96875 23.4883 4.92969 23.3945L5.04687 23.6758C4.99609 23.5508 4.96094 23.4219 4.94141 23.2891C4.95703 23.3945 4.96875 23.4961 4.98437 23.6016C4.95703 23.3438 4.97266 23.0781 4.97266 22.8242C4.97266 22.25 4.97266 21.6758 4.97266 21.1055C4.97266 19.7617 4.97266 18.418 4.97266 17.0781C4.97266 16.7656 4.97266 16.4531 4.97266 16.1406C4.19141 16.1406 3.41016 16.1406 2.62891 16.1406C2.64844 18.1289 4.71094 19.2148 6.3125 19.8438C7.37891 20.2617 8.49609 20.543 9.62109 20.75C10.9648 21 12.3281 21.1523 13.6914 21.2305C15.2422 21.3164 16.8008 21.3008 18.3477 21.1797C18.0117 20.5938 17.6719 20.0039 17.3359 19.418C17.0898 19.8477 16.8398 20.2773 16.5938 20.707C16.4336 20.9844 16.2578 21.2617 16.1875 21.5781C15.9727 22.5078 16.3398 23.4063 17.1133 23.9531C17.1445 23.9727 17.4727 24.1758 17.4688 24.1836C17.4648 24.1914 17.2695 24.0195 17.3477 24.0938C17.375 24.1211 17.4062 24.1445 17.4375 24.1719C17.4883 24.2188 17.5352 24.2656 17.582 24.3164C17.6094 24.3438 17.6328 24.375 17.6602 24.4024C17.7656 24.5195 17.5859 24.3203 17.582 24.2969C17.5898 24.3438 17.668 24.418 17.6914 24.4609C17.7656 24.5781 17.8281 24.7031 17.8828 24.8281C17.8438 24.7344 17.8047 24.6406 17.7656 24.5469C17.8555 24.7695 17.918 24.9961 17.9492 25.2344C17.9336 25.1289 17.9219 25.0273 17.9062 24.9219C17.9258 25.0273 17.9297 25.1367 17.9336 25.2461C17.9414 25.8594 18.4688 26.4453 19.1055 26.418C19.7344 26.3906 20.2852 25.9023 20.2773 25.2461C20.2695 24.5195 20.0664 23.7539 19.6445 23.1563C19.3711 22.7695 19.082 22.4766 18.707 22.1953C18.6406 22.1484 18.5781 22.0977 18.5078 22.0547C18.4727 22.0313 18.4375 22.0117 18.4023 21.9922C18.3008 21.9258 18.332 21.9531 18.4961 22.0742C18.4648 22.0508 18.4375 22.0234 18.4141 21.9961C18.3359 21.9063 18.3594 21.9414 18.4922 22.1016C18.4687 22.0352 18.4141 21.9688 18.3867 21.9063C18.4258 22 18.4648 22.0938 18.5039 22.1875C18.4727 22.0977 18.4492 22.0117 18.4375 21.918C18.4531 22.0234 18.4648 22.125 18.4805 22.2305C18.4727 22.1484 18.4766 22.0703 18.4844 21.9883C18.4688 22.0938 18.457 22.1953 18.4414 22.3008C18.457 22.2109 18.4766 22.1289 18.5117 22.043C18.4727 22.1367 18.4336 22.2305 18.3945 22.3242C18.5352 22.0156 18.7266 21.7266 18.8984 21.4375C19.0586 21.1602 19.2188 20.8828 19.3789 20.6055C19.7969 19.8828 19.2773 18.7734 18.3672 18.8438C15.9961 19.0273 13.6016 18.9766 11.2461 18.6602C11.3516 18.6758 11.4531 18.6875 11.5586 18.7031C9.90234 18.4766 8.23047 18.1328 6.68359 17.4805L6.96484 17.5977C6.67578 17.4766 6.39062 17.3398 6.11719 17.1875C5.98828 17.1172 5.85938 17.0391 5.73438 16.957C5.67969 16.9219 5.62891 16.8867 5.57422 16.8516C5.52734 16.8203 5.3125 16.6563 5.51172 16.8125C5.70313 16.9609 5.52344 16.8203 5.47656 16.7813C5.42969 16.7422 5.38281 16.6992 5.33594 16.6563C5.25391 16.5781 5.17578 16.5 5.10547 16.4141C5.08984 16.3945 5.07031 16.3672 5.05078 16.3477C5.03516 16.332 5.25 16.6172 5.17578 16.5078C5.14453 16.4648 5.11328 16.4219 5.08594 16.375C5.03125 16.2891 4.98437 16.1992 4.94531 16.1055L5.0625 16.3867C5.01172 16.2617 4.97656 16.1328 4.95703 16C4.97266 16.1055 4.98437 16.207 5 16.3125C4.99219 16.2578 4.98828 16.1992 4.98828 16.1445C4.98047 15.5313 4.45312 14.9453 3.81641 14.9727C3.17969 15 2.64453 15.4883 2.64453 16.1445V18.9219V22.9375C2.64453 23.332 2.62891 23.7266 2.73437 24.1133C2.98437 25.0469 3.73047 25.7383 4.50781 26.2539C5.42969 26.8594 6.50391 27.2539 7.55859 27.5625C8.91406 27.9609 10.3125 28.1914 11.7148 28.3594C13.1641 28.5313 14.625 28.6016 16.0859 28.582C16.4492 28.5781 16.8164 28.5664 17.1797 28.5508C17.6641 28.5313 18.2969 28.5742 18.7031 28.3047C19.3906 27.8477 19.8867 27.1094 20.125 26.3242C20.2305 25.9805 20.2773 25.6055 20.2812 25.2461C20.2891 24.6328 19.7383 24.0469 19.1094 24.0742C18.4648 24.1016 17.9375 24.5859 17.9336 25.2461Z" fill="black"/>
<path d="M23.8399 32.3711C22.5235 32.8203 21.1485 33.0977 19.7735 33.2852C19.8789 33.2695 19.9805 33.2578 20.086 33.2422C17.1719 33.6328 14.1875 33.6328 11.2735 33.2461C11.3789 33.2617 11.4805 33.2734 11.586 33.2891C9.918 33.0664 8.23831 32.7188 6.68362 32.0664L6.96487 32.1836C6.6719 32.0586 6.38284 31.9219 6.1055 31.7695C5.9805 31.6992 5.8555 31.625 5.7344 31.5469C5.64065 31.4844 5.51175 31.3477 5.40628 31.3164C5.41018 31.3164 5.67971 31.5352 5.5469 31.4258C5.52346 31.4063 5.50393 31.3906 5.4805 31.3711C5.42971 31.3281 5.37893 31.2852 5.33206 31.2383C5.25003 31.1602 5.168 31.0781 5.09768 30.9922C4.93362 30.8008 5.24612 31.2031 5.1719 31.0938C5.14065 31.0508 5.11331 31.0117 5.08596 30.9649C5.03128 30.8789 4.9844 30.7891 4.94534 30.6953C4.9844 30.7891 5.02346 30.8828 5.06253 30.9766C5.01175 30.8516 4.97659 30.7227 4.95706 30.5898C4.97268 30.6953 4.9844 30.7969 5.00003 30.9023C4.96878 30.6523 4.98831 30.3906 4.98831 30.1406C4.98831 29.5664 4.98831 28.9922 4.98831 28.4141C4.98831 27.0703 4.98831 25.7266 4.98831 24.3789C4.98831 24.0625 4.98831 23.7461 4.98831 23.4297C4.20706 23.4297 3.42581 23.4297 2.64456 23.4297C2.66409 25.3906 4.6719 26.4688 6.25393 27.1016C7.28909 27.5156 8.37503 27.7969 9.46487 28.0039C10.793 28.2578 12.1407 28.418 13.4883 28.5039C15.0117 28.5977 16.5391 28.5938 18.0625 28.4883C17.8672 27.7617 17.668 27.0313 17.4727 26.3047C17.0352 26.6172 16.6055 26.875 16.3711 27.3867C16.125 27.9219 16.0469 28.5273 16.2657 29.0898C16.3985 29.4258 16.5821 29.7227 16.7617 30.0352C17.1524 30.707 17.5274 31.3906 17.9297 32.0547C18.2188 32.5352 18.6602 32.8945 19.1992 33.0664C19.5703 33.1836 19.9688 33.1836 20.3438 33.1016C20.6719 33.0313 20.9532 32.8398 21.2539 32.707C21.1602 32.7461 21.0664 32.7852 20.9727 32.8242C21.1836 32.7422 21.3985 32.6836 21.6211 32.6524C21.5157 32.668 21.4141 32.6797 21.3086 32.6953C21.5274 32.6719 21.7422 32.668 21.9571 32.6953C21.8516 32.6797 21.75 32.668 21.6446 32.6524C21.875 32.6836 22.0977 32.7461 22.3164 32.832C22.2227 32.793 22.1289 32.7539 22.0352 32.7149C22.1758 32.7734 22.3086 32.8438 22.4375 32.9258C22.4766 32.9492 22.5117 32.9766 22.5469 33C22.6758 33.082 22.4492 32.9297 22.4375 32.9141C22.4766 32.9727 22.5664 33.0234 22.6172 33.0742C22.668 33.125 22.7188 33.1758 22.7657 33.2305C22.8242 33.2969 22.8946 33.4258 22.6992 33.1406C22.7188 33.1719 22.7422 33.1992 22.7617 33.2305C22.8555 33.3672 22.9336 33.5117 23 33.6602C22.961 33.5664 22.9219 33.4727 22.8828 33.3789C22.9414 33.5195 22.9883 33.6602 23.0235 33.8047C23.168 34.3984 23.875 34.8125 24.4649 34.625C25.0821 34.4258 25.4414 33.8203 25.2852 33.1836C25.0313 32.1406 24.2774 31.1719 23.293 30.7266C22.7539 30.4805 22.1992 30.3242 21.5977 30.332C21.2657 30.3359 20.9219 30.3828 20.6016 30.4766C20.2539 30.5781 19.9492 30.7578 19.625 30.9023L19.9063 30.7852C19.8203 30.8164 19.7383 30.8398 19.6485 30.8516C19.7539 30.8359 19.8555 30.8242 19.961 30.8086C19.8789 30.8164 19.8008 30.8164 19.7188 30.8125C19.8242 30.8281 19.9258 30.8399 20.0313 30.8555C19.9375 30.8438 19.8516 30.8203 19.7617 30.7891C19.8555 30.8281 19.9492 30.8672 20.043 30.9063C19.9766 30.8789 19.9102 30.8242 19.8477 30.8008C20.0078 30.9297 20.043 30.957 19.9532 30.8789C19.9258 30.8516 19.8985 30.8242 19.875 30.7969C19.9961 30.8867 20.0235 31.0156 19.9571 30.8867C19.9532 30.8789 19.9492 30.875 19.9453 30.8672C19.9024 30.793 19.8594 30.7188 19.8164 30.6406C19.6407 30.332 19.461 30.0273 19.2852 29.7188C18.9922 29.2148 18.6602 28.7148 18.4063 28.1875C18.4453 28.2813 18.4844 28.375 18.5235 28.4688C18.4844 28.3711 18.4571 28.2734 18.4414 28.168C18.4571 28.2734 18.4688 28.375 18.4844 28.4805C18.4766 28.3945 18.4766 28.3125 18.4883 28.2266C18.4727 28.332 18.461 28.4336 18.4453 28.5391C18.461 28.4531 18.4805 28.375 18.5117 28.293C18.4727 28.3867 18.4336 28.4805 18.3946 28.5742C18.4219 28.5117 18.4649 28.4531 18.4883 28.3945C18.3516 28.5625 18.3242 28.5977 18.3985 28.5078C18.4141 28.4883 18.4336 28.4688 18.4532 28.4531C18.5196 28.3906 18.4727 28.4258 18.3164 28.5508C18.3438 28.5313 18.375 28.5117 18.4063 28.4922C18.4883 28.4414 18.5703 28.3906 18.6524 28.332C19.0625 28.0391 19.3594 27.5313 19.1914 27.0078C19.0391 26.5391 18.586 26.1133 18.0625 26.1484C15.7891 26.3008 13.5 26.2461 11.2422 25.9453C11.3477 25.9609 11.4492 25.9727 11.5547 25.9883C9.89846 25.7617 8.22659 25.418 6.67971 24.7656L6.96096 24.8828C6.6719 24.7617 6.38675 24.625 6.11331 24.4727C5.9844 24.4023 5.8555 24.3242 5.7305 24.2422C5.67581 24.207 5.62503 24.1719 5.57034 24.1367C5.52346 24.1055 5.30862 23.9414 5.50784 24.0977C5.69925 24.2461 5.51956 24.1055 5.47268 24.0664C5.42581 24.0273 5.37893 23.9844 5.33206 23.9414C5.25003 23.8633 5.1719 23.7852 5.10159 23.6992C5.08596 23.6797 5.06643 23.6523 5.0469 23.6328C5.03128 23.6172 5.24612 23.9023 5.1719 23.793C5.14065 23.75 5.1094 23.707 5.08206 23.6602C5.02737 23.5742 4.9805 23.4844 4.94143 23.3906C4.9805 23.4844 5.01956 23.5781 5.05862 23.6719C5.00784 23.5469 4.97268 23.418 4.95315 23.2852C4.96878 23.3906 4.9805 23.4922 4.99612 23.5977C4.98831 23.543 4.9844 23.4844 4.9844 23.4297C4.97659 22.8164 4.44925 22.2305 3.81253 22.2578C3.17581 22.2852 2.64065 22.7734 2.64065 23.4297V26.8242C2.64065 28.1094 2.63675 29.3945 2.64065 30.6797C2.64846 32.6484 4.60159 33.7266 6.19143 34.375C7.30862 34.832 8.49221 35.125 9.67971 35.3438C11.2305 35.6289 12.8086 35.7891 14.3867 35.8477C16.0078 35.9063 17.6328 35.8555 19.2461 35.6836C20.7188 35.5274 22.1953 35.293 23.6211 34.8906C23.9063 34.8086 24.1875 34.7227 24.4688 34.625C25.0469 34.4258 25.4922 33.8125 25.2891 33.1836C25.0938 32.6172 24.461 32.1602 23.8399 32.3711Z" fill="black"/>
</svg>
