<svg width="53" height="52" viewBox="0 0 53 52" fill="none" xmlns="http://www.w3.org/2000/svg">
<path d="M40.3868 23.0801C40.7982 23.0092 41.0991 22.6522 41.0991 22.2345V18.2294C41.0991 17.812 40.7991 17.455 40.3876 17.3838L36.7823 16.759C36.6147 16.242 36.4077 15.7362 36.1638 15.2476L38.2673 12.2641C38.5078 11.9235 38.4676 11.4592 38.1735 11.1638L35.3484 8.33113C35.0534 8.03446 34.5874 7.99549 34.2447 8.23643L31.2905 10.3274C30.7969 10.0751 30.2798 9.86017 29.7443 9.68459L29.1266 6.11574C29.0554 5.70425 28.6984 5.40381 28.2811 5.40381H24.276C23.8586 5.40381 23.5016 5.70425 23.4304 6.11532L22.8127 9.67747C22.2831 9.85262 21.766 10.0697 21.2665 10.327L18.3115 8.23643C17.9713 7.99549 17.5045 8.03446 17.2087 8.33113L14.3844 11.1638C14.0894 11.4592 14.05 11.9235 14.2906 12.2641L16.3941 15.2472C16.1494 15.7362 15.9424 16.2415 15.7756 16.759L12.1627 17.3838C11.7513 17.455 11.4504 17.812 11.4504 18.2294V22.2345C11.4504 22.6522 11.7513 23.0097 12.1636 23.0801L15.8141 23.7073C15.9826 24.2077 16.1862 24.6971 16.4251 25.1702L14.2906 28.2002C14.0174 28.5873 14.1104 29.1229 14.4976 29.3956C14.8864 29.6693 15.4211 29.5767 15.6935 29.1882L18.1322 25.7262C18.3233 25.4551 18.3409 25.0977 18.1775 24.809C17.8029 24.1482 17.5095 23.4446 17.305 22.718C17.2154 22.3996 16.9505 22.1607 16.6237 22.105L13.1667 21.5112V18.9518L16.5935 18.3593C16.9246 18.3023 17.1911 18.058 17.2774 17.7341C17.4735 16.9949 17.766 16.2797 18.1465 15.6071C18.3099 15.318 18.2923 14.961 18.1012 14.6899L16.1091 11.8648L17.9126 10.0563L20.7126 12.0374C20.9858 12.2319 21.3495 12.2478 21.6386 12.0789C22.3208 11.6829 23.0466 11.3779 23.7941 11.173C24.1151 11.0854 24.3564 10.8197 24.4134 10.4921L24.9984 7.12015H27.5586L28.1436 10.4996C28.2006 10.8277 28.442 11.0929 28.7629 11.1809C29.5281 11.3905 30.253 11.6926 30.9192 12.0793C31.2109 12.2474 31.5713 12.231 31.8461 12.0374L34.6452 10.0563L36.4487 11.8648L34.4567 14.6899C34.2656 14.961 34.248 15.3176 34.4106 15.6063C34.7911 16.2792 35.0835 16.9954 35.2813 17.7349C35.3676 18.0584 35.6341 18.3023 35.9635 18.3593L39.3828 18.9518V21.5112L35.9325 22.105C35.6065 22.1611 35.3417 22.3996 35.252 22.718C35.0475 23.4446 34.7542 24.1482 34.3796 24.809C34.2162 25.0977 34.2338 25.4551 34.4248 25.7266L36.8644 29.1886C37.0312 29.4258 37.2968 29.5524 37.5667 29.5524C37.7377 29.5524 37.9103 29.5017 38.0603 29.3956C38.4475 29.1229 38.5405 28.5873 38.2673 28.1997L36.132 25.1702C36.3708 24.6971 36.5744 24.2077 36.7429 23.7069L40.3868 23.0801Z" fill="black"/>
<path d="M34.6134 32.5841C31.7409 29.4238 29.879 26.3322 28.7262 24.0052C29.9844 23.1839 30.7902 21.7681 30.7902 20.2312C30.7902 17.7413 28.7646 15.7153 26.2747 15.7153C23.784 15.7153 21.7585 17.7413 21.7585 20.2312C21.7585 21.7694 22.5655 23.1863 23.8255 24.0073C22.6749 26.3302 20.8144 29.4171 17.9361 32.5841C17.7081 32.8347 17.6495 33.1963 17.7861 33.5068L21.2491 41.3795C20.7982 41.4056 20.4385 41.771 20.4385 42.228V45.7378C20.4385 46.2117 20.8224 46.596 21.2967 46.596H31.2528C31.7271 46.596 32.111 46.2117 32.111 45.7378V42.228C32.111 41.7708 31.7509 41.4051 31.2998 41.3794L34.7634 33.5068C34.9 33.1963 34.8413 32.8347 34.6134 32.5841ZM26.2747 30.7777C26.7164 30.7777 27.0751 31.1364 27.0751 31.5776C27.0751 32.0189 26.7164 32.3775 26.2747 32.3775C25.8331 32.3775 25.4744 32.0189 25.4744 31.5776C25.4744 31.1364 25.8331 30.7777 26.2747 30.7777ZM23.4748 20.2312C23.4748 18.6875 24.731 17.4317 26.2747 17.4317C27.8184 17.4317 29.0738 18.6875 29.0738 20.2312C29.0738 21.0999 28.6616 21.9101 27.9978 22.4322C27.3646 20.9593 27.11 20.0443 27.1036 20.0208C27.0977 19.9987 27.0835 19.9813 27.0759 19.96C27.062 19.9207 27.0447 19.8858 27.0255 19.8495C26.9955 19.7925 26.9611 19.741 26.9199 19.6928C26.8943 19.6627 26.8698 19.6344 26.8403 19.6082C26.7897 19.5631 26.7337 19.528 26.6739 19.496C26.6429 19.4794 26.6156 19.4597 26.5826 19.4469C26.4857 19.4093 26.3832 19.3848 26.2747 19.3848C26.166 19.3849 26.0626 19.4095 25.9657 19.4471C25.934 19.4594 25.9078 19.4785 25.8781 19.4943C25.8166 19.527 25.7591 19.5631 25.7074 19.6095C25.6791 19.6348 25.6557 19.6619 25.631 19.6908C25.5883 19.7404 25.5528 19.7934 25.5221 19.8524C25.5039 19.8871 25.4874 19.9205 25.4741 19.9578C25.4661 19.9801 25.4513 19.9984 25.4451 20.0217C25.4389 20.0451 25.1864 20.96 24.5536 22.4341C23.8882 21.9122 23.4748 21.101 23.4748 20.2312ZM30.3946 44.8796H22.1549V43.0862H22.5596H29.989H30.3946V44.8796ZM29.4292 41.3699H23.1195L19.5795 33.322C22.4241 30.1072 24.2641 27.0239 25.4166 24.677V29.2219C24.4521 29.5745 23.7581 30.4928 23.7581 31.5776C23.7581 32.965 24.8869 34.0939 26.2747 34.0939C27.6626 34.0939 28.7914 32.965 28.7914 31.5776C28.7914 30.4928 28.0974 29.5745 27.1329 29.2219V24.677C28.2854 27.0238 30.1253 30.1071 32.97 33.322L29.4292 41.3699Z" fill="black"/>
</svg>
