<svg width="30" height="30" viewBox="0 0 30 30" fill="none" xmlns="http://www.w3.org/2000/svg">
<path d="M4.40417 10.8335V19.8046C4.40417 21.6334 9.18333 23.1156 15.0789 23.1156C20.9744 23.1156 25.7536 21.6334 25.7536 19.8046V10.9877L4.40417 10.8335Z" fill="#766D78"/>
<path d="M25.7488 19.896C25.5942 21.6819 20.876 23.1156 15.0789 23.1156C9.1837 23.1156 4.40417 21.633 4.40417 19.805V10.8335L7.13858 10.8537V17.682C7.13858 19.5112 11.917 20.9937 17.8133 20.9937C20.9634 20.9937 23.7951 20.5703 25.7488 19.896Z" fill="#655E67"/>
<path d="M14.6519 3.32019L1.46024 9.13715C0.710355 9.46765 0.710355 10.4526 1.46024 10.7831L14.6519 16.6C14.9219 16.719 15.2355 16.719 15.505 16.6L28.6967 10.7831C29.4466 10.4522 29.4466 9.46765 28.6967 9.13715L15.505 3.32019C15.2355 3.20121 14.9219 3.20121 14.6519 3.32019Z" fill="#544F56"/>
<path d="M28.6975 10.783L15.5054 16.5996C15.2355 16.7186 14.9226 16.7186 14.6527 16.5996L1.46024 10.783C0.710355 10.4518 0.710355 9.46761 1.46024 9.13636L3.65996 8.1665L16.7044 13.9188C16.9743 14.0367 17.2872 14.0367 17.5571 13.9188L28.5498 9.071L28.6975 9.13636C29.4473 9.46761 29.4473 10.4518 28.6975 10.783Z" fill="#444145"/>
<path d="M15.0927 9.23797C14.9267 8.87661 14.4988 8.7187 14.1375 8.88506L6.48255 12.4299C6.22732 12.5475 6.06353 12.8031 6.06353 13.084V23.3143L3.63503 26.5383C3.39596 26.8563 3.45949 27.3076 3.77715 27.5467C4.0948 27.7861 4.54613 27.7226 4.78557 27.4049L6.06353 25.7079V26.9716C6.06353 27.3693 6.38596 27.6917 6.78368 27.6917C7.18139 27.6917 7.50382 27.3693 7.50382 26.9716V25.7079L8.78215 27.4049C9.02122 27.7226 9.47291 27.7857 9.79057 27.5467C10.1082 27.3076 10.1718 26.8563 9.93232 26.5383L7.50382 23.3143V13.5452L14.7398 10.1931C15.1011 10.0268 15.259 9.59932 15.0927 9.23797Z" fill="#FFE046"/>
<path d="M17.129 9.3813C17.129 8.6876 16.2101 8.125 15.0769 8.125C13.9436 8.125 13.0248 8.6876 13.0248 9.3813C13.0248 10.075 13.9436 10.6376 15.0769 10.6376C16.2101 10.6376 17.129 10.075 17.129 9.3813Z" fill="#EEC707"/>
</svg>
