<svg width="40" height="40" viewBox="0 0 40 40" fill="none" xmlns="http://www.w3.org/2000/svg">
<rect width="40" height="40" rx="20" fill="#6481F1"/>
<g clip-path="url(#clip0_20905_9568)">
<path d="M12 21H12.8889M20 13V13.8889M27.1111 21H28M14.3111 15.3111L14.9333 15.9333M25.6889 15.3111L25.0667 15.9333M17.9556 25.4444H22.0444M17.3333 24.5556C16.5871 23.9959 16.0359 23.2156 15.7577 22.3252C15.4796 21.4348 15.4886 20.4795 15.7836 19.5945C16.0786 18.7096 16.6446 17.9399 17.4013 17.3945C18.158 16.8491 19.0672 16.5556 20 16.5556C20.9328 16.5556 21.842 16.8491 22.5987 17.3945C23.3554 17.9399 23.9214 18.7096 24.2164 19.5945C24.5114 20.4795 24.5204 21.4348 24.2423 22.3252C23.9641 23.2156 23.4129 23.9959 22.6667 24.5556C22.3196 24.8991 22.0583 25.3195 21.9039 25.7828C21.7495 26.246 21.7063 26.7392 21.7778 27.2222C21.7778 27.6937 21.5905 28.1459 21.2571 28.4793C20.9237 28.8127 20.4715 29 20 29C19.5285 29 19.0763 28.8127 18.7429 28.4793C18.4095 28.1459 18.2222 27.6937 18.2222 27.2222C18.2937 26.7392 18.2505 26.246 18.0961 25.7828C17.9417 25.3195 17.6804 24.8991 17.3333 24.5556Z" stroke="white" stroke-linecap="round" stroke-linejoin="round"/>
</g>
<defs>
<clipPath id="clip0_20905_9568">
<rect width="18" height="18" fill="white" transform="translate(11 11)"/>
</clipPath>
</defs>
</svg>
