<svg width="30" height="30" viewBox="0 0 30 30" fill="none" xmlns="http://www.w3.org/2000/svg">
<path d="M13.401 12.7461H29.5937V16.0338H13.401V12.7461Z" fill="#F2CA79"/>
<path d="M21.8766 12.7452L20.2133 16.0062C20.2089 16.0149 20.2068 16.0241 20.2029 16.0329H21.3033L22.9802 12.7451H21.8766V12.7452Z" fill="white"/>
<path d="M17.6901 12.7452L16.0268 16.0062C16.0224 16.0149 16.0203 16.0241 16.0164 16.0329H17.1168L18.7936 12.7451H17.6901V12.7452Z" fill="white"/>
<path d="M26.0804 12.7452L24.4172 16.0062C24.4127 16.0149 24.4107 16.0241 24.4067 16.0329H25.5071L27.1839 12.7451H26.0804V12.7452Z" fill="white"/>
<path d="M28.2134 25.6287H14.7736C14.0134 25.6287 13.3972 25.0124 13.3972 24.2523V16.0415H29.5899V24.2523C29.5898 25.0124 28.9736 25.6287 28.2134 25.6287Z" fill="#F2AB1D"/>
<path d="M29.9974 7.11181L13.3855 12.1805L12.8586 10.114C12.6837 9.42814 13.0726 8.72452 13.7459 8.50902L27.6308 4.06386C28.3352 3.83843 29.0884 4.22892 29.311 4.93509L29.9974 7.11181Z" fill="#F2CA79"/>
<path d="M21.5468 6.0038L20.2998 10.0631L21.4347 9.71684L22.6876 5.63867L21.5468 6.0038Z" fill="white"/>
<path d="M17.2305 7.38759L16.0055 11.3751L17.1403 11.0289L18.3711 7.02246L17.2305 7.38759Z" fill="white"/>
<path d="M27.0296 4.24658L25.8889 4.61181L24.6198 8.74277L25.7548 8.39652L27.0296 4.24658Z" fill="white"/>
<path d="M13.387 13.8214C14.288 13.8214 15.0185 13.0854 15.0185 12.1776C15.0185 11.2697 14.288 10.5337 13.387 10.5337C12.4859 10.5337 11.7554 11.2697 11.7554 12.1776C11.7554 13.0854 12.4859 13.8214 13.387 13.8214Z" fill="#F2AB1D"/>
<path d="M7.2041 26.9311H19.1782V22.791H7.2041V26.9311Z" fill="#5F5FFF"/>
<path d="M7.21018 26.937C11.1923 26.937 14.4204 23.6593 14.4204 19.616C14.4204 15.5727 11.1923 12.2949 7.21018 12.2949C3.22811 12.2949 0 15.5727 0 19.616C0 23.6593 3.22811 26.937 7.21018 26.937Z" fill="#3434EA"/>
<path d="M7.22727 16.9288C7.97956 16.9288 8.58942 16.3135 8.58942 15.5545C8.58942 14.7955 7.97956 14.1802 7.22727 14.1802C6.47497 14.1802 5.86511 14.7955 5.86511 15.5545C5.86511 16.3135 6.47497 16.9288 7.22727 16.9288Z" fill="white"/>
<path d="M3.38022 19.8751C4.13252 19.8751 4.74237 19.2598 4.74237 18.5008C4.74237 17.7418 4.13252 17.1265 3.38022 17.1265C2.62792 17.1265 2.01807 17.7418 2.01807 18.5008C2.01807 19.2598 2.62792 19.8751 3.38022 19.8751Z" fill="white"/>
<path d="M4.8533 24.4269C5.6056 24.4269 6.21546 23.8116 6.21546 23.0525C6.21546 22.2935 5.6056 21.6782 4.8533 21.6782C4.10101 21.6782 3.49115 22.2935 3.49115 23.0525C3.49115 23.8116 4.10101 24.4269 4.8533 24.4269Z" fill="white"/>
<path d="M9.66422 24.4269C10.4165 24.4269 11.0264 23.8116 11.0264 23.0525C11.0264 22.2935 10.4165 21.6782 9.66422 21.6782C8.91192 21.6782 8.30206 22.2935 8.30206 23.0525C8.30206 23.8116 8.91192 24.4269 9.66422 24.4269Z" fill="white"/>
<path d="M11.0395 19.8751C11.7918 19.8751 12.4016 19.2598 12.4016 18.5008C12.4016 17.7418 11.7918 17.1265 11.0395 17.1265C10.2872 17.1265 9.67731 17.7418 9.67731 18.5008C9.67731 19.2598 10.2872 19.8751 11.0395 19.8751Z" fill="white"/>
</svg>
