<svg width="53" height="52" viewBox="0 0 53 52" fill="none" xmlns="http://www.w3.org/2000/svg">
<path d="M12.5687 50.0298C16.173 50.0298 20.36 48.8069 24.7341 46.5053C24.1586 46.1506 23.5956 45.7884 23.0452 45.4188C19.15 47.3489 15.5577 48.3323 12.5756 48.3323C11.4438 48.396 10.3107 48.2325 9.24306 47.8515C8.17541 47.4705 7.19481 46.8797 6.35901 46.114C3.09883 42.8581 3.44124 36.4501 7.27124 28.972C7.83592 27.8564 8.49671 26.7013 9.23216 25.5394C13.2962 19.1879 18.6195 13.7373 24.8731 9.52423C24.301 9.18554 23.7335 8.86773 23.1705 8.5708C17.5446 12.5352 12.6611 17.4597 8.74386 23.1185C7.99811 24.2032 7.29956 25.3145 6.66881 26.4233C1.64766 35.241 1.06239 43.2502 5.13955 47.3291C6.93141 49.121 9.43039 50.0298 12.5687 50.0298Z" fill="black"/>
<path d="M40.3734 50.0298C43.5092 50.0298 46.0082 49.121 47.8 47.3292C51.6746 43.4537 51.3297 36.0271 46.9796 27.732C46.6312 28.3001 46.2679 28.8651 45.8897 29.4269C49.5018 36.7076 49.7747 42.9242 46.5848 46.114C45.7494 46.8788 44.7696 47.469 43.703 47.8499C42.6363 48.2309 41.5043 48.3949 40.3734 48.3324C37.2729 48.3324 33.5184 47.282 29.4472 45.1983C28.3316 44.6268 27.1756 43.9677 26.0145 43.2383C22.6475 41.0949 19.5285 38.5849 16.7146 35.7542C14.2154 33.2586 11.9647 30.5259 9.99426 27.5947C9.65442 28.1697 9.33661 28.7375 9.04083 29.2982C10.9629 32.04 13.123 34.607 15.496 36.9694C17.9772 39.4677 20.6858 41.7293 23.5868 43.7249C24.6415 44.45 25.7202 45.1288 26.8873 45.8016C31.7437 48.5709 36.407 50.0298 40.3734 50.0298Z" fill="black"/>
<path d="M28.2054 5.49067C28.7735 5.83908 29.3382 6.20209 29.8994 6.57968C33.7492 4.67369 37.3707 3.66191 40.3931 3.66191C41.5222 3.59741 42.6528 3.7613 43.7171 4.1438C44.7814 4.52629 45.7576 5.11952 46.5874 5.888C49.8433 9.14217 49.5009 15.5501 45.6709 23.0291C45.1036 24.1447 44.4428 25.3049 43.7099 26.4617C41.5672 29.8277 39.0577 32.9456 36.2276 35.7583C33.7321 38.2561 30.9998 40.5053 28.069 42.4743C28.6411 42.8124 29.2083 43.1299 29.7707 43.4269C32.5094 41.5004 35.0766 39.341 37.4436 36.9726C39.9417 34.492 42.203 31.784 44.1982 28.8835C44.9483 27.7927 45.646 26.6814 46.2733 25.5787C51.2944 16.761 51.8806 8.75085 47.8025 4.67369C43.9279 0.793912 36.5005 1.1389 28.2054 5.49067Z" fill="black"/>
<path d="M26.4711 20.8521C29.3148 20.8521 31.6201 20.0837 31.6201 19.1358C31.6201 18.1879 29.3148 17.4194 26.4711 17.4194C23.6274 17.4194 21.3221 18.1879 21.3221 19.1358C21.3221 20.0837 23.6274 20.8521 26.4711 20.8521Z" fill="black"/>
<path d="M31.6201 21.48C30.0132 22.2424 28.2491 22.6152 26.4711 22.5681C24.6931 22.6152 22.929 22.2424 21.3221 21.48V23.4263C21.3221 24.027 23.277 25.1426 26.4711 25.1426C29.6652 25.1426 31.6201 24.027 31.6201 23.4263V21.48Z" fill="black"/>
<path d="M21.3221 30.0615V32.0079C21.3221 32.6086 23.277 33.7242 26.4711 33.7242C29.6652 33.7242 31.6201 32.6086 31.6201 32.0079V30.0615C30.0132 30.824 28.2491 31.1968 26.4711 31.1497C24.6931 31.1968 22.929 30.824 21.3221 30.0615Z" fill="black"/>
<path d="M31.6201 25.771C30.0132 26.5334 28.2491 26.9062 26.4711 26.8592C24.6931 26.9062 22.929 26.5334 21.3221 25.771V27.7173C21.3221 28.318 23.277 29.4337 26.4711 29.4337C29.6652 29.4337 31.6201 28.318 31.6201 27.7173V25.771Z" fill="black"/>
<path d="M26.0472 6.19874C17.2278 1.17674 9.22191 0.591467 5.1396 4.66948C1.26411 8.54326 1.6091 15.9707 5.96087 24.2649C6.30986 23.6962 6.67286 23.1307 7.04988 22.5683C3.43785 15.2867 3.16496 9.06931 6.35477 5.88208C7.18453 5.11359 8.16076 4.52036 9.22507 4.13787C10.2894 3.75538 11.4199 3.59148 12.549 3.65599C15.6908 3.65599 19.477 4.74157 23.4967 6.79688C24.6123 7.36842 25.7691 8.02836 26.9294 8.75694C30.2969 10.8998 33.4155 13.4108 36.2276 16.2436C38.7269 18.7392 40.9776 21.4718 42.9479 24.4031C43.2878 23.831 43.6056 23.2631 43.9013 22.6996C41.9791 19.9576 39.8191 17.3904 37.4462 15.0276C34.9649 12.5297 32.2562 10.2684 29.3554 8.27293C28.2629 7.52461 27.1516 6.82692 26.0472 6.19874Z" fill="black"/>
</svg>
