<svg width="51" height="51" viewBox="0 0 51 51" fill="none" xmlns="http://www.w3.org/2000/svg">
<g clip-path="url(#clip0_20924_8199)">
<path fill-rule="evenodd" clip-rule="evenodd" d="M34.1464 17.2152C29.888 12.002 21.6198 11.8749 17.185 16.9545C13.9931 20.6105 13.8586 25.8591 16.8594 29.6571L20.795 34.6385C20.996 34.8929 21.3114 35.0436 21.6471 35.0455L26.0753 35.0695L30.0353 35.0907C30.3888 35.0926 30.7207 34.9292 30.9223 34.6542L34.9532 29.1506C37.4703 25.7142 37.3445 21.1305 34.6423 17.8224L34.1464 17.2152ZM15.5327 15.6622C20.8429 9.57982 30.7432 9.73195 35.8421 15.9742L36.3381 16.5815C39.612 20.5894 39.7643 26.1431 36.7148 30.3066L32.6837 35.8101C32.0795 36.6353 31.084 37.1251 30.0232 37.1195L26.0632 37.0984L21.6348 37.0742C20.6277 37.0688 19.6815 36.6169 19.0784 35.8535L15.1428 30.8724C11.5496 26.3243 11.7107 20.0398 15.5327 15.6622Z" fill="black"/>
<path fill-rule="evenodd" clip-rule="evenodd" d="M20.9258 43.011C20.9258 42.4348 21.393 41.9675 21.9692 41.9675H29.8262C30.4024 41.9675 30.8696 42.4348 30.8696 43.011C30.8696 43.5872 30.4024 44.0545 29.8262 44.0545H21.9692C21.393 44.0545 20.9258 43.5872 20.9258 43.011Z" fill="black"/>
<path fill-rule="evenodd" clip-rule="evenodd" d="M20.0049 35.2864C20.5812 35.2864 21.0484 35.7534 21.0484 36.3299V37.3733C21.0484 37.9495 21.5156 38.4168 22.0919 38.4168H29.3963C29.9725 38.4168 30.4397 37.9495 30.4397 37.3733V36.3299C30.4397 35.7534 30.9068 35.2864 31.4832 35.2864C32.0594 35.2864 32.5267 35.7534 32.5267 36.3299V37.3733C32.5267 39.1022 31.1251 40.5038 29.3963 40.5038H22.0919C20.363 40.5038 18.9614 39.1022 18.9614 37.3733V36.3299C18.9614 35.7534 19.4286 35.2864 20.0049 35.2864Z" fill="black"/>
<path fill-rule="evenodd" clip-rule="evenodd" d="M40.4907 23.72C40.4907 23.1438 40.958 22.6765 41.5342 22.6765H45.7081C46.2843 22.6765 46.7516 23.1438 46.7516 23.72C46.7516 24.2964 46.2843 24.7635 45.7081 24.7635H41.5342C40.958 24.7635 40.4907 24.2964 40.4907 23.72Z" fill="black"/>
<path fill-rule="evenodd" clip-rule="evenodd" d="M38.5374 35.4093C38.8313 34.9136 39.4765 34.7406 39.9789 35.0232L43.5935 37.0567C44.0958 37.3393 44.2649 37.9702 43.971 38.466C43.6772 38.9617 43.0319 39.1347 42.5298 38.8521L38.9149 36.8186C38.4126 36.536 38.2436 35.9051 38.5374 35.4093Z" fill="black"/>
<path fill-rule="evenodd" clip-rule="evenodd" d="M5.01221 23.72C5.01221 23.1438 5.47939 22.6765 6.05569 22.6765H10.2296C10.8059 22.6765 11.2731 23.1438 11.2731 23.72C11.2731 24.2964 10.8059 24.7635 10.2296 24.7635H6.05569C5.47939 24.7635 5.01221 24.2964 5.01221 23.72Z" fill="black"/>
<path fill-rule="evenodd" clip-rule="evenodd" d="M8.72637 8.37877C9.13019 7.96764 9.79925 7.95295 10.2207 8.34596L13.2362 11.1579C13.6577 11.5509 13.672 12.2028 13.2682 12.614C12.8643 13.0251 12.1953 13.0398 11.7738 12.6468L8.75834 9.83486C8.33686 9.44182 8.32254 8.78992 8.72637 8.37877Z" fill="black"/>
<path fill-rule="evenodd" clip-rule="evenodd" d="M43.2258 8.77429C42.822 8.36314 42.1529 8.34845 41.7313 8.74148L38.7159 11.5534C38.2943 11.9464 38.2801 12.5983 38.6839 13.0095C39.0878 13.4206 39.7568 13.4353 40.1782 13.0423L43.1939 10.2304C43.6152 9.83735 43.6296 9.18542 43.2258 8.77429Z" fill="black"/>
<path fill-rule="evenodd" clip-rule="evenodd" d="M8.27664 38.466C7.98285 37.9702 8.15188 37.3393 8.65417 37.0567L12.2689 35.0232C12.7712 34.7406 13.4165 34.9136 13.7103 35.4093C14.004 35.9051 13.835 36.536 13.3328 36.8186L9.71804 38.8521C9.21575 39.1347 8.57042 38.9617 8.27664 38.466Z" fill="black"/>
<path fill-rule="evenodd" clip-rule="evenodd" d="M25.8819 3.35889C26.4581 3.35889 26.9253 3.82607 26.9253 4.40237V8.46927C26.9253 9.04556 26.4581 9.51275 25.8819 9.51275C25.3056 9.51275 24.8384 9.04556 24.8384 8.46927V4.40237C24.8384 3.82607 25.3056 3.35889 25.8819 3.35889Z" fill="black"/>
<path fill-rule="evenodd" clip-rule="evenodd" d="M28.0222 15.5507C28.2044 15.004 28.7954 14.7085 29.342 14.8908C29.8743 15.0682 30.4201 15.319 30.9566 15.6355C31.4529 15.9283 31.618 16.5681 31.325 17.0644C31.0322 17.5608 30.3925 17.7257 29.896 17.4329C29.4755 17.1848 29.0634 16.9977 28.6821 16.8706C28.1353 16.6884 27.8398 16.0974 28.0222 15.5507ZM32.4689 18.253C32.8877 17.857 33.548 17.8754 33.9441 18.2941C35.0154 19.4268 35.7362 20.6921 35.9635 22.2764C36.1864 23.8289 35.9203 25.5863 35.2195 27.6889C35.0371 28.2357 34.4462 28.5312 33.8995 28.3488C33.3527 28.1666 33.0572 27.5758 33.2396 27.029C33.8882 25.0829 34.0562 23.6769 33.8976 22.5729C33.7438 21.5009 33.2682 20.6166 32.4277 19.7281C32.0318 19.3094 32.0502 18.649 32.4689 18.253Z" fill="black"/>
</g>
<defs>
<clipPath id="clip0_20924_8199">
<rect width="50.087" height="50.087" fill="white" transform="translate(0.838379 0.228516)"/>
</clipPath>
</defs>
</svg>
