<svg width="50" height="50" viewBox="0 0 50 50" fill="none" xmlns="http://www.w3.org/2000/svg">
<path d="M10.3851 30.2399C10.5377 30.3925 10.7376 30.4688 10.9375 30.4688C11.1374 30.4688 11.3373 30.3925 11.4899 30.2399L16.1774 25.5524C16.4825 25.2472 16.4825 24.7528 16.1774 24.4476L11.4899 19.7601C11.1847 19.455 10.6903 19.455 10.3851 19.7601L5.69763 24.4476C5.39246 24.7528 5.39246 25.2472 5.69763 25.5524L10.3851 30.2399ZM10.9375 21.4172L14.5203 25L10.9375 28.5828L7.35474 25L10.9375 21.4172Z" fill="black"/>
<path d="M17.9688 12.5V37.5C17.9688 37.9318 18.3182 38.2812 18.75 38.2812H28.125C28.5568 38.2812 28.9062 37.9318 28.9062 37.5C28.9062 37.0682 28.5568 36.7188 28.125 36.7188H19.5312V19.5312H42.9688V36.7188H34.375C33.9432 36.7188 33.5938 37.0682 33.5938 37.5C33.5938 37.9318 33.9432 38.2812 34.375 38.2812H43.75C44.1818 38.2812 44.5312 37.9318 44.5312 37.5V12.5C44.5312 12.0682 44.1818 11.7188 43.75 11.7188H18.75C18.3182 11.7188 17.9688 12.0682 17.9688 12.5ZM19.5312 13.2812H42.9688V17.9688H19.5312V13.2812Z" fill="black"/>
<path d="M21.875 16.4062C22.3065 16.4062 22.6562 16.0565 22.6562 15.625C22.6562 15.1935 22.3065 14.8438 21.875 14.8438C21.4435 14.8438 21.0938 15.1935 21.0938 15.625C21.0938 16.0565 21.4435 16.4062 21.875 16.4062Z" fill="black"/>
<path d="M25 16.4062C25.4315 16.4062 25.7812 16.0565 25.7812 15.625C25.7812 15.1935 25.4315 14.8438 25 14.8438C24.5685 14.8438 24.2188 15.1935 24.2188 15.625C24.2188 16.0565 24.5685 16.4062 25 16.4062Z" fill="black"/>
<path d="M33.5938 32.8125V23.4375C33.5938 23.0057 33.2443 22.6562 32.8125 22.6562H23.4375C23.0057 22.6562 22.6562 23.0057 22.6562 23.4375V32.8125C22.6562 33.2443 23.0057 33.5938 23.4375 33.5938H32.8125C33.2443 33.5938 33.5938 33.2443 33.5938 32.8125ZM32.0312 32.0312H24.2188V24.2188H32.0312V32.0312Z" fill="black"/>
<path d="M35.9375 24.2188H39.0625C39.4943 24.2188 39.8438 23.8693 39.8438 23.4375C39.8438 23.0057 39.4943 22.6562 39.0625 22.6562H35.9375C35.5057 22.6562 35.1562 23.0057 35.1562 23.4375C35.1562 23.8693 35.5057 24.2188 35.9375 24.2188Z" fill="black"/>
<path d="M35.9375 33.5938H39.0625C39.4943 33.5938 39.8438 33.2443 39.8438 32.8125C39.8438 32.3807 39.4943 32.0312 39.0625 32.0312H35.9375C35.5057 32.0312 35.1562 32.3807 35.1562 32.8125C35.1562 33.2443 35.5057 33.5938 35.9375 33.5938Z" fill="black"/>
<path d="M35.9375 27.3438H39.0625C39.4943 27.3438 39.8438 26.9943 39.8438 26.5625C39.8438 26.1307 39.4943 25.7812 39.0625 25.7812H35.9375C35.5057 25.7812 35.1562 26.1307 35.1562 26.5625C35.1562 26.9943 35.5057 27.3438 35.9375 27.3438Z" fill="black"/>
<path d="M35.9375 30.4688H39.0625C39.4943 30.4688 39.8438 30.1193 39.8438 29.6875C39.8438 29.2557 39.4943 28.9062 39.0625 28.9062H35.9375C35.5057 28.9062 35.1562 29.2557 35.1562 29.6875C35.1562 30.1193 35.5057 30.4688 35.9375 30.4688Z" fill="black"/>
<path d="M10.1562 10.0772V17.1875C10.1562 17.6193 10.5057 17.9688 10.9375 17.9688C11.3693 17.9688 11.7188 17.6193 11.7188 17.1875V10.0772C13.247 9.76572 14.4532 8.55951 14.7647 7.03125H29.0502C29.2862 7.6931 29.8069 8.21381 30.4688 8.44984V9.375C30.4688 9.80682 30.8182 10.1562 31.25 10.1562C31.6818 10.1562 32.0312 9.80682 32.0312 9.375V8.44984C32.9387 8.12626 33.5938 7.26719 33.5938 6.25C33.5938 4.95758 32.5424 3.90625 31.25 3.90625C30.2328 3.90625 29.3737 4.56133 29.0502 5.46875H14.7647C14.4017 3.68795 12.8238 2.34375 10.9375 2.34375C8.78372 2.34375 7.03125 4.09622 7.03125 6.25C7.03125 8.13627 8.37545 9.71422 10.1562 10.0772ZM31.25 5.46875C31.6803 5.46875 32.0312 5.81894 32.0312 6.25C32.0312 6.68106 31.6803 7.03125 31.25 7.03125C30.8197 7.03125 30.4688 6.68106 30.4688 6.25C30.4688 5.81894 30.8197 5.46875 31.25 5.46875ZM10.9375 3.90625C12.2299 3.90625 13.2812 4.95758 13.2812 6.25C13.2812 7.54242 12.2299 8.59375 10.9375 8.59375C9.64508 8.59375 8.59375 7.54242 8.59375 6.25C8.59375 4.95758 9.64508 3.90625 10.9375 3.90625Z" fill="black"/>
<path d="M10.9375 32.0312C10.5057 32.0312 10.1562 32.3807 10.1562 32.8125V39.9228C8.37545 40.2858 7.03125 41.8637 7.03125 43.75C7.03125 45.9038 8.78372 47.6562 10.9375 47.6562C12.8238 47.6562 14.4017 46.312 14.7647 44.5312H29.0502C29.3737 45.4387 30.2328 46.0938 31.25 46.0938C32.5424 46.0938 33.5938 45.0424 33.5938 43.75C33.5938 42.7328 32.9387 41.8737 32.0312 41.5502V40.625C32.0312 40.1932 31.6818 39.8438 31.25 39.8438C30.8182 39.8438 30.4688 40.1932 30.4688 40.625V41.5502C29.8069 41.7862 29.2862 42.3069 29.0502 42.9688H14.7647C14.4532 41.4405 13.247 40.2343 11.7188 39.9228V32.8125C11.7188 32.3807 11.3693 32.0312 10.9375 32.0312ZM31.25 42.9688C31.6803 42.9688 32.0312 43.3189 32.0312 43.75C32.0312 44.1811 31.6803 44.5312 31.25 44.5312C30.8197 44.5312 30.4688 44.1811 30.4688 43.75C30.4688 43.3189 30.8197 42.9688 31.25 42.9688ZM13.2812 43.75C13.2812 45.0424 12.2299 46.0938 10.9375 46.0938C9.64508 46.0938 8.59375 45.0424 8.59375 43.75C8.59375 42.4576 9.64508 41.4062 10.9375 41.4062C12.2299 41.4062 13.2812 42.4576 13.2812 43.75Z" fill="black"/>
<path d="M31.25 38.2812C31.6815 38.2812 32.0312 37.9315 32.0312 37.5C32.0312 37.0685 31.6815 36.7188 31.25 36.7188C30.8185 36.7188 30.4688 37.0685 30.4688 37.5C30.4688 37.9315 30.8185 38.2812 31.25 38.2812Z" fill="black"/>
</svg>
