<svg width="100" height="100" viewBox="0 0 100 100" fill="none" xmlns="http://www.w3.org/2000/svg">
<path d="M7 68.1277H9.86624V56.7528L14.3033 66.669C14.8269 67.8691 15.5436 68.2939 16.949 68.2939C18.3547 68.2939 19.0437 67.8693 19.5675 66.669L24.0046 56.7528V68.1275H26.8708V56.7714C26.8708 55.6634 26.4298 55.1279 25.5205 54.8511C23.3433 54.1679 21.8825 54.7587 21.2209 56.236L16.8664 66.0226L12.6499 56.236C12.016 54.7587 10.5278 54.1679 8.35054 54.8511C7.44103 55.1279 7 55.6636 7 56.7712V68.1277ZM29.2541 58.8692H32.1194V65.1359C32.0926 65.4764 32.2281 66.2754 33.7983 66.3C34.5993 66.3128 39.9807 66.3 40.0309 66.3V58.8387H42.9029C42.9161 58.8387 42.9 69.0142 42.9003 69.0575C42.9159 71.567 39.8019 72.1121 38.3666 72.1543H29.3161V70.2162C29.3322 70.2162 38.3599 70.2183 38.3826 70.216C40.2273 70.0202 40.0095 69.0987 40.0092 68.7885V68.0331H33.917C31.0824 68.0068 29.2777 66.7635 29.2554 65.3335C29.2532 65.2009 29.3166 58.9317 29.2538 58.8689L29.2541 58.8692Z" fill="#00618A"/>
<path d="M45.1116 68.1272H53.3519C54.3165 68.1272 55.2535 67.9242 55.9978 67.5732C57.2379 67.001 57.8443 66.2255 57.8443 65.2097V63.1047C57.8443 62.2737 57.1553 61.498 55.8048 60.9812C55.0881 60.704 54.2063 60.5564 53.3519 60.5564H49.879C48.722 60.5564 48.1707 60.2056 48.033 59.4301C48.0053 59.3377 48.0053 59.2637 48.0053 59.1715V57.8606C48.0053 57.7866 48.0053 57.7126 48.033 57.6204C48.1707 57.0296 48.474 56.8631 49.4935 56.771C49.5761 56.771 49.6864 56.7523 49.7692 56.7523H57.9545V54.8323H49.9069C48.7494 54.8323 48.143 54.9061 47.5919 55.072C45.8832 55.6077 45.1391 56.4571 45.1391 57.9342V59.6147C45.1391 60.9074 46.5999 62.0153 49.0525 62.2737C49.3284 62.2921 49.6038 62.3105 49.8792 62.3105H52.8557C52.9662 62.3105 53.0765 62.3105 53.159 62.3291C54.0685 62.4031 54.4542 62.5691 54.7301 62.9015C54.8952 63.0675 54.9504 63.2339 54.9504 63.4186V65.0986C54.9504 65.3021 54.8127 65.5607 54.5372 65.7821C54.2891 66.0037 53.8757 66.1515 53.3244 66.1885C53.2142 66.1885 53.1316 66.2069 53.0213 66.2069H45.1114V68.127L45.1116 68.1272ZM75.7247 64.785C75.7247 66.7607 77.1852 67.8688 80.1343 68.0904C80.4097 68.1088 80.6856 68.1272 80.961 68.1272H88.4299V66.2069H80.9059C79.2248 66.2069 78.5909 65.7821 78.5909 64.7666V54.832H75.7247V64.785ZM59.6736 64.8858V58.0392C59.6736 56.2999 60.8889 55.245 63.2913 54.9119C63.5475 54.8751 63.8059 54.8566 64.0647 54.8565H69.5052C69.7813 54.8565 70.0301 54.8751 70.3062 54.9119C72.7089 55.245 73.924 56.2999 73.924 58.0392V64.8855C73.924 66.2964 73.4079 67.0519 72.2185 67.544L75.0419 70.1052H71.7139L69.4298 68.033L67.1302 68.1795H64.0647C63.5399 68.1795 62.9878 68.1052 62.38 67.9388C60.5574 67.4393 59.6736 66.477 59.6736 64.8855V64.8858ZM62.767 64.7193C62.767 64.812 62.7947 64.9044 62.8224 65.0154C62.988 65.811 63.7337 66.2552 64.8659 66.2552H67.4699L65.078 64.085H68.4057L70.4921 65.9777C70.8765 65.7718 71.1296 65.4568 71.218 65.0524C71.2454 64.96 71.2454 64.8674 71.2454 64.7749V58.2061C71.2454 58.1321 71.2454 58.0394 71.218 57.9468C71.0521 57.2066 70.3065 56.7813 69.2019 56.7813H64.8659C63.5957 56.7813 62.7672 57.3364 62.7672 58.2061V64.7193H62.767Z" fill="#E48E00"/>
<path d="M90.9514 51.647C89.1898 51.599 87.8439 51.7637 86.6934 52.2513C86.3664 52.3899 85.845 52.3935 85.7917 52.8053C85.9713 52.9947 85.9992 53.2773 86.1421 53.5101C86.4166 53.9569 86.8806 54.5556 87.2944 54.8697C87.7466 55.2128 88.2126 55.5796 88.6974 55.8768C89.5596 56.405 90.5222 56.7067 91.3525 57.2361C91.8417 57.5481 92.3278 57.9411 92.8053 58.2933C93.0412 58.4673 93.1999 58.7381 93.5065 58.8473V58.7968C93.3454 58.5907 93.3039 58.3072 93.1559 58.0918L92.5046 57.4373C91.8678 56.5879 91.0594 55.8418 90.2002 55.222C89.515 54.7277 87.9812 54.0601 87.6953 53.2584L87.645 53.208C88.1309 53.153 88.6999 52.9763 89.1482 52.8558C89.9015 52.6526 90.5744 52.7051 91.3525 52.5032C91.7029 52.4025 92.0538 52.3015 92.4046 52.2011V51.9996C92.0114 51.5941 91.731 51.0575 91.3021 50.6906C90.1805 49.7305 88.9561 48.7714 87.6953 47.9717C86.996 47.528 86.1318 47.2398 85.3908 46.8639C85.1415 46.7376 84.7034 46.6719 84.5389 46.461C84.1496 45.9624 83.9376 45.33 83.6372 44.7491C83.0084 43.5322 82.3909 42.203 81.8338 40.9224C81.4537 40.0494 81.2055 39.1885 80.7317 38.405C78.4569 34.6462 76.0082 32.3778 72.2151 30.1477C71.408 29.6736 70.4363 29.486 69.4093 29.2415L67.7562 29.1406C67.4198 28.9993 67.0698 28.5859 66.754 28.3854C65.4975 27.5877 62.2746 25.8522 61.3438 28.1337C60.7562 29.5737 62.2221 30.979 62.7464 31.7087C63.1144 32.2206 63.5856 32.7944 63.8485 33.3702C64.0215 33.7486 64.0514 34.1279 64.1994 34.5283C64.5636 35.5145 64.8801 36.5874 65.3515 37.4988C65.5896 37.96 65.8521 38.4458 66.1532 38.8581C66.3378 39.1113 66.654 39.2228 66.704 39.6136C66.3947 40.0487 66.377 40.7239 66.2032 41.275C65.4202 43.7563 65.7155 46.8401 66.8545 48.6765C67.204 49.2402 68.0271 50.4492 69.1589 49.9856C70.149 49.5802 69.9278 48.3243 70.211 47.2165C70.2751 46.9653 70.2356 46.7804 70.3613 46.6122V46.6627L71.263 48.4751C71.9303 49.5551 73.115 50.6841 74.1187 51.4458C74.6392 51.8408 75.049 52.5238 75.7219 52.7549V52.7044H75.6717C75.5413 52.5003 75.3373 52.4155 75.1708 52.2513C74.7787 51.865 74.3428 51.3848 74.0185 50.9422C73.1056 49.6967 72.2988 48.3335 71.5638 46.9143C71.2127 46.2369 70.9076 45.4891 70.6117 44.7996C70.4976 44.5338 70.499 44.1318 70.2613 43.9938C69.9372 44.4992 69.4598 44.9079 69.2091 45.5046C68.8083 46.4583 68.7565 47.6214 68.6081 48.8275C68.5201 48.8591 68.559 48.8373 68.5076 48.8777C67.8099 48.7086 67.5647 47.9868 67.3055 47.3674C66.6493 45.8013 66.5277 43.2794 67.1047 41.4767C67.2542 41.0101 67.9291 39.5409 67.6559 39.1102C67.5256 38.6802 67.0953 38.4314 66.8545 38.1031C66.5565 37.6968 66.259 37.1621 66.0528 36.6931C65.516 35.4719 65.2653 34.1012 64.7002 32.8668C64.4301 32.2767 63.9733 31.6795 63.5981 31.1549C63.1827 30.5739 62.7176 30.1455 62.3957 29.4427C62.2812 29.1931 62.1257 28.7934 62.2953 28.5365C62.3495 28.3634 62.4257 28.2909 62.5962 28.2344C62.8868 28.0094 63.6961 28.3093 63.9987 28.4358C64.8022 28.7712 65.4727 29.0906 66.1532 29.5435C66.4799 29.7613 66.8103 30.1823 67.2051 30.2989H67.6559C68.3612 30.4618 69.1513 30.3494 69.8102 30.5506C70.9748 30.9064 72.0185 31.4595 72.9661 32.0611C75.854 33.8935 78.2149 36.5019 79.83 39.6136C80.0898 40.1144 80.2023 40.5927 80.431 41.124C80.8928 42.1958 81.4744 43.2985 81.9338 44.3465C82.3922 45.3917 82.839 46.4471 83.487 47.3172C83.8278 47.7746 85.1435 48.02 85.7412 48.2736C86.1606 48.4517 86.8474 48.6372 87.2444 48.8777C88.0028 49.3375 88.7376 49.8849 89.4489 50.3884C89.8044 50.6401 90.897 51.1921 90.9514 51.647Z" fill="#00618A"/>
<path fill-rule="evenodd" clip-rule="evenodd" d="M68.558 32.4635C68.1906 32.4568 67.9308 32.5039 67.656 32.564V32.6145H67.7063C67.8815 32.9763 68.1906 33.2091 68.4075 33.5207C68.5744 33.8732 68.7414 34.2257 68.9086 34.5781L68.9586 34.5278C69.2688 34.308 69.411 33.9565 69.4094 33.4202C69.2851 33.2888 69.2666 33.1237 69.159 32.9669C69.0157 32.7578 68.7385 32.6394 68.558 32.4635Z" fill="#00618A"/>
<path fill-rule="evenodd" clip-rule="evenodd" d="M89.7752 66.1524C89.7752 67.4207 90.7724 68.2753 91.8877 68.2753C93.003 68.2753 94 67.4207 94 66.1524C94 64.8844 93.003 64.0298 91.8877 64.0298C90.7724 64.0298 89.7754 64.8844 89.7754 66.1524H89.7752ZM93.5268 66.1524C93.5268 67.1147 92.7948 67.8338 91.8877 67.8338C90.9697 67.8338 90.2486 67.1147 90.2486 66.1524C90.2486 65.1901 90.9695 64.471 91.8877 64.471C92.7948 64.471 93.5268 65.1901 93.5268 66.1524ZM92.4569 67.3637H92.9298L92.2372 66.2998C92.6089 66.2601 92.8903 66.0788 92.8903 65.6374C92.8903 65.1448 92.5807 64.9412 91.9837 64.9412H91.0429V67.3637H91.4485V66.3166H91.8257L92.4569 67.3637ZM91.4485 65.977V65.2808H91.9158C92.1582 65.2808 92.4511 65.3261 92.4511 65.6091C92.4511 65.9485 92.1864 65.977 91.8819 65.977H91.4485Z" fill="#E48E00"/>
</svg>
