<svg width="53" height="52" viewBox="0 0 53 52" fill="none" xmlns="http://www.w3.org/2000/svg">
<path d="M16.09 14.2408C9.20375 14.2225 4.24771 19.5712 4.24771 25.9524C4.24771 32.3271 9.15786 37.667 16.0425 37.771C18.469 37.8075 20.3223 36.13 22.1478 34.1126C23.9733 32.0952 25.7809 29.5172 27.5641 26.9739C29.3474 24.4306 31.1047 21.9131 32.7191 20.1204C34.3336 18.3275 35.8017 17.4716 36.4369 17.4716C41.7632 17.4716 45.0841 21.1641 45.0841 25.9524C45.0841 30.6576 41.2622 34.457 36.4726 34.457C34.5207 34.457 32.7321 33.8276 31.2938 32.7585C31.1263 32.6136 30.9307 32.5049 30.7192 32.4391C30.5078 32.3733 30.285 32.3519 30.0649 32.3762C29.8448 32.4004 29.6321 32.4699 29.44 32.5801C29.248 32.6904 29.0807 32.839 28.9488 33.0168C28.8168 33.1947 28.723 33.3979 28.6732 33.6137C28.6233 33.8295 28.6186 34.0532 28.6592 34.2709C28.6998 34.4886 28.7849 34.6956 28.9092 34.8789C29.0335 35.0622 29.1942 35.2177 29.3814 35.336C31.3573 36.8047 33.8201 37.676 36.4726 37.676C42.9816 37.676 48.303 32.4169 48.303 25.9524C48.303 19.5712 43.3444 14.2526 36.4369 14.2526C34.0138 14.2526 32.1574 15.9431 30.3317 17.9704C28.5059 19.9978 26.71 22.5783 24.9272 25.121C23.1444 27.6636 21.3707 30.171 19.7603 31.9508C18.1499 33.7305 16.7134 34.5615 16.09 34.5521C10.7754 34.4718 7.45476 30.7474 7.45476 25.9524C7.45476 21.1641 10.7996 17.4438 16.0781 17.4597C18.3947 17.4658 20.3035 18.2075 21.7439 19.4077C21.9068 19.5433 22.0949 19.6457 22.2974 19.7085C22.4999 19.7714 22.7127 19.7936 22.9238 19.774C23.1349 19.7545 23.3401 19.6934 23.5276 19.5944C23.715 19.4954 23.8811 19.3603 24.0163 19.197C24.1515 19.0337 24.2531 18.8453 24.3153 18.6427C24.3776 18.44 24.3992 18.227 24.379 18.0159C24.3588 17.8049 24.2972 17.5999 24.1976 17.4127C24.098 17.2256 23.9625 17.0599 23.7988 16.9252C21.774 15.238 19.1009 14.2502 16.09 14.2408Z" fill="black"/>
</svg>
