<svg width="118" height="87" viewBox="0 0 118 87" fill="none" xmlns="http://www.w3.org/2000/svg">
<path d="M0.122036 24.0185C1.46667 10.9795 12.3456 0.646616 25.4246 0.0315626C40.826 -0.7065 53.5385 11.5945 53.5385 26.9709C53.5385 38.2878 46.5711 47.8827 36.7923 51.942L51.8271 82.9407C52.6828 84.7857 51.3381 87 49.3823 87H39.1148C38.2591 87 37.4036 86.631 36.9146 85.8929L4.64469 42.1012C1.2221 36.9348 -0.48909 30.6611 0.122036 24.0185Z" fill="#0EB3AF"/>
<path d="M88.9265 0.0315626C104.736 -0.7065 117.785 11.5945 117.785 26.9709C117.785 38.2878 110.633 47.8827 100.595 51.942L116.028 82.9407C116.906 84.7857 115.526 87 113.519 87H102.979C102.101 87 101.223 86.631 100.721 85.8929L67.5966 42.1012C64.0834 37.0578 62.3269 30.7841 63.0797 24.1415C64.4599 10.9795 75.6266 0.646616 88.9265 0.0315626Z" fill="#0EB3AF"/>
</svg>
