<svg width="30" height="30" viewBox="0 0 30 30" fill="none" xmlns="http://www.w3.org/2000/svg">
<g clip-path="url(#clip0_20905_9834)">
<path d="M9.84128 9.15892L6.79048 9.16319L6.7821 4.02213C6.78193 3.87828 6.89835 3.76156 7.04214 3.76133L9.5721 3.75781C9.71595 3.75764 9.83267 3.87406 9.8329 4.01785L9.84128 9.15892Z" fill="#FFB125"/>
<path d="M9.83294 4.01785C9.83277 3.874 9.71599 3.75758 9.57214 3.75781L8.06377 3.75992C8.19754 3.7707 8.30318 3.88133 8.30336 4.01785L8.31174 9.15886L6.79053 9.16097V9.16308L9.84132 9.1588L9.83294 4.01785Z" fill="#FF901D"/>
<path d="M14.8862 3.66455L6.71399 11.363L6.73034 23.0664C6.73075 23.3752 6.98141 23.6251 7.29014 23.6247L22.5378 23.6034C22.8466 23.603 23.0965 23.3523 23.0961 23.0436L23.0797 11.3401L14.8862 3.66455Z" fill="#E1EFFB"/>
<path d="M23.0798 11.3401L14.8862 3.66455L13.5387 4.93398L20.3772 11.3401L20.3935 23.0435C20.3939 23.3522 20.144 23.6029 19.8353 23.6033H22.5379C22.8466 23.6029 23.0966 23.3522 23.0961 23.0435L23.0798 11.3401Z" fill="#CCDFED"/>
<path d="M25.9625 13.9192C25.6866 13.9196 25.41 13.819 25.1928 13.6155L14.8863 3.9606L4.60678 13.6443C4.15502 14.0699 3.44369 14.0486 3.01824 13.5969C2.59262 13.1451 2.61383 12.4339 3.06565 12.0083L14.1135 1.60075C14.5454 1.19381 15.2194 1.19287 15.6524 1.59858L26.7294 11.9752C27.1824 12.3995 27.2056 13.1107 26.7812 13.5636C26.5603 13.7994 26.2618 13.9187 25.9625 13.9192Z" fill="#FF4C4C"/>
<path d="M26.7812 12.212C26.5603 12.4476 26.2618 12.5671 25.9624 12.5675C25.6865 12.5678 25.41 12.4673 25.1928 12.2638L14.8863 2.60889L4.60677 12.2925C4.15501 12.7181 3.44368 12.6968 3.01824 12.2451C2.98976 12.2149 2.96369 12.1834 2.93919 12.151C2.61541 12.5802 2.63708 13.1923 3.01824 13.5968C3.44368 14.0485 4.15501 14.0698 4.60677 13.6442L14.8863 3.96058L25.1928 13.6155C25.41 13.819 25.6866 13.9195 25.9624 13.9192C26.2618 13.9187 26.5603 13.7993 26.7812 13.5637C27.1604 13.1589 27.1811 12.5484 26.8582 12.1202C26.8344 12.1517 26.8088 12.1824 26.7812 12.212Z" fill="#F33939"/>
<path d="M17.0002 13.313L12.7992 13.3188C12.6021 13.3191 12.4425 13.4792 12.4427 13.6763L12.4566 23.6176L17.3715 23.6108L17.3576 13.6694C17.3573 13.4722 17.1973 13.3127 17.0002 13.313Z" fill="#2D5871"/>
<path d="M17.3575 13.6694C17.3572 13.4723 17.1972 13.3127 17.0001 13.313L14.6266 13.3163C14.7714 13.3616 14.8766 13.4967 14.8768 13.6565L14.8907 23.6142L17.3714 23.6108L17.3575 13.6694Z" fill="#1D4859"/>
<path d="M27.7198 18.5927L21.5277 22.7368L19.6823 22.6332L19.6101 21.9068C19.5026 20.8256 18.6701 19.9578 17.5942 19.8056L12.6499 19.2363C11.5093 19.075 10.4111 18.6927 9.41684 18.1111C8.05934 17.317 6.51499 16.8984 4.94228 16.8984H1.37744V25.0356L10.7991 28.6034C11.1551 28.7039 11.5291 28.734 11.8945 28.6763C11.8967 28.6759 11.8989 28.6756 11.9011 28.6752L21.3865 27.3079C22.1172 27.1913 22.8041 26.8835 23.3776 26.4158L29.5081 20.9021C30.0583 20.4135 30.1603 19.5925 29.7464 18.9841C29.2934 18.3186 28.388 18.1437 27.7198 18.5927Z" fill="#FED9A8"/>
<path d="M29.8271 19.1191L23.7676 24.2198C23.1941 24.6875 22.2408 24.9953 21.5101 25.112L11.901 25.7989C11.8989 25.7992 11.8966 25.7996 11.8945 25.7999C11.529 25.8577 11.155 25.8276 10.799 25.727L1.37732 22.1592V25.0354L10.7989 28.6032C10.9769 28.6535 11.1595 28.6861 11.3432 28.699C11.3891 28.7022 11.4351 28.7042 11.4811 28.7049C11.6191 28.7071 11.7574 28.6978 11.8944 28.6761C11.8966 28.6758 11.8988 28.6754 11.901 28.6751L21.3863 27.3078C21.6147 27.2713 21.8388 27.2162 22.0564 27.1434C22.1 27.1288 22.1433 27.1135 22.1863 27.0975C22.4013 27.0177 22.6095 26.9202 22.8087 26.8063C22.8485 26.7835 22.888 26.76 22.9272 26.7359C23.0836 26.6395 23.2341 26.5325 23.3775 26.4156L29.508 20.9019C30.0185 20.4486 30.1423 19.7094 29.8271 19.1191Z" fill="#F4C892"/>
<path d="M20.4008 22.6747L9.96339 22.257C9.91359 22.255 9.86507 22.2404 9.82253 22.2144L9.26812 21.8767C8.99847 21.7125 9.14302 21.2966 9.45638 21.335L20.4008 22.6747Z" fill="#F4C892"/>
<path d="M2.57882 27.7994H1.16836C0.523065 27.7994 0 27.2763 0 26.6311V16.1933C0 15.548 0.523124 15.0249 1.16836 15.0249H2.57882C3.22411 15.0249 3.74718 15.548 3.74718 16.1933V26.6311C3.74718 27.2764 3.22411 27.7994 2.57882 27.7994Z" fill="#2D5871"/>
<path d="M2.5788 15.0249H1.16833C1.08899 15.0249 1.01165 15.033 0.936768 15.048C1.47108 15.1555 1.87356 15.6273 1.87356 16.1933V26.6311C1.87356 27.197 1.47108 27.6688 0.936768 27.7763C1.01165 27.7913 1.08905 27.7994 1.16833 27.7994H2.5788C3.22409 27.7994 3.74715 27.2763 3.74715 26.6311V16.1933C3.74715 15.548 3.22409 15.0249 2.5788 15.0249Z" fill="#1D4859"/>
</g>
<defs>
<clipPath id="clip0_20905_9834">
<rect width="30" height="30" fill="white"/>
</clipPath>
</defs>
</svg>
