<svg width="50" height="50" viewBox="0 0 50 50" fill="none" xmlns="http://www.w3.org/2000/svg">
<path d="M46.0938 39.8438H45.3125V20.3125C45.3125 18.589 43.9106 17.1875 42.1875 17.1875H38.8985C37.863 17.2129 37.877 18.7302 38.8985 18.75C38.8985 18.75 42.1875 18.75 42.1875 18.75C43.0493 18.75 43.75 19.4511 43.75 20.3125V40.625C43.75 41.0568 44.0998 41.4062 44.5313 41.4062H45.2145C44.8919 42.7573 43.5772 43.7742 42.1875 43.75C42.1875 43.75 7.81251 43.75 7.81251 43.75C6.35911 43.75 5.13421 42.7528 4.7863 41.4062H20.7703L21.3226 41.9586C21.4691 42.1051 21.6679 42.1875 21.875 42.1875H28.125C28.5558 42.2386 28.9501 41.647 29.2298 41.4063C29.2297 41.4063 40.625 41.4063 40.625 41.4063C41.0564 41.4063 41.4062 41.0568 41.4062 40.625C41.4062 40.1932 41.0564 39.8438 40.625 39.8438H28.9062C28.6991 39.8438 28.5004 39.9262 28.3539 40.0726L27.8015 40.625H22.1985C21.9198 40.374 21.522 39.8048 21.0938 39.8438H6.25V20.3125C6.25 19.4512 6.95076 18.75 7.8125 18.75H11.1015C11.533 18.75 11.8828 18.4006 11.8828 17.9688C11.8828 17.5369 11.533 17.1875 11.1015 17.1875H7.8125C6.0894 17.1875 4.6875 18.589 4.6875 20.3125V39.8438H3.90625C3.4748 39.8438 3.125 40.1932 3.125 40.625C3.125 43.2099 5.22766 45.3125 7.8125 45.3125H42.1875C44.6975 45.3699 46.9343 43.1419 46.875 40.625C46.875 40.1932 46.5252 39.8438 46.0938 39.8438Z" fill="black"/>
<path d="M12.8581 20.7817C12.4818 21.0096 12.1417 21.3537 12.2958 21.8353C12.9153 23.8081 13.966 25.7595 15.481 27.1813C15.8227 27.3891 16.1729 27.2365 16.4866 27.0759C18.4274 26.1297 21.2143 27.7088 21.3694 29.8943C21.3766 30.3582 21.5328 30.8444 22.0698 30.9211C23.9987 31.3646 26.0777 31.3592 28.0032 30.9044C28.3396 30.8277 28.5881 30.5257 28.6036 30.1819C28.6434 27.6578 31.6153 25.9635 33.8122 27.2164C34.117 27.3521 34.4729 27.2804 34.7006 27.0378C35.3888 26.3046 35.9946 25.4875 36.5019 24.6094C37.0085 23.7312 37.4133 22.7981 37.704 21.8353C37.8005 21.5164 37.6841 21.1723 37.4144 20.977C36.4179 20.3494 35.7507 19.2702 35.7745 18.106C35.7027 16.9643 36.1896 15.8406 37.1417 15.1558C37.5177 14.9282 37.8582 14.5836 37.7039 14.1021C37.0844 12.1293 36.0337 10.1779 34.5187 8.7562C34.1772 8.54806 33.8268 8.70055 33.5131 8.86157C32.5278 9.29412 31.3971 9.21554 30.371 8.62044C29.381 8.05205 28.7467 7.11212 28.6303 6.04323C28.6221 5.5542 28.4794 5.10731 27.928 5.01556C25.9959 4.57533 23.9241 4.57915 21.9966 5.0331C21.5077 5.14502 21.3746 5.60099 21.3649 6.04707C21.2489 7.21289 20.5189 8.19596 19.4933 8.70664C18.5961 9.23766 17.4731 9.29336 16.4931 8.85772C16.124 8.64851 15.6164 8.5314 15.2991 8.89973C13.9223 10.3639 12.875 12.1772 12.2958 14.1022C12.1458 14.5716 12.4767 14.932 12.8551 15.1558C14.7065 16.4577 14.6996 19.4802 12.8581 20.7817ZM15.7881 18.0649C15.8553 16.5198 15.1901 15.0156 13.9617 14.0358C14.1978 13.3705 14.4957 12.725 14.8513 12.1093C15.2064 11.4937 15.6169 10.9123 16.0746 10.376C17.5359 10.9477 19.1727 10.7738 20.4753 9.94412C21.7715 9.21858 22.6615 7.92081 22.8888 6.44224C24.2709 6.18742 25.725 6.18665 27.1079 6.44147C27.491 9.42163 31.1327 11.5475 33.9286 10.3797C34.8418 11.4502 35.5673 12.7073 36.0373 14.0335C34.8708 14.9704 34.1918 16.3894 34.2116 17.8726L34.212 18.09C34.1967 19.561 34.875 20.9678 36.0381 21.9017C35.5672 23.2308 34.841 24.4897 33.9251 25.5615C31.0522 24.3869 27.5306 26.4299 27.1109 29.4952C25.7289 29.75 24.2747 29.7508 22.8919 29.496C22.5088 26.5158 18.8668 24.3899 16.0711 25.5578C15.1579 24.4872 14.4324 23.2301 13.9624 21.904C15.129 20.9671 15.808 19.548 15.7881 18.0649Z" fill="black"/>
<path d="M19.5315 22.2656H30.469C30.9004 22.2656 31.2502 21.9162 31.2502 21.4844C31.2502 21.0526 30.9004 20.7031 30.469 20.7031H29.6877V14.4531C29.6877 14.0213 29.3379 13.6719 28.9065 13.6719C28.475 13.6719 28.1252 14.0213 28.1252 14.4531V20.7031H25.7815V16.7969C25.7646 15.7712 24.2362 15.769 24.219 16.7969V20.7031H21.8752V18.3594C21.8598 17.3335 20.3289 17.3321 20.3127 18.3594V20.7031H19.5315C18.5085 20.7181 18.5018 22.2489 19.5315 22.2656Z" fill="black"/>
</svg>
