<svg width="100" height="100" viewBox="0 0 100 100" fill="none" xmlns="http://www.w3.org/2000/svg">
<path d="M9.00007 31.425V67.6822C8.99364 69.3143 9.41735 70.9192 10.2283 72.3341C11.0392 73.7491 12.2085 74.9238 13.6178 75.7393L44.9512 93.8679C46.3556 94.6798 47.948 95.1072 49.5688 95.1072C51.1897 95.1072 52.7821 94.6798 54.1865 93.8679L85.5199 75.7393C86.9292 74.9238 88.0985 73.7491 88.9094 72.3341C89.7203 70.9192 90.1441 69.3143 90.1376 67.6822V31.425C90.1441 29.7928 89.7203 28.188 88.9094 26.773C88.0985 25.3581 86.9292 24.1834 85.5199 23.3679L54.1865 5.2393C52.7821 4.42737 51.1897 4 49.5688 4C47.948 4 46.3556 4.42737 44.9512 5.2393L13.6178 23.3679C12.2085 24.1834 11.0392 25.3581 10.2283 26.773C9.41735 28.188 8.99364 29.7928 9.00007 31.425Z" fill="#48AD32"/>
<path d="M67.6381 68.7565H31.4996C31.4301 68.724 31.373 68.6699 31.3368 68.6021C31.3006 68.5343 31.2873 68.4566 31.2988 68.3805V30.6664C31.2937 30.6034 31.3083 30.5404 31.3407 30.4862C31.3731 30.432 31.4217 30.3893 31.4795 30.3643H31.6401H64.66H64.8005C64.9946 30.4583 65.0281 30.6194 64.8875 30.8074L60.9458 36.2393L55.525 43.625C55.4955 43.675 55.4544 43.7171 55.4053 43.7479C55.3562 43.7786 55.3004 43.7971 55.2427 43.8017C55.1849 43.8063 55.127 43.7969 55.0736 43.7743C55.0202 43.7518 54.9731 43.7167 54.9361 43.672C54.5144 43.2087 54.0995 42.7387 53.6846 42.2754L51.5765 39.959C51.545 39.9061 51.5004 39.8624 51.4471 39.832C51.3937 39.8016 51.3334 39.7856 51.272 39.7856C51.2107 39.7856 51.1503 39.8016 51.097 39.832C51.0436 39.8624 50.999 39.9061 50.9675 39.959L49.0201 42.5037C48.984 42.537 48.9551 42.5775 48.9354 42.6226C48.9157 42.6676 48.9055 42.7163 48.9055 42.7655C48.9055 42.8148 48.9157 42.8634 48.9354 42.9085C48.9551 42.9536 48.984 42.9941 49.0201 43.0274L54.9762 49.1777C55.01 49.2275 55.0553 49.2683 55.1084 49.2966C55.1615 49.3248 55.2207 49.3395 55.2807 49.3395C55.3408 49.3395 55.3999 49.3248 55.453 49.2966C55.5061 49.2683 55.5515 49.2275 55.5852 49.1777L58.1216 46.3241L63.1743 40.6438L66.5941 36.7965L67.3838 35.9103C67.4152 35.8619 67.4625 35.8261 67.5175 35.8089C67.5724 35.7918 67.6316 35.7944 67.6849 35.8163C67.7399 35.8381 67.7862 35.8776 67.8165 35.9286C67.8468 35.9797 67.8593 36.0393 67.8522 36.0983V68.3537C67.8693 68.4354 67.8572 68.5205 67.818 68.5941C67.7789 68.6678 67.7152 68.7252 67.6381 68.7565ZM40.6011 48.2108L40.2197 48.2645C39.7127 48.3157 39.2138 48.4284 38.734 48.6003C37.9044 48.8624 37.151 49.3233 36.5389 49.9431C35.7645 50.7548 35.3308 51.8342 35.3276 52.9578C35.3326 53.1827 35.3527 53.4071 35.3878 53.6293C35.4383 54.082 35.5722 54.5214 35.7827 54.9251C36.052 55.4559 36.4417 55.9158 36.9204 56.268C37.2699 56.5318 37.6469 56.7569 38.0447 56.9394C38.6211 57.1933 39.2163 57.4021 39.8248 57.5638C40.3937 57.7183 40.9692 57.8391 41.5448 57.9868C41.9061 58.0741 42.2675 58.1614 42.6289 58.2755C43.1116 58.397 43.5662 58.6113 43.9674 58.9067C44.1169 59.0222 44.2363 59.1723 44.3156 59.3442C44.3948 59.516 44.4315 59.7046 44.4224 59.8937C44.4192 60.1029 44.359 60.3072 44.2484 60.4845C43.9846 60.906 43.5745 61.2146 43.0974 61.3507C42.5633 61.5297 41.9992 61.6004 41.4377 61.5588C41.0897 61.5588 40.7684 61.5118 40.4004 61.4514C39.7278 61.3263 39.078 61.1 38.473 60.78C37.9311 60.4933 37.4274 60.1391 36.9739 59.7258C36.9391 59.6863 36.8956 59.6553 36.8468 59.6354C36.7981 59.6155 36.7454 59.6072 36.6929 59.6111C36.6404 59.615 36.5895 59.631 36.5442 59.6579C36.499 59.6848 36.4605 59.7218 36.4318 59.7661C35.95 60.4375 35.4748 61.109 34.9997 61.7804C34.9478 61.8503 34.925 61.9378 34.9363 62.0243C34.9475 62.1107 34.9919 62.1894 35.0599 62.2437L35.3678 62.5055C36.5678 63.4925 38.0017 64.1516 39.5304 64.4191C39.8703 64.4858 40.2149 64.5262 40.561 64.54C41.0964 64.54 41.6317 64.54 42.1671 64.54C42.2943 64.54 42.4214 64.54 42.5486 64.54L43.4186 64.399C44.003 64.2964 44.5705 64.1133 45.1051 63.8551C45.7074 63.5752 46.2453 63.1728 46.6844 62.6734C46.9078 62.4143 47.1009 62.1305 47.26 61.8274C47.6062 61.1569 47.7896 60.4138 47.7954 59.6587C47.7942 59.3692 47.7763 59.08 47.7418 58.7925C47.6988 58.3669 47.5786 57.9528 47.3871 57.5705C47.125 57.0449 46.7474 56.5858 46.2829 56.2277C45.8715 55.9085 45.4219 55.6423 44.9444 55.4354C44.1503 55.1116 43.3311 54.8534 42.4951 54.6633C41.8258 54.4954 41.1566 54.3343 40.4874 54.1597C40.0375 54.0567 39.6094 53.8748 39.2225 53.6225C39.0776 53.5363 38.9557 53.4161 38.8671 53.2723C38.7785 53.1285 38.726 52.9653 38.7139 52.7967C38.7047 52.6115 38.7339 52.4264 38.7995 52.253C38.8652 52.0797 38.9659 51.9219 39.0954 51.7895C39.5413 51.3787 40.1298 51.1593 40.735 51.1785C40.9826 51.1785 41.2302 51.1785 41.4845 51.1785C41.8436 51.1872 42.2006 51.2368 42.5486 51.3263C43.1312 51.4599 43.6937 51.6698 44.2217 51.9507C44.5853 52.1455 44.9322 52.3701 45.259 52.6221C45.2955 52.6561 45.3386 52.6821 45.3856 52.6986C45.4326 52.715 45.4825 52.7216 45.5321 52.7178C45.5817 52.714 45.6301 52.7 45.674 52.6766C45.718 52.6532 45.7567 52.6209 45.7877 52.5818L46.5774 51.568C46.8049 51.2591 47.0257 50.957 47.2466 50.6548C47.2758 50.62 47.2976 50.5796 47.3108 50.5361C47.3239 50.4926 47.3281 50.4468 47.3231 50.4016C47.3181 50.3564 47.304 50.3127 47.2817 50.2731C47.2593 50.2335 47.2292 50.1989 47.1931 50.1714C46.7763 49.8354 46.3281 49.5409 45.8546 49.2918C44.9471 48.7885 43.9563 48.4541 42.9301 48.3048C42.5437 48.2544 42.1551 48.223 41.7656 48.2108C41.3708 48.2108 40.9759 48.2108 40.6011 48.2108ZM56.8835 59.3565H60.9926C61.0381 59.3633 61.0846 59.3593 61.1283 59.3449C61.1719 59.3304 61.2116 59.3059 61.2442 59.2732C61.2767 59.2406 61.3012 59.2008 61.3156 59.1569C61.33 59.1131 61.334 59.0665 61.3272 59.0208C61.3272 58.524 61.3272 58.0338 61.2402 57.5437C61.1403 56.5375 60.8105 55.5679 60.2765 54.7103C59.7923 53.9549 59.1244 53.3357 58.3357 52.9108C57.1635 52.2768 55.818 52.0413 54.5011 52.2394C53.4281 52.3787 52.4152 52.8159 51.5765 53.5017C50.6909 54.2211 50.031 55.1816 49.6759 56.268C49.3451 57.2852 49.258 58.3663 49.4216 59.4237C49.5791 60.7152 50.1718 61.9139 51.1014 62.8211C51.9457 63.6758 53.0326 64.2479 54.2133 64.4594C55.1192 64.6138 56.0445 64.6138 56.9504 64.4594C58.1251 64.2833 59.2393 63.8224 60.1962 63.1165C60.2387 63.0934 60.2754 63.0609 60.3036 63.0215C60.3318 62.9822 60.3508 62.9369 60.3592 62.8892C60.3675 62.8414 60.365 62.7924 60.3519 62.7457C60.3387 62.6991 60.3153 62.656 60.2832 62.6197C59.9687 62.1497 59.6541 61.6864 59.3329 61.2231C59.3117 61.1778 59.2801 61.1382 59.2406 61.1076C59.2011 61.077 59.155 61.0563 59.1059 61.0471C59.0569 61.0379 59.0064 61.0406 58.9586 61.0548C58.9108 61.0691 58.867 61.0946 58.831 61.1291C58.3442 61.469 57.8033 61.7233 57.2315 61.8811C56.5795 62.0688 55.8955 62.1168 55.2238 62.0221C54.598 61.9168 54.0187 61.6237 53.5624 61.1814C53.106 60.7391 52.7939 60.1684 52.6674 59.5445C52.6272 59.3633 52.6674 59.3364 52.8347 59.3364L56.8835 59.3565Z" fill="white"/>
<path d="M40.6011 48.2109C40.9759 48.2109 41.3707 48.2109 41.7656 48.2109C42.164 48.2222 42.5616 48.2536 42.9568 48.3049C43.983 48.4542 44.9739 48.7886 45.8814 49.2919C46.3548 49.541 46.8031 49.8355 47.2198 50.1715C47.2559 50.199 47.2861 50.2336 47.3084 50.2732C47.3308 50.3128 47.3449 50.3565 47.3499 50.4017C47.3549 50.4469 47.3507 50.4927 47.3376 50.5362C47.3244 50.5797 47.3026 50.6201 47.2734 50.6549C47.0391 50.9571 46.8183 51.2592 46.6041 51.5681L45.8211 52.6021C45.7902 52.6412 45.7515 52.6734 45.7075 52.6968C45.6635 52.7202 45.6152 52.7343 45.5656 52.7381C45.5159 52.7418 45.466 52.7353 45.419 52.7188C45.372 52.7024 45.3289 52.6763 45.2924 52.6424C44.9657 52.3903 44.6187 52.1657 44.2551 51.9709C43.7272 51.6901 43.1646 51.4801 42.5821 51.3465C42.2341 51.257 41.8771 51.2075 41.518 51.1988C41.2637 51.1988 41.0161 51.1652 40.7684 51.1988C40.1633 51.1796 39.5747 51.3989 39.1288 51.8098C38.9994 51.9421 38.8987 52.1 38.833 52.2733C38.7674 52.4466 38.7382 52.6317 38.7474 52.8169C38.7655 52.9726 38.8182 53.1221 38.9016 53.2546C38.985 53.387 39.0969 53.4991 39.2292 53.5824C39.616 53.8347 40.0442 54.0165 40.4941 54.1195C41.1633 54.2941 41.8325 54.4552 42.5017 54.6231C43.3378 54.8132 44.157 55.0714 44.9511 55.3952C45.4286 55.6021 45.8782 55.8683 46.2896 56.1875C46.7541 56.5456 47.1317 57.0048 47.3938 57.5304C47.5853 57.9126 47.7055 58.3268 47.7485 58.7524C47.781 59.0422 47.7967 59.3336 47.7954 59.6252C47.7896 60.3803 47.6062 61.1234 47.26 61.7939C47.1009 62.097 46.9078 62.3809 46.6844 62.6399C46.2453 63.1393 45.7074 63.5418 45.1051 63.8217C44.5705 64.0799 44.003 64.2629 43.4186 64.3655L42.5486 64.5065C42.4214 64.5065 42.2943 64.5065 42.1671 64.5065C41.6317 64.5065 41.0964 64.5065 40.561 64.5065C40.2157 64.5039 39.8712 64.4747 39.5304 64.4192C38.0043 64.1596 36.5707 63.5098 35.3677 62.5325L35.0599 62.2707C34.9919 62.2164 34.9475 62.1377 34.9363 62.0512C34.925 61.9648 34.9478 61.8773 34.9997 61.8074C35.4748 61.1359 35.95 60.4645 36.4318 59.7931C36.4605 59.7488 36.499 59.7117 36.5442 59.6848C36.5895 59.6579 36.6404 59.6419 36.6929 59.638C36.7454 59.6341 36.7981 59.6424 36.8468 59.6624C36.8956 59.6823 36.9391 59.7132 36.9739 59.7528C37.4274 60.1661 37.9311 60.5202 38.473 60.8069C39.078 61.1269 39.7278 61.3533 40.4004 61.4784C40.7417 61.5388 41.0696 61.5589 41.4377 61.5858C41.9992 61.6274 42.5633 61.5567 43.0974 61.3777C43.5745 61.2415 43.9846 60.933 44.2484 60.5115C44.359 60.3341 44.4192 60.1298 44.4224 59.9207C44.4282 59.7349 44.39 59.5504 44.3109 59.3823C44.2318 59.2142 44.114 59.0674 43.9674 58.9538C43.5662 58.6584 43.1116 58.4441 42.6289 58.3226C42.2675 58.2085 41.9061 58.1212 41.5447 58.0339C40.9692 57.8862 40.3937 57.7654 39.8248 57.6109C39.2149 57.4339 38.6197 57.2094 38.0447 56.9395C37.6469 56.757 37.2699 56.5319 36.9204 56.2681C36.4417 55.9159 36.052 55.456 35.7827 54.9252C35.5722 54.5215 35.4383 54.0821 35.3878 53.6294C35.3527 53.4072 35.3326 53.1829 35.3276 52.9579C35.3308 51.8343 35.7645 50.7549 36.5389 49.9432C37.151 49.3234 37.9044 48.8625 38.734 48.6004C39.2138 48.4285 39.7127 48.3158 40.2197 48.2647L40.6011 48.2109Z" fill="#48AD32"/>
<path d="M56.8836 59.3564H52.8147C52.6273 59.3564 52.6072 59.3564 52.6474 59.5645C52.7739 60.1883 53.086 60.759 53.5423 61.2013C53.9987 61.6436 54.578 61.9368 55.2038 62.0421C55.8755 62.1368 56.5595 62.0887 57.2115 61.9011C57.7833 61.7433 58.3242 61.489 58.811 61.1491C58.847 61.1145 58.8908 61.0891 58.9386 61.0748C58.9864 61.0605 59.0369 61.0579 59.0859 61.0671C59.135 61.0763 59.1811 61.097 59.2206 61.1276C59.26 61.1582 59.2917 61.1978 59.3129 61.2431C59.6341 61.7064 59.9821 62.1696 60.2632 62.6396C60.2952 62.6759 60.3187 62.719 60.3319 62.7657C60.345 62.8123 60.3475 62.8614 60.3391 62.9091C60.3308 62.9569 60.3118 63.0021 60.2836 63.0415C60.2554 63.0809 60.2187 63.1133 60.1762 63.1365C59.2192 63.8423 58.1051 64.3033 56.9304 64.4794C56.0245 64.6338 55.0992 64.6338 54.1933 64.4794C53.0125 64.2679 51.9257 63.6957 51.0814 62.8411C50.1518 61.9338 49.5591 60.7351 49.4016 59.4436C49.238 58.3863 49.3251 57.3052 49.6559 56.2879C50.0131 55.1918 50.6804 54.2236 51.5766 53.5015C52.4152 52.8157 53.4281 52.3785 54.5011 52.2392C55.8181 52.0411 57.1636 52.2767 58.3358 52.9106C59.1245 53.3355 59.7924 53.9547 60.2766 54.7101C60.82 55.5653 61.159 56.5351 61.267 57.5435C61.3206 58.0336 61.3273 58.5238 61.354 59.0206C61.3608 59.0663 61.3568 59.1129 61.3424 59.1567C61.328 59.2006 61.3035 59.2404 61.271 59.2731C61.2385 59.3057 61.1988 59.3302 61.1551 59.3447C61.1114 59.3592 61.0649 59.3632 61.0194 59.3564H56.8836ZM55.4581 57.2548H58.2689C58.3492 57.2548 58.3894 57.2078 58.3693 57.1205C58.3492 57.0332 58.3693 56.9862 58.3693 56.9191C58.3097 56.4844 58.1417 56.0719 57.8808 55.7197C57.6199 55.3676 57.2746 55.0873 56.8769 54.9048C56.4851 54.7137 56.0568 54.61 55.6213 54.6007C55.1857 54.5914 54.7534 54.6768 54.3539 54.8511C53.9011 55.0307 53.5043 55.3282 53.2043 55.7129C52.9043 56.0977 52.7121 56.5558 52.6474 57.0399C52.6474 57.2078 52.6474 57.2346 52.8214 57.2346L55.4581 57.2548Z" fill="#48AD32"/>
<path d="M55.4581 57.2548H52.7812C52.6072 57.2548 52.5804 57.2548 52.6072 57.06C52.6719 56.5759 52.8641 56.1178 53.1641 55.7331C53.4641 55.3483 53.8609 55.0508 54.3137 54.8712C54.7132 54.6969 55.1456 54.6115 55.5811 54.6208C56.0166 54.6301 56.445 54.7338 56.8367 54.9249C57.2344 55.1074 57.5797 55.3877 57.8406 55.7399C58.1015 56.092 58.2695 56.5045 58.3291 56.9392C58.3291 57.0063 58.3291 57.0735 58.3291 57.1406C58.3291 57.2078 58.3291 57.2682 58.2287 57.2749H55.4581V57.2548Z" fill="white"/>
</svg>
