<svg width="30" height="30" viewBox="0 0 30 30" fill="none" xmlns="http://www.w3.org/2000/svg">
<g clip-path="url(#clip0_20914_220)">
<path d="M11.9588 20.7397L11.6198 24.6165H18.3803L18.0413 20.7397H11.9588Z" fill="#00388B"/>
<path d="M7.59717 3.0293H24.5377C25.8976 3.0293 27 4.1317 27 5.49159V19.2232C27 20.5831 25.8976 21.6855 24.5377 21.6855H13.438L9.42773 21.2468L5.13806 12.3574L5.95434 3.4597L7.59717 3.0293Z" fill="#4A66A0"/>
<path d="M5.4623 3.0293C4.10241 3.0293 3 4.1317 3 5.49159V19.2232C3 20.5831 4.10241 21.6855 5.4623 21.6855H13.4379C10.0259 20.4062 7.59712 17.1152 7.59712 13.2564V3.0293" fill="#2A4F95"/>
<path d="M7.59716 5.09863H24.3749C24.811 5.09863 25.165 5.45212 25.165 5.88866V16.7635C25.165 17.2001 24.811 17.5536 24.3749 17.5536H22.1961L20.2703 16.561L18.091 17.5536H15.0792L11.7893 16.1849L9.04396 17.5536H8.68757L6.54473 16.9954L5.44434 10.9434L5.95415 5.78549L7.59716 5.09863Z" fill="#F8F8FF"/>
<path d="M7.59718 13.2562V5.09863H5.62505C5.18898 5.09863 4.83502 5.45212 4.83502 5.88866V16.7635C4.83502 17.2001 5.18898 17.5536 5.62505 17.5536H8.68758C7.99229 16.2765 7.59718 14.8125 7.59718 13.2562Z" fill="#EEECFF"/>
<path d="M21.7683 15.5103L20.9589 15.4291C20.8662 15.4195 20.7894 15.3519 20.7691 15.2611C20.7228 15.0496 20.6605 14.8439 20.5832 14.6449C20.5499 14.5575 20.5765 14.459 20.6484 14.4001L21.2786 13.8848C21.5799 13.6386 21.6244 13.1943 21.3781 12.893L20.7648 12.1425C20.5185 11.8412 20.0742 11.7963 19.7729 12.0426L19.1427 12.5578C19.0703 12.6167 18.9684 12.6235 18.8897 12.5728C18.7101 12.4578 18.5203 12.3559 18.3228 12.268C18.2378 12.2304 18.1866 12.142 18.1958 12.0493L18.2774 11.2395C18.3161 10.8522 18.0336 10.5069 17.6463 10.4678L16.6819 10.3707C16.2947 10.3321 15.9489 10.6146 15.9098 11.0018L15.8286 11.8112C15.8195 11.9039 15.7519 11.9807 15.6606 12.001C15.4496 12.0473 15.2439 12.1096 15.0444 12.1869C14.9575 12.2202 14.8585 12.1936 14.7996 12.1217L14.2843 11.4915C14.0381 11.1902 13.5943 11.1452 13.2929 11.392L12.542 12.0053C12.2407 12.2516 12.1963 12.6959 12.4426 12.9972L12.9578 13.6274C13.0167 13.6998 13.023 13.8017 12.9728 13.8804C12.8578 14.06 12.7555 14.2493 12.6681 14.4473C12.6299 14.5323 12.5416 14.5835 12.4489 14.5743L12.0997 14.539V16.9304L12.2113 16.9415C12.304 16.9507 12.3808 17.0183 12.4006 17.109C12.4339 17.2602 12.4754 17.4084 12.5247 17.5538H15.0792C14.7045 17.1419 14.5002 16.5788 14.5602 15.9815C14.6722 14.8631 15.6699 14.048 16.7883 14.16C17.9067 14.2725 18.7223 15.2701 18.6102 16.3885C18.5649 16.84 18.3751 17.2423 18.0912 17.5538H22.1963C22.2537 17.4639 22.2909 17.3596 22.3025 17.2466L22.3991 16.2818C22.4381 15.8947 22.1555 15.5489 21.7683 15.5103Z" fill="#68A2DF"/>
<path d="M14.5031 9.77256C14.5031 10.8113 14.0443 11.7428 13.3186 12.3759C13.1505 12.5222 13.0563 12.7356 13.0563 12.9582V17.5535H9.04393V12.9602C9.04393 12.7371 8.94975 12.5236 8.78171 12.3773C8.05735 11.7466 7.59957 10.8181 7.59718 9.78076C7.59479 8.67301 8.11388 7.68596 8.92322 7.0524C9.12169 6.89692 9.41241 7.03984 9.41241 7.29193V9.32832C9.41241 9.49974 9.50414 9.6586 9.65288 9.7441L10.8099 10.4124C10.9586 10.4984 11.1416 10.4984 11.2904 10.4124L12.4478 9.7441C12.5961 9.65865 12.6878 9.49974 12.6878 9.32832V7.29193C12.6878 7.03984 12.9786 6.89692 13.1775 7.0524C13.9845 7.68451 14.5031 8.66818 14.5031 9.77256Z" fill="#F2AB1D"/>
<path d="M19.9959 26.9712H10.0041C9.68578 26.9712 9.42773 26.7131 9.42773 26.3948V26.3132C9.42773 25.1378 10.3805 24.1851 11.5559 24.1851H18.4441C19.6194 24.1851 20.5722 25.1378 20.5722 26.3132V26.3948C20.5723 26.7131 20.3142 26.9712 19.9959 26.9712Z" fill="#4A66A0"/>
<path d="M15.8265 19.9816H14.1734C13.9734 19.9816 13.8113 19.8195 13.8113 19.6195C13.8113 19.4195 13.9734 19.2573 14.1734 19.2573H15.8265C16.0265 19.2573 16.1886 19.4195 16.1886 19.6195C16.1886 19.8195 16.0265 19.9816 15.8265 19.9816Z" fill="#A4E7FF"/>
<path d="M13.0081 24.1851H11.5559C10.3805 24.1851 9.42773 25.1378 9.42773 26.3132V26.3948C9.42773 26.7131 9.68578 26.9712 10.0041 26.9712H14.9849C13.8982 26.4773 13.1183 25.4278 13.0081 24.1851Z" fill="#2A4F95"/>
</g>
<defs>
<clipPath id="clip0_20914_220">
<rect width="24" height="24" fill="white" transform="translate(3 3)"/>
</clipPath>
</defs>
</svg>
