<svg width="51" height="51" viewBox="0 0 51 51" fill="none" xmlns="http://www.w3.org/2000/svg">
<path d="M26.1231 9.61991C26.1231 8.75544 25.4224 8.05469 24.5579 8.05469C23.6934 8.05469 22.9927 8.75544 22.9927 9.61991V10.8358C22.9927 11.7002 23.6934 12.401 24.5579 12.401C25.4224 12.401 26.1231 11.7002 26.1231 10.8358V9.61991Z" fill="black"/>
<path d="M17.6402 11.8366C17.029 11.2254 16.038 11.2254 15.4267 11.8366C14.8155 12.4479 14.8155 13.4389 15.4267 14.0501L16.2864 14.9099C16.8977 15.5211 17.8887 15.5211 18.5 14.9099C19.1112 14.2986 19.1112 13.3076 18.5 12.6963L17.6402 11.8366Z" fill="black"/>
<path d="M33.6885 14.0504C34.2998 13.4391 34.2997 12.4481 33.6885 11.8368C33.0772 11.2256 32.0861 11.2256 31.4749 11.8368L30.6152 12.6966C30.0039 13.3078 30.0039 14.2988 30.6152 14.9101C31.2264 15.5214 32.2175 15.5214 32.8288 14.9101L33.6885 14.0504Z" fill="black"/>
<path fill-rule="evenodd" clip-rule="evenodd" d="M24.5575 13.7285C20.108 13.7285 16.5078 17.3439 16.5078 21.7951C16.5078 24.575 17.9116 27.0258 20.0448 28.4756V28.668C20.0448 29.5976 20.5787 30.4025 21.3566 30.7928C20.6677 30.9568 20.1553 31.5763 20.1553 32.3155C20.1553 33.18 20.8561 33.8807 21.7205 33.8807H27.3945C28.2589 33.8807 28.9597 33.18 28.9597 32.3155C28.9597 31.5763 28.4473 30.9568 27.7584 30.7928C28.5363 30.4025 29.0702 29.5976 29.0702 28.668V28.4756C31.2034 27.0258 32.6072 24.575 32.6072 21.7951C32.6072 17.3439 29.007 13.7285 24.5575 13.7285ZM19.6383 21.7951C19.6383 19.0651 21.8445 16.859 24.5575 16.859C27.2705 16.859 29.4768 19.0651 29.4768 21.7951C29.4768 23.7132 28.3871 25.3766 26.7911 26.1946C26.2684 26.4625 25.9397 27.0003 25.9397 27.5876V27.9133H23.1753V27.5876C23.1753 27.0003 22.8466 26.4625 22.3239 26.1946C20.7279 25.3766 19.6383 23.7132 19.6383 21.7951Z" fill="black"/>
<path d="M13.2098 19.4023C12.3453 19.4023 11.6445 20.1031 11.6445 20.9676C11.6445 21.832 12.3453 22.5328 13.2098 22.5328H14.4256C15.29 22.5328 15.9908 21.832 15.9908 20.9676C15.9908 20.1031 15.29 19.4023 14.4256 19.4023H13.2098Z" fill="black"/>
<path d="M34.6897 19.4023C33.8253 19.4023 33.1245 20.1031 33.1245 20.9676C33.1245 21.832 33.8253 22.5328 34.6897 22.5328H35.9056C36.7701 22.5328 37.4708 21.832 37.4708 20.9676C37.4708 20.1031 36.7701 19.4023 35.9056 19.4023H34.6897Z" fill="black"/>
<path fill-rule="evenodd" clip-rule="evenodd" d="M24.1664 1.7937C13.7931 1.7937 5.38379 10.203 5.38379 20.5763C5.38379 27.4469 9.07309 33.4534 14.5726 36.7271L12.4601 46.8658C12.3641 47.327 12.4809 47.807 12.778 48.1726C13.0753 48.538 13.5214 48.7503 13.9925 48.7503H35.123C35.9874 48.7503 36.6882 48.0495 36.6882 47.1851V42.1103L39.6245 42.4774C40.4488 42.5804 41.21 42.0215 41.3586 41.2042L42.6902 33.8807H44.5143C45.0291 33.8807 45.5109 33.6275 45.8031 33.2037C46.0952 32.7798 46.1602 32.2393 45.977 31.7583L42.9491 23.81V20.5763C42.9491 10.203 34.5398 1.7937 24.1664 1.7937ZM8.51423 20.5763C8.51423 11.9319 15.522 4.92414 24.1664 4.92414C32.8109 4.92414 39.8186 11.9319 39.8186 20.5763V24.0981C39.8186 24.2885 39.8534 24.4773 39.9211 24.6553L42.2431 30.7503H41.3838C40.6274 30.7503 39.9792 31.2912 39.8439 32.0355L38.5435 39.1874L35.3171 38.7841C34.8716 38.7284 34.4237 38.8667 34.0871 39.1638C33.7505 39.4609 33.5577 39.8883 33.5577 40.3372V45.6199H15.9174L17.8727 36.2357C18.0165 35.5452 17.6808 34.8438 17.0527 34.5228C11.9809 31.93 8.51423 26.6567 8.51423 20.5763Z" fill="black"/>
</svg>
